<svg data-name="Layer 1" xmlns="http://www.w3.org/2000/svg" viewBox="0 0 450 450"><path d="M250.69 319.67h-63.17a3 3 0 010-6h63.17a3 3 0 010 6z"/><path d="M345.46 352.26H92.75a14.55 14.55 0 01-14.53-14.53v-5.26a4 4 0 01.67-2.22L100 298.66a4 4 0 013.33-1.78h231.6a4 4 0 013.33 1.78l21.06 31.59a4 4 0 01.67 2.22v5.26a14.55 14.55 0 01-14.53 14.53zM86.22 333.68v4.05a6.54 6.54 0 006.53 6.53h252.71a6.54 6.54 0 006.53-6.53v-4.05l-19.2-28.8H105.42z"/><path d="M356 336.47H82.22a4 4 0 010-8H356a4 4 0 010 8zM334.93 304.88H103.28a4 4 0 01-4-4v-150a11.92 11.92 0 0111.9-11.9H327a11.91 11.91 0 0111.9 11.9v150a4 4 0 01-3.97 4zm-227.65-8h223.65v-146a3.91 3.91 0 00-3.9-3.9H111.18a3.91 3.91 0 00-3.9 3.9z"/><path d="M308.61 272.29h-21.07a3 3 0 010-6h18.07v-94h-78.24v59.8a3 3 0 01-6 0v-62.8a3 3 0 013-3h84.24a3 3 0 013 3v100a3 3 0 01-3 3z"/><path d="M198.05 288.08a3 3 0 01-3-3v-27.22a3 3 0 015.12-2.12l21.08 21.08h40a7.55 7.55 0 007.43-8.82c-.58-3.56-4-6.24-8-6.24h-31.95a3 3 0 01-2.12-.88l-22.34-22.34a28.4 28.4 0 00-20.21-8.37h-43.93A12.81 12.81 0 00127.34 243v42.11a3 3 0 01-6 0V243a18.81 18.81 0 0118.79-18.8h43.93a34.39 34.39 0 0124.46 10.13L230 255.76h30.69c6.88 0 12.86 4.85 13.91 11.28a13.54 13.54 0 01-13.35 15.78H220a3 3 0 01-2.12-.88l-16.83-16.84v20a3 3 0 01-3 2.98zM166.46 219.64c-13.72 0-24.06-12.61-24.06-29.32a24.06 24.06 0 0148.12 0c0 16.68-10.35 29.32-24.06 29.32zm0-47.38a18.08 18.08 0 00-18.06 18.06c0 13.51 7.59 23.32 18.06 23.32s18.06-9.81 18.06-23.32a18.08 18.08 0 00-18.06-18.06z"/></svg>