<?xml version="1.0" encoding="utf-8"?>
<!-- Generator: Adobe Illustrator 24.1.0, SVG Export Plug-In . SVG Version: 6.00 Build 0)  -->
<svg version="1.1" id="b8ee7468-3583-42f6-846f-328fd59f3260"
	 xmlns="http://www.w3.org/2000/svg" xmlns:xlink="http://www.w3.org/1999/xlink" x="0px" y="0px" viewBox="0 0 64 64"
	 style="enable-background:new 0 0 64 64;" xml:space="preserve">
<g>
	<path d="M39.2,48.8H24.8c-0.4,0-0.7-0.3-0.7-0.7s0.3-0.7,0.7-0.7h14.3c0.4,0,0.7,0.3,0.7,0.7S39.5,48.8,39.2,48.8z"/>
	<path d="M60.7,56.2H3.3c-1.8,0-3.3-1.5-3.3-3.3v-1.2c0-0.2,0.1-0.4,0.2-0.5L4.9,44c0.2-0.3,0.5-0.4,0.8-0.4h52.6
		c0.3,0,0.6,0.2,0.8,0.4l4.8,7.2c0.1,0.1,0.2,0.3,0.2,0.5v1.2C64,54.7,62.5,56.2,60.7,56.2z M1.8,52v0.9c0,0.8,0.7,1.5,1.5,1.5h57.4
		c0.8,0,1.5-0.7,1.5-1.5V52l-4.4-6.5H6.2L1.8,52z"/>
	<path d="M63.1,52.6H0.9c-0.5,0-0.9-0.4-0.9-0.9c0-0.5,0.4-0.9,0.9-0.9h62.2c0.5,0,0.9,0.4,0.9,0.9C64,52.2,63.6,52.6,63.1,52.6z"/>
	<path d="M58.3,45.5H5.7c-0.5,0-0.9-0.4-0.9-0.9V10.5C4.8,9,6,7.8,7.5,7.8h49c1.5,0,2.7,1.2,2.7,2.7v34.1
		C59.2,45.1,58.8,45.5,58.3,45.5z M6.6,43.6h50.8V10.5c0-0.5-0.4-0.9-0.9-0.9h-49C7,9.6,6.6,10,6.6,10.5V43.6z"/>
	<path d="M52.3,38.1h-4.8c-0.4,0-0.7-0.3-0.7-0.7c0-0.4,0.3-0.7,0.7-0.7h4.1V15.3H33.9v13.6c0,0.4-0.3,0.7-0.7,0.7s-0.7-0.3-0.7-0.7
		V14.7c0-0.4,0.3-0.7,0.7-0.7h19.1c0.4,0,0.7,0.3,0.7,0.7v22.7C53,37.8,52.7,38.1,52.3,38.1z"/>
	<path d="M27.2,41.6c-0.4,0-0.7-0.3-0.7-0.7v-6.2c0-0.4,0.3-0.7,0.7-0.7c0.2,0,0.4,0.1,0.5,0.2l4.8,4.8h9.1c0.9,0,1.7-0.8,1.7-1.7
		c0-0.1,0-0.2,0-0.3c-0.1-0.8-0.9-1.4-1.8-1.4h-7.3c-0.2,0-0.4-0.1-0.5-0.2l-5.1-5.1c-1.2-1.2-2.9-1.9-4.6-1.9h-10
		c-1.6,0-2.9,1.3-2.9,2.9c0,0,0,0,0,0V41c0,0.4-0.3,0.7-0.7,0.7S9.8,41.3,9.8,41v-9.6c0-2.4,1.9-4.3,4.3-4.3h10
		c2.1,0,4.1,0.8,5.6,2.3l4.9,4.9h7c1.6,0,2.9,1.1,3.2,2.6c0.3,1.7-0.8,3.3-2.5,3.5c-0.2,0-0.3,0-0.5,0h-9.4c-0.2,0-0.4-0.1-0.5-0.2
		l-3.8-3.8V41C27.9,41.3,27.6,41.6,27.2,41.6z"/>
	<path d="M20,26.1c-3.1,0-5.5-2.9-5.5-6.7c0-3,2.4-5.5,5.5-5.5c3,0,5.5,2.4,5.5,5.5C25.5,23.2,23.2,26.1,20,26.1z M20,15.3
		c-2.3,0-4.1,1.8-4.1,4.1c0,3.1,1.7,5.3,4.1,5.3s4.1-2.2,4.1-5.3C24.1,17.2,22.3,15.3,20,15.3z"/>
</g>
</svg>
