<svg data-name="Layer 1" xmlns="http://www.w3.org/2000/svg" viewBox="0 0 450 450"><path d="M111.17 266.77l7.35-1.32a113.38 113.38 0 01-1.76-15.82h12.81a98.81 98.81 0 002.24 17.28l7.29-1.6a91.09 91.09 0 01-2.1-15.68h28.52v-7.46H69.33v7.46h40a120.43 120.43 0 001.84 17.14z"/><path d="M316 168.45l14.68-16.07-7.63-7 6.78-7.45-5.52-5-6.77 7.44-7.81-7.13L295 149.46a117.3 117.3 0 00-53.61-20.64v-14.29h10.45V86.17h-49.32v28.36H213v14.29a117.53 117.53 0 00-84.56 52.72l6.26 4.08a110.47 110.47 0 11-.2 120.26 111.24 111.24 0 01-7.89-14.45h14.26a97.6 97.6 0 1011.39-108.19L158 188a90.07 90.07 0 0164.69-32.21v7.38h7.46v-7.45a90.32 90.32 0 0187.18 86.42h-8.21v7.46h8.21a90.32 90.32 0 01-87.18 86.42v-7.42h-7.46v7.4a90.29 90.29 0 01-63.13-30.55 91.28 91.28 0 01-10.13-14h16.18V284H91.4v7.47h27.05A117.88 117.88 0 10316 168.45zm-106-61.38V93.63h34.33v13.44H210zM220.43 128v-13.47h13.44V128zm80.51 26l9.29-10.17 9.92 9.06-9.24 10.11a118 118 0 00-9.97-9z"/><path d="M111.17 225l7.35 1.31a110.77 110.77 0 015-18.51h13.68a100 100 0 00-3.87 10.8c-.4 1.38-.68 2.8-1 4.23l-.41 2 7.29 1.6.45-2.23c.23-1.19.45-2.39.79-3.54a90.16 90.16 0 014.85-12.89h20.2v-7.46h-63.65v7.46h13.76a120 120 0 00-4.44 17.23zM48.43 242.17h10.45v7.46H48.43zM70.5 283.96h10.45v7.46H70.5zM80.95 200.37H91.4v7.46H80.95zM277.08 190.89l-42.78 42.78a14.18 14.18 0 105.23 5.32l42.83-42.83zm-49.93 61.73a6.72 6.72 0 116.72-6.72 6.73 6.73 0 01-6.72 6.72z"/></svg>