<svg data-name="Layer 1" xmlns="http://www.w3.org/2000/svg" viewBox="0 0 450 450"><path d="M371.86 91.07h-82.61a4.38 4.38 0 00-4.23 4.4 4 4 0 001.21 2.84l24.06 24.07a2.13 2.13 0 010 2.93l-43.12 43.2a4.27 4.27 0 105.95 6.13l.09-.09 47.69-47.69a4.32 4.32 0 000-6l-17.77-17.76a2.15 2.15 0 010-2.93 2 2 0 011.55-.61h60.89a2.1 2.1 0 012.07 2.07v60.89a2 2 0 01-1.29 1.89 2.45 2.45 0 01-.78.18 2.25 2.25 0 01-1.47-.61l-17.76-17.76a4.32 4.32 0 00-6 0L292.61 194a4.27 4.27 0 005.95 6.13l.09-.09 43.12-43.12a2 2 0 011.46-.6 2.29 2.29 0 011.47.6l24.06 24.06a4.38 4.38 0 003 1.29 3.5 3.5 0 001.64-.34 4.21 4.21 0 002.58-4V95.3a4.05 4.05 0 00-4.12-4.23zM376.18 212.49v69.86a4.38 4.38 0 01-4.4 4.22 4.08 4.08 0 01-2.85-1.2l-20.95-21a2.14 2.14 0 00-2.94 0l-40 40a4.27 4.27 0 01-6-6L343.49 254a4.34 4.34 0 016 0l14.57 14.58a2.14 2.14 0 002.94 0 2 2 0 00.6-1.47v-48.2a2.09 2.09 0 00-2.07-2.07h-48.17a2 2 0 00-1.9 1.29 2.73 2.73 0 00-.17.78 2.22 2.22 0 00.61 1.46l14.57 14.58a4.31 4.31 0 010 6L305 266.39a4.22 4.22 0 01-7.24-3 4 4 0 011.29-3l21-21a2.15 2.15 0 000-2.93l-21.05-21a4.24 4.24 0 010-6 4.39 4.39 0 013-1.3h70a4.51 4.51 0 014.18 4.33zM197.66 100.9a2.73 2.73 0 00-.17.78 1.87 1.87 0 00.6 1.46l14.58 14.58a4.32 4.32 0 010 6l-44.5 44.49a4.27 4.27 0 11-6.12-5.95l.08-.08 40-40a2.15 2.15 0 000-2.93l-21-21a4.23 4.23 0 013-7.24h69.85a4.27 4.27 0 014.31 4.31v69.86a4.37 4.37 0 01-4.39 4.22 4.05 4.05 0 01-2.85-1.21l-21-20.95a2.13 2.13 0 00-2.93 0l-21 20.95a4.27 4.27 0 01-6.13-5.95l.09-.08 25.44-25.44a4.32 4.32 0 016 0l14.57 14.57a2.13 2.13 0 002.93 0 2 2 0 00.61-1.46v-48.15a2.1 2.1 0 00-2.07-2.07h-48a2 2 0 00-1.9 1.29z"/><g><path d="M134.19 194.56a49 49 0 0121.91 5.08c6.81 3.37 12.41 8.8 16.73 16.22s6.46 17 6.46 28.54c0 21.73-4.82 39.07-14.57 51.83S144.63 318 133.67 323s-18.28 7.5-22 7.5a6.08 6.08 0 01-5.17-2.93 24 24 0 01-3.28-6.82 22.23 22.23 0 01-1.12-6.12 5.48 5.48 0 01.52-2.85 3.13 3.13 0 012-1.12 64 64 0 0025.7-14A54.74 54.74 0 00146.09 273a39.27 39.27 0 01-19.09 4.69 39.75 39.75 0 01-16.81-4 36.43 36.43 0 01-14.66-13.1c-4.06-6-6.13-13.89-6.13-23.38 0-9.83 2.16-17.85 6.47-24.23A38.59 38.59 0 01112.55 199a53.09 53.09 0 0121.64-4.39m.95 60.88c4.57 0 9.57-1.55 15.09-4.57.09-1.9.17-4.83.17-8.8 0-8.88-1.46-15.35-4.48-19.31a14.25 14.25 0 00-11.9-5.95 14.5 14.5 0 00-11.56 5.52c-3.1 3.7-4.65 8.36-4.65 14.14s1.55 10.43 4.57 13.88 7.33 5.09 12.76 5.09m-.95-67.78a60.2 60.2 0 00-24.58 5.09 45.6 45.6 0 00-19.49 16.47c-5.08 7.5-7.67 17-7.67 28.11 0 10.87 2.41 20.09 7.33 27.25A43.15 43.15 0 00107.29 280a46.59 46.59 0 0019.71 4.68c1.82 0 3.63-.09 5.44-.26a51.57 51.57 0 01-6.64 7.15A57.9 57.9 0 01103 304a10 10 0 00-6.12 4.14 11.82 11.82 0 00-1.55 6.47 27.12 27.12 0 001.46 8.11 29.72 29.72 0 004.21 8.78 13 13 0 0010.78 5.87c3.28 0 9-.95 24.84-8.2 11.9-5.51 23.28-15.17 33.63-28.8 10.61-14 16-32.77 16-56.05 0-12.77-2.5-23.55-7.42-32-5-8.62-11.55-15-19.57-19a57.12 57.12 0 00-25.1-5.69zm.95 60.88c-4.66 0-6.55-1.55-7.67-2.76-1.9-2.07-2.76-5.09-2.76-9.23s1-7.24 3-9.65a7.63 7.63 0 016.3-3.11 7.4 7.4 0 016.47 3.19c1.12 1.55 3.1 5.52 3.1 15.09v4.49a22.52 22.52 0 01-8.45 2z"/><path d="M237 194.3c9.4 0 17.5 2.67 24.23 8.1s11.9 13.29 15.52 23.46 5.44 22.51 5.44 36.74-1.81 26.47-5.44 36.74-8.79 18.11-15.52 23.45-14.84 8.11-24.23 8.11-17.51-2.67-24.24-8.11-11.9-13.28-15.52-23.45-5.43-22.51-5.43-36.74 1.81-26.48 5.43-36.74 8.8-18.11 15.52-23.46 14.75-8.1 24.24-8.1m0 114.44c5.34 0 9.48-3.88 12.33-11.65s4.31-19.23 4.31-34.41-1.46-26.64-4.31-34.4-7-11.65-12.33-11.65-9.49 3.88-12.33 11.65-4.32 19.23-4.32 34.4 1.47 26.65 4.32 34.41 7 11.65 12.33 11.65m0-121.34c-11 0-20.61 3.28-28.55 9.66-7.76 6.21-13.71 15.18-17.76 26.56-3.88 10.95-5.87 24.06-5.87 39.06s2 28.12 5.87 39.07c4 11.47 10 20.35 17.76 26.56C216.38 334.69 226 338 237 338s20.61-3.28 28.54-9.66c7.76-6.21 13.71-15.18 17.77-26.56 3.88-10.95 5.86-24.06 5.86-39.07s-2-28.11-5.86-39.06c-4.06-11.38-10-20.35-17.77-26.56A44.63 44.63 0 00237 187.4zm0 114.44c-2.68 0-4.66-3.88-5.87-7.16-2.58-7-3.88-17.68-3.88-32s1.3-25 3.88-32c1.21-3.28 3.19-7.16 5.87-7.16s4.65 3.88 5.86 7.16c2.59 7 3.88 17.77 3.88 32s-1.29 25-3.88 32c-1.29 3.28-3.28 7.16-5.86 7.16z"/></g></svg>