<svg data-name="Layer 1" xmlns="http://www.w3.org/2000/svg" viewBox="0 0 450 450"><path d="M314 204.42a21.92 21.92 0 10-21.92 21.93A21.95 21.95 0 00314 204.42zm-32.88 0a11 11 0 1111 11 11 11 0 01-10.99-11zM200.67 159.09a192 192 0 00-20.28 7.4 5.47 5.47 0 002.1 10.53 5.32 5.32 0 002.1-.42c22.5-9.36 40.89-15.22 73-5.3a5.48 5.48 0 003.23-10.47 136 136 0 00-17-4.13 32.88 32.88 0 10-43.11 2.39zm20.18-47.83a21.92 21.92 0 11-21.92 21.92 21.94 21.94 0 0121.92-21.92z"/><path d="M365.37 215.78l-23.89-9.56c-.31-15.08-7.3-39.72-32.43-49.4l4.92-39.4a5.48 5.48 0 00-8.72-5.06l-43.84 32.88A5.48 5.48 0 00268 154l33.51-25.14-3.88 31a5.49 5.49 0 003.92 5.95c30.68 8.89 29 42.29 28.93 43.7a5.48 5.48 0 003.42 5.49l24 9.58V261l-24 9.58a183.71 183.71 0 00-1.42.92 6.46 6.46 0 00-.77.8 5.1 5.1 0 00-.55.82 5.58 5.58 0 00-.41 1.05 4.07 4.07 0 00-.22.58c-5.32 31.31-27 33.73-27.94 33.82-.15 0-.27.1-.42.12a5.16 5.16 0 00-1.61.47 4.7 4.7 0 00-.8.61 5.07 5.07 0 00-.85.68 5.46 5.46 0 00-1.06 1.86l-9.71 29.12h-20.06l-9.45-18.89a4.69 4.69 0 00-.57-.74 5.83 5.83 0 00-.61-.78 5.62 5.62 0 00-.91-.62 4.84 4.84 0 00-.86-.48 5.33 5.33 0 00-1.05-.24 6.51 6.51 0 00-1-.13 5.72 5.72 0 00-1.07.19 4.94 4.94 0 00-.84.15c-.21.08-22.33 8.5-51.22-.15a4.48 4.48 0 00-.63-.06 5.41 5.41 0 00-1.05-.1 5.61 5.61 0 00-1.09.14 4.87 4.87 0 00-1.87.83 5.17 5.17 0 00-.77.63 4.84 4.84 0 00-.68.87 4.3 4.3 0 00-.38.49l-9.45 18.89H164.7L154.88 307a5.62 5.62 0 00-1-1.91c-.06-.07-.16-.11-.22-.18a5.37 5.37 0 00-1.43-1.2c-21.24-11.53-35.5-38.22-35.5-66.42a82.31 82.31 0 0161.66-79.59 5.48 5.48 0 00-2.76-10.61 93.19 93.19 0 00-41.81 23.7q-1.73-2.81-3.29-5.58c7.56-9.08 14.39-20.22 12.13-29-1-4.09-4.37-9.42-14.26-11.56-10.33-2.24-15.14 1.25-17.39 4.56-5.21 7.69-.08 22.17 6.2 34.51-3 3.22-6.29 6.36-9.55 9.19a5.48 5.48 0 107.18 8.27c1.44-1.25 4.42-3.9 7.92-7.43 1.22 2.06 2.38 3.91 3.41 5.52a92.89 92.89 0 00-20.4 58.06c0 31.69 15.31 60.74 39.16 74.83l10.37 36.27a5.47 5.47 0 005.27 4H188a5.49 5.49 0 004.9-3l9-18a103.94 103.94 0 0025.22 3.25 91.85 91.85 0 0023.84-3l8.87 17.74a5.49 5.49 0 004.9 3h27.4a5.48 5.48 0 005.2-3.75l9.92-29.76c11-2.5 27.88-12.86 33.48-39.22l24.68-9.87a5.46 5.46 0 003.44-5.08v-43.88a5.46 5.46 0 00-3.48-5.08zM125 154.55c-4.35-9.37-6.48-16.91-4.92-19.21.1-.14.72-.47 2.21-.47a17.88 17.88 0 013.78.48c2.45.53 5.47 1.57 6 3.55.83 3.32-2.18 9.19-7.07 15.65z"/></svg>