<?xml version="1.0" encoding="utf-8"?>
<!-- Generator: Adobe Illustrator 24.1.0, SVG Export Plug-In . SVG Version: 6.00 Build 0)  -->
<svg version="1.1" id="a2a4f689-11da-4f83-8557-cbe3299f1ae8"
	 xmlns="http://www.w3.org/2000/svg" xmlns:xlink="http://www.w3.org/1999/xlink" x="0px" y="0px" viewBox="0 0 64 64"
	 style="enable-background:new 0 0 64 64;" xml:space="preserve">
<g>
	<g>
		<path d="M44.9,36.4c0.2-0.3,0.1-0.8-0.2-1.1c-4.2-2.8-9.8-1.7-12.6,2.5s-1.7,9.8,2.5,12.6c4.2,2.8,9.8,1.7,12.6-2.5
			c2-3.1,2-7,0-10.1c-0.2-0.3-0.7-0.4-1.1-0.2c-0.3,0.2-0.4,0.7-0.2,1.1c2.3,3.5,1.4,8.2-2.1,10.5c-3.5,2.3-8.2,1.4-10.5-2.1
			c-2.3-3.5-1.4-8.2,2.1-10.5c2.6-1.7,5.9-1.7,8.4,0C44.2,36.8,44.7,36.7,44.9,36.4z"/>
		<path d="M39.7,30.8c-6.7,0-12.1,5.4-12.2,12.2c0,2.7,0.9,5.3,2.5,7.4c0.3,0.3,0.8,0.4,1.1,0.1c0.3-0.3,0.4-0.7,0.1-1
			c-1.4-1.9-2.2-4.1-2.2-6.5c0-5.9,4.8-10.6,10.6-10.6c5.9,0,10.6,4.8,10.6,10.6s-4.8,10.6-10.6,10.6c-2.3,0-4.6-0.8-6.5-2.2
			c-0.3-0.3-0.8-0.2-1.1,0.1c-0.3,0.3-0.2,0.8,0.1,1.1c2.1,1.6,4.7,2.5,7.4,2.5c6.7-0.1,12.1-5.6,12-12.3
			C51.6,36.2,46.3,30.8,39.7,30.8L39.7,30.8z"/>
		<path d="M51.8,21.7c-4.4,0-8.2,3.1-9,7.5c-0.1,0.4,0.2,0.8,0.6,0.9c0,0,0.1,0,0.1,0c0.4,0,0.7-0.3,0.7-0.6
			c0.8-4.1,4.7-6.9,8.9-6.1c1,0.2,2,0.6,2.8,1.2c0.4,0.2,0.8,0.1,1-0.2c0.2-0.3,0.1-0.8-0.2-1C55.4,22.2,53.6,21.6,51.8,21.7z"/>
		<path d="M53.2,38.2c-0.4,0.1-0.7,0.5-0.6,0.9c0.1,0.4,0.4,0.6,0.7,0.6c0,0,0.1,0,0.1,0c5-0.9,8.2-5.7,7.3-10.6
			c-0.2-1.2-0.7-2.4-1.4-3.4c-0.2-0.3-0.7-0.4-1.1-0.2c-0.3,0.2-0.4,0.7-0.2,1c2.3,3.5,1.4,8.2-2.1,10.5
			C55.2,37.7,54.2,38.1,53.2,38.2L53.2,38.2z"/>
		<path d="M51.8,18.6c-5.8,0-10.7,4.1-11.9,9.7c-0.1,0.3-0.1,0.5-0.1,0.8C39.7,29.6,40,30,40.4,30c0.4,0.1,0.8-0.2,0.9-0.6
			c0,0,0,0,0,0c0-0.2,0.1-0.5,0.1-0.7c1.2-5.8,6.8-9.5,12.6-8.3s9.5,6.8,8.3,12.6c-0.9,4.2-4.1,7.4-8.3,8.3c-0.2,0-0.5,0.1-0.7,0.1
			c-0.4,0.1-0.7,0.4-0.7,0.9c0.1,0.4,0.4,0.7,0.8,0.7c0,0,0.1,0,0.1,0c0.3,0,0.5-0.1,0.8-0.1c6.6-1.3,10.8-7.7,9.5-14.3
			C62.6,22.7,57.6,18.6,51.8,18.6L51.8,18.6z"/>
		<path d="M39.7,36.1c0.5,0,1,0.4,1,1v0.1c0,0.1,0.1,0.2,0.1,0.2c1.4,0.4,2.2,1.5,2.2,3.2c0,0.5-0.4,1-1,1c-0.5,0-1-0.4-1-1
			c0-0.7-0.2-1.3-1.3-1.3c-1.2,0-1.3,0.6-1.3,1.3c0,0.6,0.5,0.9,1.7,1.4c1.2,0.5,2.9,1.3,2.9,3.2c0,1.6-0.8,2.8-2.2,3.2
			c-0.1,0-0.1,0.1-0.1,0.2v0.2c0,0.5-0.4,1-1,1c-0.5,0-1-0.4-1-1c0,0,0-0.1,0-0.1v-0.2c0-0.1,0-0.2-0.1-0.2
			c-1.4-0.4-2.2-1.5-2.2-3.2c0-0.5,0.4-1,1-1c0.5,0,1,0.4,1,1c0,0,0,0.1,0,0.1c0,0.7,0.2,1.3,1.3,1.3c0.7,0,1.3-0.2,1.3-1.3
			c0-0.6-0.5-0.9-1.7-1.4c-1.2-0.5-2.9-1.3-2.9-3.3c0-1.6,0.8-2.8,2.2-3.2c0.1,0,0.1-0.1,0.1-0.2v-0.1
			C38.7,36.6,39.1,36.1,39.7,36.1"/>
		<path d="M52.2,29.9c-1.2-0.5-1.7-0.8-1.7-1.4c0-0.7,0.2-1.3,1.3-1.3c1.2,0,1.3,0.6,1.3,1.3c0,0.5,0.4,1,1,1c0.5,0,1-0.4,1-1
			c0,0,0-0.1,0-0.1c0-1.6-0.8-2.8-2.2-3.2c-0.1,0-0.1-0.1-0.1-0.2V25c0-0.5-0.4-1-1-1c-0.5,0-1,0.4-1,1v0.1c0,0.1,0,0.2-0.1,0.2
			c-1.4,0.4-2.2,1.5-2.2,3.2c0,2,1.7,2.7,2.9,3.3c1.2,0.5,1.7,0.8,1.7,1.4c0,1.2-0.6,1.3-1.3,1.3c-1.2,0-1.3-0.6-1.3-1.3
			c0-0.5-0.4-1-1-1c-0.4,0-0.7,0.2-0.9,0.5c1.5,1.3,2.8,3,3.6,4.9c0.4-0.2,0.6-0.5,0.6-0.9v-0.2c0-0.1,0-0.2,0.1-0.2
			c1.4-0.4,2.2-1.5,2.2-3.2C55.1,31.2,53.5,30.4,52.2,29.9z"/>
	</g>
	<g>
		<path d="M27.8,18.2c0.5,0,1,0.4,1,1v0.1c0,0.1,0,0.2,0.1,0.2c1.4,0.4,2.2,1.5,2.2,3.2c0,0.5-0.4,1-1,1c-0.5,0-1-0.4-1-1
			c0,0,0-0.1,0-0.1c0-0.7-0.2-1.3-1.3-1.3s-1.3,0.6-1.3,1.3c0,0.6,0.5,0.9,1.7,1.4c1.2,0.5,2.9,1.3,2.9,3.2c0,1.6-0.8,2.8-2.2,3.2
			c-0.1,0-0.1,0.1-0.1,0.2v0.2c0,0.5-0.4,1-1,1c-0.5,0-1-0.4-1-1c0,0,0-0.1,0-0.1v-0.2c0-0.1,0-0.2-0.1-0.2
			c-1.4-0.4-2.2-1.5-2.2-3.2c0-0.5,0.5-1,1-1c0.5,0,0.9,0.4,1,1c0,0.7,0.2,1.3,1.3,1.3c0.7,0,1.3-0.2,1.3-1.3c0-0.6-0.5-0.9-1.7-1.4
			c-1.2-0.5-2.9-1.3-2.9-3.3c0-1.6,0.8-2.8,2.2-3.2c0.1,0,0.1-0.1,0.1-0.2v-0.1C26.8,18.7,27.2,18.2,27.8,18.2"/>
		<path d="M11.5,24.1c0.5,0,1,0.4,1,1c0,0.5-0.4,1-1,1c-0.5,0-1-0.4-1-1c0,0,0,0,0,0C10.5,24.5,10.9,24.1,11.5,24.1"/>
		<path d="M54.6,8.9c0.5,0,1,0.4,1,1v6.7c-0.7-0.2-1.3-0.3-2-0.4v-5.1c0-0.1-0.1-0.2-0.2-0.2H2.2C2.1,10.9,2,11,2,11.1v28
			c0,0.1,0.1,0.2,0.2,0.2h22.4c-0.1,0.7-0.2,1.3-0.3,2H1c-0.5,0-1-0.4-1-1V9.9c0-0.5,0.4-1,1-1H54.6"/>
		<path d="M46.4,13.6c0.5,0,1,0.4,1,1c0,0.7,0.2,1.3,0.5,1.9c-0.7,0.2-1.3,0.4-1.9,0.6c-0.2-0.4-0.4-0.9-0.5-1.3
			c0-0.1-0.1-0.1-0.2-0.1H34.8c-0.1,0-0.1,0-0.2,0.1c0,0.1,0,0.1,0.1,0.2c2.2,1.7,3.8,4.1,4.3,6.8c-0.8,1.2-1.4,2.5-1.9,3.9
			c0.8-5.2-2.7-10-7.9-10.9c-5.2-0.8-10,2.7-10.9,7.9s2.7,10,7.9,10.9c0.1,0,0.2,0,0.2,0c-0.1,0.1-0.2,0.2-0.2,0.4l0,0.1l0,0
			c-0.1,0.2-0.2,0.3-0.2,0.4l-0.1,0.1l0,0.1c-0.1,0.1-0.1,0.2-0.2,0.4l-0.1,0.2l0,0l0,0c0,0.1-0.1,0.2-0.1,0.3H9.2c-0.5,0-1-0.4-1-1
			c0-2-1.6-3.7-3.7-3.7c-0.5,0-1-0.4-1-1V19.2c0-0.5,0.4-1,1-1c2,0,3.7-1.6,3.7-3.7c0-0.5,0.4-1,1-1H46.4 M10.2,34.6h10.6
			c0.1,0,0.1,0,0.2-0.1c0-0.1,0-0.1-0.1-0.2c-1.4-1.1-2.5-2.4-3.4-4c-1.7-3.3-1.7-7.2,0-10.4c0.8-1.6,1.9-2.9,3.3-4
			c0.1-0.1,0.1-0.2,0-0.2c0,0-0.1-0.1-0.1-0.1H10.2c-0.1,0-0.2,0.1-0.2,0.1c-0.4,2.2-2.2,4-4.4,4.4c-0.1,0-0.1,0.1-0.1,0.2v9.6
			c0,0.1,0.1,0.2,0.1,0.2c2.2,0.4,4,2.2,4.4,4.4C10,34.5,10.1,34.6,10.2,34.6"/>
	</g>
</g>
</svg>
