<?xml version="1.0" encoding="utf-8"?>
<!-- Generator: Adobe Illustrator 24.1.0, SVG Export Plug-In . SVG Version: 6.00 Build 0)  -->
<svg version="1.1" id="a281b06f-4db2-461e-9dfb-bd5a0b8c6b13"
	 xmlns="http://www.w3.org/2000/svg" xmlns:xlink="http://www.w3.org/1999/xlink" x="0px" y="0px" viewBox="0 0 64 64"
	 style="enable-background:new 0 0 64 64;" xml:space="preserve">
<g>
	<path d="M15.8,0c-0.6,0-1,0.5-1,1.1c0,0.5,0.4,0.9,1,1h5.7v9.8c0,4.7,1.3,8.8,4,12.1l0.1,0.1V30l-12.1,4.6c-1.1,0.5-2,1.5-2.2,2.7
		L6.8,59.4c-0.3,1.1,0,2.3,0.7,3.2c0.7,0.9,1.8,1.4,2.9,1.4h43.1c2.1,0,3.7-1.7,3.7-3.7c0-0.3,0-0.5-0.1-0.8l0,0l-4.5-22.3
		c-0.3-1.2-1.1-2.2-2.3-2.6l-12.1-4.6V24l0.1-0.1c2.6-3.3,4-7.4,4-12.1V2h4.7v9.8c0,0.6,0.4,1,1,1.1c0.6,0,1-0.4,1.1-1
		c0,0,0-0.1,0-0.1V1c0-0.6-0.4-1-1-1L15.8,0z M53.5,62H33V36.5l4.6-4.6l12.1,4.6c0.5,0.2,0.9,0.6,1,1.2l4.5,22.3
		c0.1,0.5,0,1.1-0.3,1.5l0,0C54.6,61.8,54.1,62,53.5,62z M31,62H10.5c-0.5,0-1-0.2-1.3-0.6c-0.3-0.4-0.5-1-0.3-1.5l4.4-22.2
		c0.1-0.5,0.5-1,1-1.2l12.1-4.6l4.6,4.6L31,62z M32,34.6l-4.4-4.4v-4.1l0.6,0.5c1,0.9,2.2,1.6,3.4,2.2c0.3,0.1,0.5,0.1,0.8,0
		c1.2-0.6,2.4-1.3,3.4-2.2l0.6-0.5v4.1L32,34.6z M32,26.8l-0.2-0.1c-1.9-1.1-8.3-5.4-8.3-15v-1.6h16.9v1.7c0,9.7-6.3,13.9-8.3,15
		L32,26.8z M40.4,8.1H23.6V2h16.9L40.4,8.1z"/>
	<circle cx="26.6" cy="45.5" r="1.3"/>
	<circle cx="26.6" cy="50.9" r="1.3"/>
	<circle cx="26.6" cy="40.1" r="1.3"/>
	<circle cx="26.6" cy="56.3" r="1.3"/>
</g>
</svg>
