<svg data-name="Layer 1" xmlns="http://www.w3.org/2000/svg" viewBox="0 0 450 450"><path d="M285.19 344.71H143a12.33 12.33 0 01-12.37-12.25V163.32a7.92 7.92 0 012.34-5.58l19.61-19.35a7.89 7.89 0 015.58-2.28h127a12.31 12.31 0 0112.36 12.24V189a3.48 3.48 0 11-6.95 0v-40.6a5.36 5.36 0 00-5.41-5.29h-127a1 1 0 00-.69.28l-19.62 19.35a.88.88 0 00-.26.63v169.09a5.35 5.35 0 005.41 5.29h142.19a5.36 5.36 0 005.41-5.29v-46.65a3.48 3.48 0 116.95 0v46.65a12.32 12.32 0 01-12.36 12.25z"/><path d="M168.92 177.83h-20.86a3.48 3.48 0 110-7h17.38v-17.34a3.48 3.48 0 116.95 0v20.86a3.47 3.47 0 01-3.47 3.48zM203.68 327.32a3.44 3.44 0 01-2.45-1 3.47 3.47 0 01-.82-3.62l10.64-29.81a3.73 3.73 0 01.82-1.29l91-91c6.93-6.93 18-7.17 24.61-.53a16.56 16.56 0 014.82 12.28 18 18 0 01-5.3 12.3l-91 91a3.43 3.43 0 01-1.29.82l-29.8 10.64a3.35 3.35 0 01-1.23.21zM217.34 296l-7.91 22.15 22.15-7.91 90.42-90.5a11.17 11.17 0 003.32-7.6 9.63 9.63 0 00-2.79-7.18c-3.93-3.93-10.56-3.68-14.78.53zm16.15 17.25z"/><path d="M321.12 229a3.47 3.47 0 01-2.46-1l-19.15-19.16a3.47 3.47 0 014.91-4.91l19.16 19.16a3.48 3.48 0 01-2.46 5.93zM314.38 235.78a3.43 3.43 0 01-2.45-1l-19.17-19.15a3.48 3.48 0 014.92-4.92l19.16 19.16a3.48 3.48 0 01-2.46 5.93zM236.86 313.31a3.47 3.47 0 01-2.46-1l-19.16-19.16a3.48 3.48 0 114.92-4.92l19.16 19.16a3.48 3.48 0 01-2.46 5.94zM252.36 216.07H162a3.48 3.48 0 010-6.95h90.4a3.48 3.48 0 010 6.95zM224.54 250.84H162a3.48 3.48 0 010-7h62.58a3.48 3.48 0 110 7z"/><path d="M220.84 403.77c-90.08 0-163.36-73.28-163.36-163.36a162 162 0 0132.37-97.65 5.5 5.5 0 018.82 6.58 151.13 151.13 0 00-30.19 91.07c0 84 68.35 152.36 152.36 152.36a151.48 151.48 0 00102-39.14L103.61 134.41a5.51 5.51 0 01-.06-7.72A162.06 162.06 0 01220.84 77c90.09 0 163.37 73.29 163.37 163.37a161.76 161.76 0 01-34.79 100.8 5.5 5.5 0 01-8.65-6.8 150.84 150.84 0 0032.44-94c0-84-68.35-152.37-152.37-152.37a151 151 0 00-105.55 42.48L333.69 349l.56.45a5.51 5.51 0 01.38 8.23 162.5 162.5 0 01-113.79 46.09z"/></svg>