<?xml version="1.0" encoding="utf-8"?>
<!-- Generator: Adobe Illustrator 24.1.0, SVG Export Plug-In . SVG Version: 6.00 Build 0)  -->
<svg version="1.1" id="eb14692f-c96b-4d2e-93a2-b6d90ce1367a"
	 xmlns="http://www.w3.org/2000/svg" xmlns:xlink="http://www.w3.org/1999/xlink" x="0px" y="0px" viewBox="0 0 64 64"
	 style="enable-background:new 0 0 64 64;" xml:space="preserve">
<g>
	<path d="M42.5,52.4H14.7c-1.3,0-2.4-1.1-2.4-2.4V16.9c0-0.4,0.2-0.8,0.5-1.1l3.8-3.8c0.3-0.3,0.7-0.4,1.1-0.4h24.9
		c1.3,0,2.4,1.1,2.4,2.4v8c0,0.4-0.3,0.7-0.6,0.7c-0.4,0-0.7-0.3-0.7-0.6c0,0,0,0,0-0.1v-8c0-0.6-0.5-1-1.1-1H17.6
		c-0.1,0-0.1,0-0.1,0.1l-3.8,3.8c0,0-0.1,0.1-0.1,0.1V50c0,0.6,0.5,1,1.1,1c0,0,0,0,0,0h27.8c0.6,0,1.1-0.5,1.1-1v-9.1
		c0-0.4,0.3-0.7,0.6-0.7s0.7,0.3,0.7,0.6c0,0,0,0,0,0.1V50C44.9,51.4,43.9,52.4,42.5,52.4z"/>
	<path d="M19.7,19.7h-4.1c-0.4,0-0.7-0.3-0.7-0.7c0-0.4,0.3-0.7,0.7-0.7h3.4V15c0-0.4,0.3-0.7,0.6-0.7c0.4,0,0.7,0.3,0.7,0.6
		c0,0,0,0,0,0.1v4.1C20.4,19.4,20.1,19.7,19.7,19.7C19.8,19.7,19.7,19.7,19.7,19.7z"/>
	<path d="M26.6,49c-0.2,0-0.4-0.1-0.5-0.2c-0.2-0.2-0.2-0.5-0.2-0.7l2.1-5.8c0-0.1,0.1-0.2,0.2-0.3L46,24.2c1.4-1.4,3.5-1.4,4.8-0.1
		c0.6,0.6,1,1.5,0.9,2.4c0,0.9-0.4,1.8-1,2.4L32.9,46.7c-0.1,0.1-0.2,0.1-0.3,0.2L26.8,49C26.7,49,26.6,49,26.6,49z M29.2,42.9
		l-1.5,4.3l4.3-1.5L49.7,28c0.4-0.4,0.6-0.9,0.7-1.5c0-0.5-0.2-1-0.5-1.4c-0.8-0.8-2.1-0.7-2.9,0.1L29.2,42.9z M32.4,46.3L32.4,46.3
		z"/>
	<path d="M49.6,29.8c-0.2,0-0.4-0.1-0.5-0.2l-3.8-3.8c-0.3-0.3-0.3-0.7,0-1c0.3-0.3,0.7-0.3,1,0l3.8,3.8c0.3,0.3,0.3,0.7,0,1
		C49.9,29.7,49.7,29.8,49.6,29.8L49.6,29.8z"/>
	<path d="M48.2,31.1c-0.2,0-0.4-0.1-0.5-0.2L44,27.1c-0.3-0.3-0.2-0.7,0-1c0.3-0.3,0.7-0.3,0.9,0l3.8,3.8c0.3,0.3,0.3,0.7,0,1
		C48.6,31,48.4,31.1,48.2,31.1L48.2,31.1z"/>
	<path d="M33.1,46.3c-0.2,0-0.4-0.1-0.5-0.2l-3.8-3.8c-0.3-0.3-0.3-0.7,0-1c0.3-0.3,0.7-0.3,1,0c0,0,0,0,0,0l3.8,3.8
		c0.3,0.3,0.3,0.7,0,1C33.4,46.2,33.2,46.3,33.1,46.3L33.1,46.3z"/>
	<path d="M36.1,27.2H18.4c-0.4,0-0.7-0.3-0.6-0.7c0-0.3,0.3-0.6,0.6-0.6h17.7c0.4,0,0.7,0.3,0.6,0.7C36.7,26.9,36.4,27.2,36.1,27.2
		L36.1,27.2z"/>
	<path d="M30.6,34H18.4c-0.4,0-0.7-0.3-0.7-0.7c0-0.4,0.3-0.7,0.7-0.7h12.3c0.4,0,0.7,0.3,0.7,0.7C31.3,33.7,31,34,30.6,34L30.6,34z
		"/>
</g>
<path d="M32,64C14.4,64,0,49.6,0,32c0-6.9,2.2-13.6,6.3-19.1c0.4-0.5,1-0.6,1.5-0.2c0.5,0.4,0.6,1,0.2,1.5C4.2,19.3,2.1,25.6,2.2,32
	c0,16.5,13.4,29.8,29.8,29.8c7.4,0,14.5-2.7,20-7.7L9,11.2c-0.4-0.4-0.4-1.1,0-1.5C15,3.5,23.3,0,32,0c17.6,0,32,14.4,32,32
	c0,7.2-2.4,14.1-6.8,19.7c-0.4,0.5-1,0.5-1.5,0.2c-0.5-0.4-0.5-1-0.2-1.5c4.1-5.2,6.4-11.7,6.4-18.4C61.8,15.5,48.5,2.2,32,2.2
	c-7.7,0-15.1,3-20.7,8.3l42.8,42.8l0.1,0.1c0.5,0.4,0.5,1.1,0.2,1.5c0,0-0.1,0.1-0.1,0.1C48.3,60.8,40.3,64,32,64z"/>
</svg>
