<?xml version="1.0" encoding="utf-8"?>
<!-- Generator: Adobe Illustrator 24.1.0, SVG Export Plug-In . SVG Version: 6.00 Build 0)  -->
<svg version="1.1" id="a9ea847d-416c-41ac-9e73-3e067fbb7c61"
	 xmlns="http://www.w3.org/2000/svg" xmlns:xlink="http://www.w3.org/1999/xlink" x="0px" y="0px" viewBox="0 0 64 64"
	 style="enable-background:new 0 0 64 64;" xml:space="preserve">
<g>
	<g>
		<path d="M60.3,0H40.6c-0.6,0-1,0.5-1,1.1c0,0.3,0.1,0.5,0.3,0.7l5.8,5.8c0.2,0.2,0.2,0.5,0,0.7c0,0,0,0,0,0L35.3,18.5
			c-0.4,0.4-0.4,1,0,1.4c0.4,0.4,1,0.4,1.4,0c0,0,0,0,0,0L48.2,8.6c0.4-0.4,0.4-1,0-1.4l-4.2-4.2c-0.2-0.2-0.2-0.5,0-0.7
			C44,2.1,44.1,2,44.3,2h14.5c0.3,0,0.5,0.2,0.5,0.5v14.5c0,0.2-0.1,0.4-0.3,0.5c-0.1,0-0.1,0-0.2,0c-0.1,0-0.3-0.1-0.4-0.1
			l-4.2-4.2c-0.4-0.4-1-0.4-1.4,0L41.4,24.6c-0.4,0.4-0.4,1,0,1.4c0.4,0.4,1,0.4,1.4,0c0,0,0,0,0,0l10.3-10.3
			c0.1-0.1,0.2-0.1,0.4-0.1c0.1,0,0.3,0.1,0.4,0.1l5.8,5.8c0.2,0.2,0.4,0.3,0.7,0.3c0.1,0,0.3,0,0.4-0.1c0.4-0.2,0.6-0.5,0.6-0.9V1
			C61.3,0.5,60.9,0,60.3,0z"/>
		<path d="M61.3,29v16.7c0,0.6-0.5,1-1.1,1c-0.3,0-0.5-0.1-0.7-0.3l-5-5c-0.2-0.2-0.5-0.2-0.7,0l-9.5,9.5c-0.4,0.4-1,0.4-1.4,0
			c-0.4-0.4-0.4-1,0-1.4l10.6-10.6c0.4-0.4,1-0.4,1.4,0l3.5,3.5c0.2,0.2,0.5,0.2,0.7,0c0.1-0.1,0.1-0.2,0.1-0.4V30.5
			c0-0.3-0.2-0.5-0.5-0.5c0,0,0,0,0,0H47.3c-0.2,0-0.4,0.1-0.5,0.3c0,0.1,0,0.1,0,0.2c0,0.1,0.1,0.3,0.1,0.4l3.5,3.5
			c0.4,0.4,0.4,1,0,1.4l-6.1,6.1c-0.4,0.4-1,0.4-1.4,0c-0.2-0.2-0.3-0.4-0.3-0.7c0-0.3,0.1-0.5,0.3-0.7l5-5c0.2-0.2,0.2-0.5,0-0.7
			l-5-5c-0.4-0.4-0.4-1,0-1.4c0.2-0.2,0.5-0.3,0.7-0.3h16.7C60.9,28,61.3,28.4,61.3,29z"/>
		<path d="M18.7,2.3c0,0.1,0,0.1,0,0.2c0,0.1,0.1,0.3,0.1,0.4l3.5,3.5c0.4,0.4,0.4,1,0,1.4c0,0,0,0,0,0L11.7,18.4
			c-0.4,0.4-1,0.4-1.4,0c-0.4-0.4-0.4-1,0-1.4c0,0,0,0,0,0l9.5-9.5c0.2-0.2,0.2-0.5,0-0.7c0,0,0,0,0,0l-5-5c-0.4-0.4-0.4-1,0-1.4
			C15,0.1,15.2,0,15.5,0h16.7c0.6,0,1,0.5,1,1v16.7c0,0.6-0.5,1-1.1,1c-0.3,0-0.5-0.1-0.7-0.3l-5-5c-0.2-0.2-0.5-0.2-0.7,0
			c0,0,0,0,0,0l-5,5c-0.4,0.4-1,0.4-1.4,0c-0.4-0.4-0.4-1,0-1.4c0,0,0,0,0,0l6.1-6.1c0.4-0.4,1-0.4,1.4,0l3.5,3.5
			c0.2,0.2,0.5,0.2,0.7,0c0.1-0.1,0.1-0.2,0.1-0.4V2.5C31.2,2.3,31,2,30.7,2c0,0,0,0,0,0H19.2C19,2,18.8,2.2,18.7,2.3z"/>
	</g>
	<g>
		<path d="M27.3,58.6H5.7c-1.7,0-3-1.3-3-3V29.2c0-0.3,0.1-0.5,0.3-0.7l5.4-5.4c0.2-0.2,0.4-0.3,0.7-0.3h18.3c1.7,0,3,1.3,3,3v29.7
			C30.3,57.2,29,58.6,27.3,58.6z M4.6,29.6v26c0,0.6,0.5,1,1.1,1h21.6c0.6,0,1-0.5,1-1V25.8c0-0.6-0.5-1-1-1.1H9.5L4.6,29.6z"/>
		<path d="M10.4,31.6H6.3c-0.5,0-1-0.4-1-0.9c0-0.5,0.4-1,0.9-1c0,0,0.1,0,0.1,0h3.1v-3.1c0-0.5,0.5-1,1-0.9c0.5,0,0.9,0.4,0.9,0.9
			v4.1C11.4,31.1,10.9,31.6,10.4,31.6L10.4,31.6z"/>
		<path d="M34.1,64H12.4c-1.7,0-3-1.3-3-3c0-0.5,0.5-1,1-0.9c0.5,0,0.9,0.4,0.9,0.9c0,0.6,0.5,1,1.1,1.1h21.6c0.6,0,1-0.5,1.1-1.1
			V31.2c0-0.6-0.5-1-1.1-1h-1.4c-0.5,0-1-0.5-0.9-1c0-0.5,0.4-0.9,0.9-0.9h1.4c1.7,0,3,1.3,3,3V61C37.1,62.7,35.7,64,34.1,64z"/>
		<path d="M23.2,49.8H9.7c-0.5,0-1-0.5-0.9-1c0-0.5,0.4-0.9,0.9-0.9h13.5c0.5,0,1,0.5,0.9,1C24.2,49.4,23.8,49.8,23.2,49.8z"/>
		<path d="M23.2,43H9.7c-0.5,0-1-0.5-0.9-1c0-0.5,0.4-0.9,0.9-0.9h13.5c0.5,0,1,0.5,0.9,1C24.2,42.6,23.8,43,23.2,43z"/>
		<path d="M23.2,36.3h-6.8c-0.5,0-1-0.4-1-0.9c0-0.5,0.4-1,0.9-1c0,0,0.1,0,0.1,0h6.8c0.5,0,1,0.5,0.9,1
			C24.2,35.9,23.8,36.3,23.2,36.3z"/>
	</g>
</g>
</svg>
