<svg data-name="Layer 1" xmlns="http://www.w3.org/2000/svg" viewBox="0 0 450 450"><path d="M303.69 272.47a4.42 4.42 0 00-1.22-6.13 53 53 0 1014.72 14.76 4.42 4.42 0 00-7.36 4.9 44.16 44.16 0 11-12.27-12.31 4.43 4.43 0 006.13-1.22z"/><path d="M273 239.74a70.77 70.77 0 00-70.69 70.69 70.05 70.05 0 0014.6 43 4.42 4.42 0 007-5.38 61.27 61.27 0 01-12.78-37.65 61.85 61.85 0 1124.21 49.09 4.41 4.41 0 00-5.38 7 70 70 0 0043 14.61 70.7 70.7 0 000-141.39zM343.71 186.72a53 53 0 00-52.14 43.39 4.42 4.42 0 003.54 5.14 4.51 4.51 0 00.81.07 4.42 4.42 0 004.34-3.62 44.2 44.2 0 0168-28.71 4.42 4.42 0 004.92-7.34 52.81 52.81 0 00-29.47-8.93zM351.75 283.2a4.42 4.42 0 00.79 8.76 4.33 4.33 0 00.8-.07 53 53 0 0034.54-81.48 4.42 4.42 0 00-7.36 4.89 44.2 44.2 0 01-28.77 67.9z"/><path d="M343.71 169.05a70.9 70.9 0 00-69.28 56.56c-.31 1.56-.58 3.13-.79 4.71a4.42 4.42 0 108.76 1.17c.18-1.39.42-2.77.69-4.12a61.86 61.86 0 1173 73c-1.36.28-2.74.51-4.13.69a4.42 4.42 0 00.58 8.8 3.9 3.9 0 00.59 0c1.59-.21 3.16-.48 4.71-.79a70.7 70.7 0 00-14.13-140zM273 270.78a5.78 5.78 0 015.77 5.78v.87a1 1 0 00.74 1c8.14 2.26 12.82 9 12.82 18.48a5.78 5.78 0 01-11.56 0c0-4-.94-7.77-7.77-7.77s-7.78 3.73-7.78 7.77c0 3.5 3.09 5.23 10.14 8.32s17 7.45 17 18.79c0 9.49-4.68 16.22-12.82 18.48a1 1 0 00-.74 1v.88a5.78 5.78 0 11-11.55 0v-.88a1 1 0 00-.73-1c-8.15-2.26-12.82-9-12.82-18.48a5.78 5.78 0 1111.55 0c0 4 .95 7.77 7.78 7.77 4 0 7.77-.94 7.77-7.77 0-3.43-3.06-5.14-10.07-8.21-7.18-3.16-17-7.49-17-18.9 0-9.49 4.67-16.22 12.82-18.48a1 1 0 00.73-1v-.87a5.78 5.78 0 015.78-5.78"/><path d="M346.07 234.62c-7.05-3.09-10.14-4.82-10.14-8.32 0-4 .95-7.77 7.78-7.77s7.78 3.73 7.78 7.77a5.78 5.78 0 1011.55 0c0-9.49-4.68-16.23-12.82-18.48a1 1 0 01-.73-1V206a5.78 5.78 0 00-11.56 0v.87a1 1 0 01-.73 1c-8.14 2.25-12.82 9-12.82 18.48 0 11.41 9.85 15.74 17 18.9 7 3.07 10.07 4.78 10.07 8.2 0 6.84-3.74 7.78-7.78 7.78-6.83 0-7.78-3.74-7.78-7.78a5.76 5.76 0 00-10.75-2.9A79.63 79.63 0 01346 279a5.8 5.8 0 003.46-5.29v-.88a1 1 0 01.73-1c8.14-2.26 12.82-9 12.82-18.49-.01-11.27-9.78-15.57-16.94-18.72z"/><g><path d="M204 166.89a5.78 5.78 0 015.77 5.78v.87a1 1 0 00.73 1c8.15 2.25 12.82 9 12.82 18.48a5.78 5.78 0 11-11.55 0c0-4-.94-7.77-7.77-7.77s-7.78 3.73-7.78 7.77c0 3.5 3.09 5.23 10.13 8.32s17 7.45 17 18.78c0 9.49-4.67 16.23-12.82 18.49a1 1 0 00-.73 1v.88a5.78 5.78 0 11-11.55 0v-.88a1 1 0 00-.73-1c-8.15-2.26-12.82-9-12.82-18.49a5.78 5.78 0 0111.55 0c0 4 .94 7.78 7.78 7.78 4 0 7.77-.94 7.77-7.78 0-3.42-3.07-5.13-10.07-8.2-7.19-3.16-17-7.49-17-18.9 0-9.49 4.67-16.23 12.82-18.48a1 1 0 00.73-1v-.87a5.78 5.78 0 015.78-5.78M109.18 200.77a5.78 5.78 0 11-5.78 5.77 5.78 5.78 0 015.78-5.77"/><path d="M359.87 112.69a5.78 5.78 0 015.78 5.77v39a86.76 86.76 0 00-11.55-2.52v-29.7a1 1 0 00-1-1H55a1 1 0 00-1 1v162.61a1 1 0 001 1h130.08a85.74 85.74 0 00-1.76 11.55H48.2a5.78 5.78 0 01-5.78-5.78V118.46a5.78 5.78 0 015.78-5.77h311.67"/><path d="M312.44 139.79a5.78 5.78 0 015.78 5.77 21.26 21.26 0 002.92 10.77 85.69 85.69 0 00-11.14 3.51 32.88 32.88 0 01-2.62-7.7 1 1 0 00-1-.8h-61.75a1 1 0 00-.94.68 1 1 0 00.34 1.12 66.81 66.81 0 0125.28 39.4 85.66 85.66 0 00-10.78 22.83 55.17 55.17 0 10-61.93 45.87c-.44.69-.88 1.4-1.32 2.12l-.24.42-.16.28c-.56 1-1 1.77-1.44 2.53l-.42.8-.19.38c-.35.67-.73 1.4-1.1 2.14l-.53 1.09-.13.29-.07.15c-.28.59-.56 1.2-.84 1.82H95.63a5.78 5.78 0 01-5.78-5.78 21.34 21.34 0 00-21.32-21.28 5.78 5.78 0 01-5.78-5.78v-67.75a5.78 5.78 0 015.78-5.78 21.35 21.35 0 0021.32-21.33 5.78 5.78 0 015.78-5.77h216.81m-210.72 122h61.75a1 1 0 00.95-.69 1 1 0 00-.35-1.11 67.61 67.61 0 01-19.49-23.09 66.64 66.64 0 010-60.63A67.52 67.52 0 01164 153.14a1 1 0 00-.6-1.8h-61.68a1 1 0 00-1 .8 32.81 32.81 0 01-25.62 25.64 1 1 0 00-.8 1v55.57a1 1 0 00.8 1A32.79 32.79 0 01100.74 261a1 1 0 001 .8"/></g></svg>