<?xml version="1.0" encoding="utf-8"?>
<!-- Generator: Adobe Illustrator 24.1.0, SVG Export Plug-In . SVG Version: 6.00 Build 0)  -->
<svg version="1.1" id="f5527c78-bddc-4b81-96e5-5757f28cd2c4"
	 xmlns="http://www.w3.org/2000/svg" xmlns:xlink="http://www.w3.org/1999/xlink" x="0px" y="0px" viewBox="0 0 64 64"
	 style="enable-background:new 0 0 64 64;" xml:space="preserve">
<g>
	<path d="M32,53.4c-3,0-5.3-2.8-5.3-6.4c0-2.9,2.4-5.3,5.3-5.3s5.3,2.4,5.3,5.3C37.3,50.7,35,53.4,32,53.4z M32,43.4
		c-2,0-3.6,1.6-3.6,3.6l0,0c0,2.7,1.5,4.7,3.6,4.7s3.6-2,3.6-4.7C35.6,45,34,43.4,32,43.4L32,43.4z"/>
	<path d="M54.2,53.4c-3,0-5.3-2.8-5.3-6.4c0-2.9,2.4-5.3,5.3-5.3s5.3,2.4,5.3,5.3C59.5,50.7,57.3,53.4,54.2,53.4z M54.2,43.4
		c-2,0-3.6,1.6-3.6,3.6l0,0c0,2.7,1.5,4.7,3.6,4.7s3.6-2,3.6-4.7C57.8,45,56.2,43.4,54.2,43.4L54.2,43.4z"/>
	<path d="M9.8,53.4c-3,0-5.3-2.8-5.3-6.4c0-2.9,2.4-5.3,5.3-5.3c2.9,0,5.3,2.4,5.3,5.3c0,0,0,0,0,0C15.1,50.7,12.8,53.4,9.8,53.4z
		 M9.8,43.4c-2,0-3.6,1.6-3.6,3.6l0,0c0,2.7,1.5,4.7,3.6,4.7s3.6-2,3.6-4.7C13.4,45,11.7,43.4,9.8,43.4L9.8,43.4z"/>
	<path d="M18.7,60.1c-0.5,0-0.9-0.4-0.9-0.9v-0.9c0-0.5-0.3-1-0.8-1.2c-2.3-1-4.7-1.5-7.2-1.5c-2.5,0-5,0.5-7.3,1.5
		c-0.5,0.2-0.8,0.7-0.8,1.3v0.9c0,0.5-0.4,0.9-0.9,0.9S0,59.7,0,59.2v-0.9c0-1.2,0.7-2.3,1.8-2.8c2.5-1.1,5.2-1.6,8-1.6
		c2.7,0,5.4,0.5,7.9,1.6c1.1,0.5,1.8,1.6,1.8,2.8v0.9C19.5,59.7,19.1,60.1,18.7,60.1C18.7,60.1,18.7,60.1,18.7,60.1z"/>
	<path d="M40.9,60.1c-0.5,0-0.9-0.4-0.9-0.9v-0.9c0-0.5-0.3-1-0.8-1.2c-2.3-1-4.7-1.5-7.2-1.5c-2.5,0-5,0.5-7.3,1.5
		c-0.5,0.2-0.8,0.7-0.8,1.3v0.9c0,0.5-0.4,0.9-0.9,0.9s-0.9-0.4-0.9-0.9v-0.9c0-1.2,0.7-2.3,1.8-2.8c2.5-1.1,5.2-1.6,8-1.6
		c2.7,0,5.4,0.5,7.9,1.6c1.1,0.5,1.8,1.6,1.8,2.8v0.9C41.8,59.7,41.4,60.1,40.9,60.1C40.9,60.1,40.9,60.1,40.9,60.1z"/>
	<path d="M63.1,60.1c-0.5,0-0.9-0.4-0.9-0.8c0,0,0,0,0,0v-0.9c0-0.5-0.3-1-0.8-1.2c-2.3-1-4.7-1.5-7.2-1.5c-2.5,0-5,0.5-7.3,1.5
		c-0.5,0.2-0.8,0.7-0.8,1.3v0.9c0,0.5-0.4,0.9-0.9,0.9s-0.9-0.4-0.9-0.9v-0.9c0-1.2,0.7-2.3,1.8-2.8c2.5-1.1,5.2-1.6,8-1.6
		c2.7,0,5.4,0.5,7.9,1.6c1.1,0.5,1.8,1.6,1.8,2.8v0.9C64,59.7,63.6,60.1,63.1,60.1C63.1,60.1,63.1,60.1,63.1,60.1z"/>
	<path d="M58.7,40.1H5.3c-0.5,0-0.9-0.4-0.9-0.8c0,0,0,0,0,0V4.7c0-0.5,0.4-0.8,0.9-0.8h53.4c0.5,0,0.9,0.4,0.9,0.8c0,0,0,0,0,0
		v34.5C59.5,39.7,59.2,40.1,58.7,40.1z M6.2,38.4h51.7V5.6H6.2V38.4z"/>
	<path d="M46.5,9.9H5.3c-0.4,0-0.7-0.3-0.7-0.7s0.3-0.7,0.7-0.7h41.2c0.4,0,0.7,0.3,0.7,0.7S46.8,9.9,46.5,9.9z"/>
	<path d="M55.4,9.9h-2.2c-0.4,0-0.7-0.3-0.7-0.7s0.3-0.7,0.7-0.7h2.2c0.4,0,0.7,0.3,0.7,0.7S55.7,9.9,55.4,9.9z"/>
	<path d="M50.9,9.9h-2.2c-0.4,0-0.7-0.3-0.7-0.7s0.3-0.7,0.7-0.7h2.2c0.4,0,0.7,0.3,0.7,0.7S51.3,9.9,50.9,9.9z"/>
	<path d="M27.6,36.6c-0.4,0-0.7-0.3-0.7-0.7v-4.4c0-1,0.8-1.8,1.8-1.8h12.2c0.9,0,1.6-0.7,1.6-1.6c0-0.9-0.7-1.6-1.6-1.6H15.3
		c-1.5,0-2.7,1.2-2.7,2.7v6.7c0,0.4-0.3,0.7-0.7,0.7s-0.7-0.3-0.7-0.7v-6.7c0-2.2,1.8-4,4-4h25.6c1.6,0,2.9,1.3,2.9,2.9
		c0,1.6-1.3,2.9-2.9,2.9H28.7c-0.2,0-0.4,0.2-0.5,0.4v4.4C28.2,36.3,27.9,36.6,27.6,36.6L27.6,36.6z"/>
	<path d="M20.9,24.3c-2.9,0-5.1-2.7-5.1-6.2c0-2.8,2.3-5.1,5.1-5.1s5.1,2.3,5.1,5.1C26,21.6,23.8,24.3,20.9,24.3z M20.9,14.3
		c-2.1,0-3.8,1.7-3.8,3.8c0,2.8,1.6,4.9,3.8,4.9s3.8-2.1,3.8-4.9C24.7,16,23,14.3,20.9,14.3z"/>
	<path d="M50.9,17.6H33.1c-0.4,0-0.7-0.3-0.7-0.7c0-0.4,0.3-0.7,0.7-0.7h17.8c0.4,0,0.7,0.3,0.7,0.7C51.6,17.3,51.3,17.6,50.9,17.6z
		"/>
	<path d="M50.9,22.1H33.1c-0.4,0-0.7-0.3-0.7-0.7c0-0.4,0.3-0.7,0.7-0.7h17.8c0.4,0,0.7,0.3,0.7,0.7C51.6,21.8,51.3,22.1,50.9,22.1z
		"/>
</g>
</svg>
