<?xml version="1.0" encoding="utf-8"?>
<!-- Generator: Adobe Illustrator 24.1.0, SVG Export Plug-In . SVG Version: 6.00 Build 0)  -->
<svg version="1.1" id="b6e0d4e7-66bd-409a-9bbd-d322e39cec1b"
	 xmlns="http://www.w3.org/2000/svg" xmlns:xlink="http://www.w3.org/1999/xlink" x="0px" y="0px" viewBox="0 0 64 64"
	 style="enable-background:new 0 0 64 64;" xml:space="preserve">
<g>
	<g>
		<path d="M63.1,5.1h-18c-0.5,0-0.9,0.4-0.9,1c0,0.2,0.1,0.5,0.3,0.6l5.2,5.2c0.2,0.2,0.2,0.5,0,0.6l0,0L40.2,22
			c-0.4,0.4-0.4,0.9,0,1.3s0.9,0.4,1.3,0l0,0l0,0L52,12.9c0.4-0.4,0.4-0.9,0-1.3l-3.9-3.9c-0.2-0.2-0.2-0.5,0-0.6
			C48.2,7,48.3,6.9,48.4,7h13.3c0.2,0,0.4,0.2,0.5,0.5v13.3c0,0.2-0.1,0.3-0.3,0.4c-0.1,0-0.1,0-0.2,0c-0.1,0-0.2-0.1-0.3-0.1
			l-3.9-3.9c-0.4-0.4-0.9-0.4-1.3,0L45.8,27.5c-0.4,0.4-0.4,0.9,0,1.3c0.4,0.4,0.9,0.4,1.3,0l0,0l9.4-9.4c0.1-0.1,0.2-0.1,0.3-0.1
			c0.1,0,0.2,0.1,0.3,0.1l5.2,5.2c0.2,0.2,0.4,0.3,0.7,0.3c0.1,0,0.2,0,0.4-0.1c0.3-0.1,0.6-0.5,0.6-0.9V6C64,5.5,63.6,5.1,63.1,5.1
			C63.1,5.1,63.1,5.1,63.1,5.1z"/>
		<path d="M64,31.6v15.2c0,0.5-0.4,0.9-1,0.9c-0.2,0-0.5-0.1-0.6-0.3l-4.6-4.6c-0.2-0.2-0.5-0.2-0.6,0l-8.7,8.7
			c-0.4,0.3-1,0.3-1.3-0.1c-0.3-0.3-0.3-0.8,0-1.2l9.7-9.7c0.4-0.3,0.9-0.3,1.3,0l3.2,3.2c0.2,0.2,0.5,0.2,0.6,0
			c0.1-0.1,0.1-0.2,0.1-0.3V33c0-0.2-0.2-0.4-0.5-0.5H51.2c-0.2,0-0.3,0.1-0.4,0.3c0,0.1,0,0.1,0,0.2c0,0.1,0.1,0.2,0.1,0.3l3.2,3.2
			c0.4,0.4,0.4,0.9,0,1.3l-5.5,5.5c-0.4,0.4-0.9,0.4-1.3,0c-0.2-0.2-0.3-0.4-0.3-0.7c0-0.2,0.1-0.5,0.3-0.7l4.6-4.6
			c0.2-0.2,0.2-0.5,0-0.6l-4.6-4.6c-0.4-0.4-0.4-0.9,0-1.3c0,0,0,0,0,0c0.2-0.2,0.4-0.3,0.7-0.3h15.3C63.6,30.7,64,31.1,64,31.6z"/>
		<path d="M25.1,7.2c0,0.1,0,0.1,0,0.2c0,0.1,0,0.2,0.1,0.3l3.2,3.2c0.4,0.4,0.4,0.9,0,1.3l0,0l-9.7,9.7c-0.3,0.4-0.9,0.4-1.3,0.1
			C17,21.6,17,21,17.3,20.7c0,0,0,0,0,0l0,0l8.7-8.7c0.2-0.2,0.2-0.5,0-0.6l0,0l-4.6-4.6c-0.4-0.4-0.4-0.9,0-1.3
			c0.2-0.2,0.4-0.3,0.7-0.3h15.2c0.5,0,0.9,0.4,0.9,0.9c0,0,0,0,0,0v15.2c0,0.5-0.4,0.9-1,0.9c-0.2,0-0.5-0.1-0.6-0.3l-4.6-4.6
			c-0.2-0.2-0.5-0.2-0.6,0l0,0l-4.6,4.6c-0.4,0.4-0.9,0.4-1.3,0c-0.4-0.4-0.4-0.9,0-1.3l0,0l0,0l5.5-5.5c0.4-0.4,0.9-0.4,1.3,0
			l3.2,3.2c0.2,0.2,0.5,0.2,0.6,0c0.1-0.1,0.1-0.2,0.1-0.3V7.4C36.4,7.2,36.2,7,36,7H25.5C25.3,7,25.2,7.1,25.1,7.2z"/>
	</g>
	<g>
		<path d="M11.3,27.7c1.7,0,3.3,0.4,4.8,1.1c1.5,0.7,2.7,1.9,3.6,3.5s1.4,3.7,1.4,6.2c0,4.7-1.1,8.5-3.2,11.3s-4.4,4.7-6.8,5.8
			s-4,1.6-4.8,1.6c-0.5,0-0.9-0.2-1.1-0.6c-0.3-0.5-0.6-1-0.7-1.5c-0.1-0.4-0.2-0.9-0.2-1.3c0-0.2,0-0.4,0.1-0.6
			C4.5,53.1,4.7,53,4.8,53c2.1-0.6,4-1.6,5.6-3.1c1.6-1.4,2.8-3.2,3.4-5.2c-1.3,0.7-2.7,1-4.2,1c-1.3,0-2.5-0.3-3.7-0.9
			c-1.3-0.6-2.4-1.6-3.2-2.9c-0.9-1.3-1.3-3-1.3-5.1c0-2.1,0.5-3.9,1.4-5.3c0.9-1.3,2.2-2.4,3.6-3C8,28,9.7,27.7,11.3,27.7
			 M11.5,40.9c1,0,2.1-0.3,3.3-1c0-0.4,0-1.1,0-1.9c0-1.9-0.3-3.3-1-4.2c-0.6-0.8-1.6-1.3-2.6-1.3c-1,0-1.9,0.4-2.5,1.2
			c-0.7,0.8-1,1.8-1,3.1s0.3,2.3,1,3C9.4,40.6,10.3,40.9,11.5,40.9 M11.3,26.2c-1.8,0-3.7,0.4-5.4,1.1c-1.7,0.8-3.2,2-4.2,3.6
			C0.6,32.5,0,34.6,0,37c0,2.4,0.5,4.4,1.6,5.9c0.9,1.4,2.3,2.6,3.8,3.3c1.3,0.7,2.8,1,4.3,1c0.4,0,0.8,0,1.2-0.1
			c-0.4,0.6-0.9,1.1-1.4,1.6c-1.4,1.3-3.1,2.2-5,2.7c-0.5,0.1-1,0.4-1.3,0.9c-0.2,0.4-0.4,0.9-0.3,1.4c0,0.6,0.1,1.2,0.3,1.8
			c0.2,0.7,0.5,1.3,0.9,1.9c0.5,0.8,1.4,1.3,2.3,1.3c0.7,0,2-0.2,5.4-1.8c2.6-1.2,5.1-3.3,7.3-6.3c2.3-3.1,3.5-7.1,3.5-12.2
			c0-2.8-0.5-5.1-1.6-7c-1.1-1.9-2.5-3.3-4.3-4.1C15,26.6,13.2,26.1,11.3,26.2L11.3,26.2z M11.5,39.4c-1,0-1.4-0.3-1.7-0.6
			c-0.4-0.5-0.6-1.1-0.6-2c0-0.9,0.2-1.6,0.7-2.1c0.3-0.4,0.8-0.7,1.4-0.7c0.6,0,1.1,0.2,1.4,0.7c0.2,0.3,0.7,1.2,0.7,3.3v1
			C12.7,39.3,12.1,39.4,11.5,39.4L11.5,39.4z"/>
		<path d="M33.7,27.6c2,0,3.8,0.6,5.3,1.8c1.5,1.2,2.6,2.9,3.4,5.1s1.2,4.9,1.2,8c0,3.1-0.4,5.8-1.2,8s-1.9,3.9-3.4,5.1
			s-3.2,1.8-5.3,1.8c-2,0-3.8-0.6-5.3-1.8c-1.5-1.2-2.6-2.9-3.4-5.1c-0.8-2.2-1.2-4.9-1.2-8s0.4-5.8,1.2-8c0.8-2.2,1.9-3.9,3.4-5.1
			C29.9,28.2,31.6,27.6,33.7,27.6 M33.7,52.5c1.2,0,2.1-0.8,2.7-2.5c0.6-1.7,0.9-4.2,0.9-7.5S37,36.7,36.4,35
			c-0.6-1.7-1.5-2.5-2.7-2.5c-1.2,0-2.1,0.8-2.7,2.5c-0.6,1.7-0.9,4.2-0.9,7.5c0,3.3,0.3,5.8,0.9,7.5C31.6,51.7,32.5,52.5,33.7,52.5
			 M33.7,26.1c-2.4,0-4.5,0.7-6.2,2.1c-1.7,1.4-3,3.3-3.9,5.8c-0.8,2.4-1.3,5.2-1.3,8.5c0,3.3,0.4,6.1,1.3,8.5
			c0.9,2.5,2.2,4.4,3.9,5.8c1.7,1.4,3.8,2.1,6.2,2.1s4.5-0.7,6.2-2.1c1.7-1.4,3-3.3,3.9-5.8c0.8-2.4,1.3-5.2,1.3-8.5
			s-0.4-6.1-1.3-8.5c-0.9-2.5-2.2-4.4-3.9-5.8C38.1,26.8,35.9,26.1,33.7,26.1z M33.7,51c-0.6,0-1-0.8-1.3-1.6
			c-0.6-1.5-0.8-3.9-0.8-7c0-3.1,0.3-5.4,0.8-7c0.3-0.7,0.7-1.6,1.3-1.6c0.6,0,1,0.8,1.3,1.6c0.6,1.5,0.8,3.9,0.8,7
			c0,3.1-0.3,5.4-0.8,7C34.7,50.2,34.2,51,33.7,51z"/>
	</g>
</g>
</svg>
