<?xml version="1.0" encoding="utf-8"?>
<!-- Generator: Adobe Illustrator 24.1.0, SVG Export Plug-In . SVG Version: 6.00 Build 0)  -->
<svg version="1.1" id="bd508932-bfab-478d-ac26-bb61940a6004"
	 xmlns="http://www.w3.org/2000/svg" xmlns:xlink="http://www.w3.org/1999/xlink" x="0px" y="0px" viewBox="0 0 64 64"
	 style="enable-background:new 0 0 64 64;" xml:space="preserve">
<g>
	<path d="M16.3,12.8c-0.3,0-0.5,0.1-0.7,0.3L0.4,27.9c-0.6,0.5-0.6,1.4,0,2c0,0,0,0,0,0l15.2,14.7c0.3,0.3,0.8,0.4,1.1,0.2
		c0.4-0.2,0.6-0.5,0.7-0.9v-7.1h12c0.6,0,1-0.5,1-1c0-0.6-0.5-1-1-1h-12v-5.9c0-0.6-0.5-1.1-1.1-1.1c-0.6,0-1.1,0.5-1.1,1.1v12.6
		L2.8,29.3c-0.2-0.2-0.2-0.6,0-0.8c0,0,0,0,0,0l12.5-12.1V22c0,0.6,0.5,1,1.1,1h17.1c0.6,0,1-0.4,1-1c0,0,0,0,0,0c0-0.6-0.5-1-1-1
		c0,0,0,0,0,0H17.4v-7.1c0-0.4-0.3-0.8-0.7-0.9C16.6,12.9,16.5,12.8,16.3,12.8z"/>
	<path d="M47.7,51.2c0.3,0,0.5-0.1,0.7-0.3l15.2-14.7c0.6-0.5,0.6-1.4,0-2c0,0,0,0,0,0L48.4,19.4c-0.3-0.3-0.8-0.4-1.1-0.2
		c-0.4,0.2-0.6,0.5-0.7,0.9v7.1h-12c-0.6,0-1,0.5-1,1c0,0.6,0.5,1,1,1l0,0h12v5.9c0,0.6,0.5,1.1,1.1,1.1c0.6,0,1.1-0.5,1.1-1.1V22.6
		l12.5,12.1c0.2,0.2,0.2,0.6,0,0.8c0,0,0,0,0,0L48.7,47.7v-5.6c0-0.6-0.5-1-1.1-1H30.5c-0.6,0-1,0.4-1,1c0,0,0,0,0,0
		c0,0.6,0.5,1,1,1c0,0,0,0,0,0h16.1v7.1c0,0.4,0.3,0.8,0.7,0.9C47.4,51.2,47.5,51.2,47.7,51.2z"/>
</g>
</svg>
