<?xml version="1.0" encoding="utf-8"?>
<!-- Generator: Adobe Illustrator 24.1.0, SVG Export Plug-In . SVG Version: 6.00 Build 0)  -->
<svg version="1.1" id="ab10f8c6-f98e-4e58-88ed-4f4fd55a691b"
	 xmlns="http://www.w3.org/2000/svg" xmlns:xlink="http://www.w3.org/1999/xlink" x="0px" y="0px" viewBox="0 0 64 64"
	 style="enable-background:new 0 0 64 64;" xml:space="preserve">
<g>
	<path d="M13.8,40.9l1.6-0.3c-0.2-1.1-0.3-2.3-0.4-3.3h2.8c0.1,1.3,0.2,2.5,0.5,3.6l1.6-0.3c-0.2-1.1-0.4-2.2-0.5-3.3h6.1v-1.6H4.9
		v1.6h8.5C13.5,38.5,13.6,39.8,13.8,40.9z"/>
	<path d="M57.3,20.1l3.1-3.4l-1.6-1.5l1.5-1.6l-1.2-1.1l-1.5,1.6L56,12.6L52.8,16c-3.3-2.4-7.3-3.8-11.4-4.4v-3h2.3V2.6H33.2v6h2.3
		v3.1c-7.4,0.9-13.9,5-17.9,11.2l1.4,0.9C26,12.9,40.5,9.8,51.4,16.8s13.9,21.5,6.9,32.5c-7.1,10.8-21.5,13.9-32.5,6.9
		c-2.8-1.8-5.1-4.1-6.9-6.9c-0.6-1-1.2-2-1.7-3.1h3.1c5.3,10.1,17.9,14,28,8.7s14-17.9,8.7-28c-5.6-10.1-18.1-14.1-28.2-8.7
		c-2.4,1.3-4.5,3-6.2,5l1.2,1c3.4-4.1,8.4-6.6,13.8-6.8V19h1.6v-1.7c10,0.3,18.1,8.4,18.5,18.3h-1.8v1.6h1.8
		c-0.4,10-8.5,18-18.5,18.3v-1.6h-1.6v1.6c-5.1-0.3-10-2.6-13.4-6.5c-0.8-0.9-1.6-1.9-2.2-3h3.4v-1.6H9.7v1.6h5.7
		c5.3,12.8,20,18.8,32.8,13.4c12.8-5.3,18.8-20,13.4-32.8C60.5,24.4,59,22.1,57.3,20.1z M34.8,7.1V4.2h7.3v2.9
		C42.1,7.1,34.8,7.1,34.8,7.1z M37,11.5V8.7h2.9v2.9H37z M54.1,17l2-2.2l2.1,2l-2,2.2C55.5,18.2,54.8,17.6,54.1,17z"/>
	<path d="M13.8,32.1l1.6,0.3c0.2-1.4,0.6-2.7,1.1-3.9h3c-0.3,0.8-0.6,1.5-0.8,2.3c-0.1,0.3-0.1,0.6-0.2,0.9l-0.2,0.5l1.6,0.3
		l0.1-0.5c0-0.3,0.1-0.5,0.2-0.8c0.3-1,0.6-1.9,1-2.8h4.3v-1.6H11.8v1.6h3C14.4,29.6,14.1,30.8,13.8,32.1z"/>
	<rect x="0.5" y="35.7" width="2.3" height="1.6"/>
	<rect x="5.2" y="44.6" width="2.3" height="1.6"/>
	<rect x="7.4" y="26.9" width="2.3" height="1.6"/>
	<path d="M49,24.8L40,33.9c-1.5-0.9-3.2-0.4-4.1,1.1c-0.9,1.5-0.4,3.2,1.1,4.1c1.5,0.9,3.2,0.4,4.1-1.1c0.5-0.9,0.6-2.1,0-3l9.1-9.1
		L49,24.8z M38.5,38c-0.8,0-1.4-0.6-1.4-1.4c0-0.8,0.6-1.4,1.4-1.4c0.8,0,1.4,0.6,1.4,1.4C39.9,37.3,39.3,38,38.5,38z"/>
</g>
</svg>
