<svg data-name="Layer 1" xmlns="http://www.w3.org/2000/svg" viewBox="0 0 450 450"><path d="M132.76 112.05a6.26 6.26 0 00-4.38 1.77l-89.32 86.84a8.4 8.4 0 000 12.11l89.32 86.85a6.33 6.33 0 006.77 1.31 6 6 0 003.83-5.58v-41.77h70.48a6 6 0 100-12.08H139v-34.78a6.21 6.21 0 00-12.42 0v74L53 209.22a3.47 3.47 0 010-5l73.59-71.55v33.23a6.13 6.13 0 006.21 6h101a6 6 0 006.09-5.92 6.15 6.15 0 00-6.21-6.16H139v-41.73a6 6 0 00-3.84-5.58 6.37 6.37 0 00-2.4-.46zM317.24 338a6.26 6.26 0 004.38-1.77l89.32-86.84a8.4 8.4 0 000-12.11l-89.32-86.85a6.33 6.33 0 00-6.77-1.31 6 6 0 00-3.83 5.58v41.77h-70.48a6 6 0 100 12.08H311v34.78a6.21 6.21 0 0012.42 0v-74.1L397 240.78a3.47 3.47 0 010 5l-73.59 71.55V284.1a6.13 6.13 0 00-6.21-6h-101a6 6 0 00-6.09 5.92 6.15 6.15 0 006.21 6.16H311v41.77a6 6 0 003.84 5.58 6.37 6.37 0 002.4.47z"/></svg>