<svg xmlns="http://www.w3.org/2000/svg" fill="#fff" viewBox="0 0 450 450"><path d="M28.2 60.1c-3.2 0-5.8 2.6-5.8 5.8v352.9c0 3.2 2.5 5.8 5.7 5.8h396.1c3.2 0 5.8-2.6 5.8-5.8v-353c0-3.2-2.6-5.8-5.8-5.8h-37.3V40c0-12.7-10.3-23-23-23s-23 10.3-23 23v20.1H318V40c-.3-12.7-10.9-22.7-23.6-22.4-12.3.3-22.1 10.2-22.4 22.4v20.1h-22.9V40c0-12.7-10.3-23-23-23s-23 10.3-23 23v20.1h-22.9V40c-.3-12.7-10.9-22.7-23.6-22.4-12.3.3-22.1 10.2-22.4 22.4v20.1h-22.9V40c-.3-12.7-10.9-22.7-23.6-22.4-12 .3-21.9 10.1-22.2 22.4v20.1H28.2zM418.5 413H34V71.6h31.5v20.1c.3 12.7 10.9 22.7 23.6 22.4 12.3-.3 22.1-10.2 22.4-22.4V71.6h22.9v20.1c.3 12.7 10.9 22.7 23.6 22.4 12.3-.3 22.1-10.2 22.4-22.4V71.6h22.9v20.1c0 12.7 10.3 23 23 23s23-10.3 23-23V71.6h22.9v20.1c.3 12.7 10.9 22.7 23.6 22.4 12.3-.3 22.1-10.2 22.4-22.4V71.6H341v20.1c0 12.7 10.3 23 23 23s22.9-10.3 23-23V71.6h31.5V413zM364 103.1c-6.3 0-11.4-5.1-11.4-11.4V40c0-6.3 5.1-11.4 11.5-11.4 6.3 0 11.4 5.1 11.4 11.4v51.7c-.1 6.3-5.2 11.4-11.5 11.4zm-68.9 0c-6.3 0-11.4-5.1-11.5-11.4V40c.2-6.3 5.5-11.3 11.9-11.1 6 .2 10.8 5 11.1 11.1v51.7c-.1 6.3-5.2 11.4-11.5 11.4zm-68.9 0c-6.3 0-11.4-5.1-11.4-11.4V40c0-6.3 5.1-11.4 11.5-11.4 6.3 0 11.4 5.1 11.4 11.4v51.7c0 6.2-5.1 11.3-11.5 11.4zm-68.8 0c-6.3 0-11.4-5.1-11.4-11.4V40c0-6.3 5.1-11.4 11.5-11.4 6.3 0 11.4 5.1 11.4 11.4v51.7c-.1 6.3-5.2 11.4-11.5 11.4zm-68.9 0c-6.3 0-11.4-5.1-11.4-11.4V40c0-6.3 5.1-11.4 11.5-11.4 6.3 0 11.4 5.1 11.4 11.4v51.7c-.1 6.2-5.2 11.4-11.5 11.4z"/><path d="M105.7 169.1H71.3c-4.8 0-8.6 3.9-8.6 8.6v34.4c0 4.8 3.9 8.6 8.6 8.6h34.4c4.8 0 8.6-3.9 8.6-8.6v-34.4c0-4.7-3.8-8.6-8.6-8.6zM174.6 169.1h-34.4c-4.8 0-8.6 3.9-8.6 8.6v34.4c0 4.8 3.9 8.6 8.6 8.6h34.4c4.8 0 8.6-3.8 8.6-8.6v-34.4c0-4.7-3.9-8.6-8.6-8.6zM243.4 169.1H209c-4.8 0-8.6 3.9-8.6 8.6v34.4c0 4.8 3.9 8.6 8.6 8.6h34.4c4.8 0 8.6-3.9 8.6-8.6v-34.4c.1-4.7-3.8-8.6-8.6-8.6zM312.3 169.1h-34.4c-4.8 0-8.6 3.9-8.6 8.6v34.4c0 4.8 3.9 8.6 8.6 8.6h34.4c4.8 0 8.6-3.9 8.6-8.6v-34.4c0-4.7-3.8-8.6-8.6-8.6zM381.1 169.1h-34.4c-4.8 0-8.6 3.9-8.6 8.6v34.4c0 4.8 3.9 8.6 8.6 8.6h34.4c4.8 0 8.6-3.9 8.6-8.6v-34.4c0-4.7-3.8-8.6-8.6-8.6zM105.7 238H71.3c-4.8 0-8.6 3.9-8.6 8.6V281c0 4.8 3.9 8.6 8.6 8.6h34.4c4.8 0 8.6-3.9 8.6-8.6v-34.4c0-4.8-3.8-8.6-8.6-8.6zM174.6 238h-34.4c-4.8 0-8.6 3.9-8.6 8.6V281c0 4.8 3.9 8.6 8.6 8.6h34.4c4.8 0 8.6-3.8 8.6-8.6v-34.4c0-4.8-3.9-8.6-8.6-8.6zM243.4 238H209c-4.8 0-8.6 3.9-8.6 8.6V281c0 4.8 3.9 8.6 8.6 8.6h34.4c4.8 0 8.6-3.9 8.6-8.6v-34.4c.1-4.8-3.8-8.6-8.6-8.6zM312.3 238h-34.4c-4.8 0-8.6 3.9-8.6 8.6V281c0 4.8 3.9 8.6 8.6 8.6h34.4c4.8 0 8.6-3.9 8.6-8.6v-34.4c0-4.8-3.8-8.6-8.6-8.6zM381.1 238h-34.4c-4.8 0-8.6 3.9-8.6 8.6V281c0 4.8 3.8 8.6 8.6 8.6h34.4c4.8 0 8.6-3.9 8.6-8.6v-34.5c0-4.7-3.8-8.5-8.6-8.5zM105.7 306.9H71.3c-4.8 0-8.6 3.9-8.6 8.6v34.4c0 4.8 3.9 8.6 8.6 8.6h34.4c4.8 0 8.6-3.9 8.6-8.6v-34.4c0-4.8-3.8-8.6-8.6-8.6zM174.6 306.9h-34.4c-4.8 0-8.6 3.9-8.6 8.6v34.4c0 4.8 3.9 8.6 8.6 8.6h34.4c4.8 0 8.6-3.8 8.6-8.6v-34.4c0-4.8-3.9-8.6-8.6-8.6zM243.4 306.9H209c-4.8 0-8.6 3.9-8.6 8.6v34.4c0 4.8 3.9 8.6 8.6 8.6h34.4c4.8 0 8.6-3.9 8.6-8.6v-34.4c.1-4.8-3.8-8.6-8.6-8.6zM312.3 306.9h-34.4c-4.8 0-8.6 3.9-8.6 8.6v34.4c0 4.8 3.9 8.6 8.6 8.6h34.4c4.8 0 8.6-3.9 8.6-8.6v-34.4c0-4.8-3.8-8.6-8.6-8.6z"/></svg>