<?xml version="1.0" encoding="utf-8"?>
<!-- Generator: Adobe Illustrator 24.1.0, SVG Export Plug-In . SVG Version: 6.00 Build 0)  -->
<svg version="1.1" id="aa651bb0-aafe-408b-acf0-8bf62253169c"
	 xmlns="http://www.w3.org/2000/svg" xmlns:xlink="http://www.w3.org/1999/xlink" x="0px" y="0px" viewBox="0 0 64 64"
	 style="enable-background:new 0 0 64 64;" xml:space="preserve">
<path d="M32,64C14.4,64,0,49.6,0,32c0-6.9,2.2-13.6,6.3-19.1c0.4-0.5,1-0.5,1.5-0.2c0.4,0.4,0.5,1,0.2,1.5C4.2,19.3,2.1,25.6,2.2,32
	c0,16.5,13.4,29.8,29.8,29.8c7.4,0,14.5-2.7,20-7.7L9,11.2c-0.4-0.4-0.4-1.1,0-1.5C15,3.5,23.3,0,32,0c17.6,0,32,14.4,32,32
	c0,7.2-2.4,14.1-6.8,19.7c-0.4,0.5-1,0.5-1.5,0.2c-0.5-0.4-0.5-1-0.2-1.5c4.1-5.2,6.4-11.7,6.4-18.4C61.8,15.5,48.5,2.2,32,2.2
	c-7.7,0-15.1,3-20.7,8.3l42.8,42.8l0.1,0.1c0.5,0.4,0.5,1.1,0.2,1.5c0,0-0.1,0.1-0.1,0.1C48.3,60.8,40.3,64,32,64z"/>
<g>
	<path d="M12.9,40.4V30.2h-1c-0.1,0-0.3-0.1-0.4-0.2c-0.1-0.2-0.1-0.4-0.1-0.6v-0.3c0-0.2,0-0.4,0.1-0.6c0.1-0.1,0.2-0.2,0.4-0.2h1
		v-2.3c0-1.3,0.3-2.1,0.9-2.6c0.6-0.5,1.4-0.7,2.2-0.7c1.2,0,1.7,0.2,1.7,0.7c0,0.2-0.1,0.5-0.1,0.7c-0.1,0.3-0.2,0.4-0.4,0.4
		c-0.1,0-0.2,0-0.3-0.1c-0.2,0-0.5-0.1-0.7-0.1c-0.4,0-0.7,0.1-1,0.3c-0.2,0.2-0.3,0.7-0.3,1.4v2.1H17c0.1,0,0.3,0,0.4,0.2
		c0.1,0.2,0.1,0.4,0.1,0.6v0.3c0,0.2,0,0.4-0.1,0.6c-0.1,0.1-0.2,0.2-0.4,0.2h-2.1v10.3c0,0.3-0.3,0.5-1,0.5h-0.1
		C13.2,41,12.9,40.8,12.9,40.4z"/>
	<path d="M20.8,39.5c-1-1-1.4-2.6-1.4-4.8s0.5-3.7,1.4-4.8c0.9-1.1,2.3-1.6,4.2-1.6c1.6,0,2.9,0.5,3.7,1.6c0.8,1.1,1.2,2.6,1.2,4.6
		c0,0.2-0.1,0.4-0.3,0.6c-0.2,0.3-0.4,0.4-0.5,0.4h-7.6c0.1,1.3,0.4,2.3,1,2.9c0.6,0.6,1.5,0.9,2.7,0.9c0.6,0,1.2-0.1,1.7-0.3
		c0.4-0.1,0.8-0.3,1.2-0.5c0.2-0.1,0.4-0.2,0.5-0.3c0.2,0,0.3,0.2,0.5,0.5c0.2,0.2,0.3,0.5,0.3,0.7c0,0.2-0.2,0.4-0.6,0.7
		c-0.5,0.3-1,0.5-1.6,0.6c-0.7,0.2-1.4,0.3-2.1,0.3C23.2,41.1,21.8,40.6,20.8,39.5z M27.7,33.8c0-2.5-1-3.8-2.9-3.8
		c-2.1,0-3.2,1.3-3.3,3.8H27.7z"/>
	<path d="M33.5,39.5c-1-1-1.4-2.6-1.4-4.8s0.5-3.7,1.4-4.8c0.9-1.1,2.3-1.6,4.2-1.6c1.6,0,2.9,0.5,3.7,1.6c0.8,1.1,1.2,2.6,1.2,4.6
		c0,0.2-0.1,0.4-0.3,0.6c-0.2,0.3-0.4,0.4-0.5,0.4h-7.6c0.1,1.3,0.4,2.3,1,2.9c0.6,0.6,1.5,0.9,2.7,0.9c0.6,0,1.2-0.1,1.7-0.3
		c0.4-0.1,0.8-0.3,1.2-0.5c0.2-0.1,0.4-0.2,0.6-0.3c0.2,0,0.3,0.2,0.5,0.5c0.2,0.2,0.3,0.5,0.3,0.7c0,0.2-0.2,0.4-0.6,0.7
		c-0.5,0.3-1,0.5-1.6,0.6c-0.7,0.2-1.4,0.3-2.1,0.3C35.9,41.1,34.4,40.6,33.5,39.5z M40.4,33.8c0-2.5-1-3.8-2.9-3.8
		c-2.1,0-3.2,1.3-3.3,3.8H40.4z"/>
	<path d="M46.4,40.9c-0.5-0.1-1-0.3-1.4-0.6c-0.3-0.2-0.5-0.5-0.5-0.6c0-0.3,0.1-0.5,0.3-0.7c0.2-0.3,0.4-0.5,0.5-0.5
		c0.2,0.1,0.3,0.2,0.5,0.3c0.3,0.2,0.7,0.4,1,0.5c0.4,0.1,0.9,0.2,1.3,0.2c0.8,0,1.3-0.2,1.7-0.5c0.7-0.6,0.8-1.8,0.2-2.5
		c0,0-0.1-0.1-0.1-0.1c-0.6-0.4-1.2-0.7-1.8-0.9c-0.6-0.2-1.2-0.4-1.7-0.7c-0.5-0.3-0.9-0.7-1.1-1.1c-0.3-0.6-0.5-1.2-0.5-1.9
		c0-0.6,0.2-1.3,0.5-1.8c0.3-0.5,0.8-1,1.4-1.2c0.6-0.3,1.3-0.5,2-0.4c0.7,0,1.5,0.1,2.2,0.3c0.6,0.2,1,0.4,1,0.7
		c0,0.3-0.1,0.6-0.3,0.8c-0.2,0.3-0.3,0.5-0.5,0.5c0,0-0.3-0.1-0.6-0.3c-0.5-0.2-1-0.3-1.5-0.3c-0.5,0-1.1,0.1-1.5,0.4
		c-0.4,0.3-0.6,0.7-0.6,1.2c0,0.4,0.1,0.8,0.4,1.1c0.3,0.3,0.8,0.5,1.5,0.7c1.2,0.4,2.2,0.9,2.8,1.5c0.7,0.6,1,1.4,1,2.5
		c0,0.7-0.2,1.3-0.6,1.9c-0.4,0.6-0.9,1-1.5,1.3c-0.7,0.3-1.4,0.5-2.1,0.5C47.7,41.1,47,41.1,46.4,40.9z"/>
</g>
</svg>
