<svg data-name="Layer 1" xmlns="http://www.w3.org/2000/svg" viewBox="0 0 450 450"><path d="M360.94 70.67h-95.78a5 5 0 00-3.5 8.45l27.94 27.95a2.41 2.41 0 010 3.42l-50 50.05a4.95 4.95 0 107 7l55.26-55.26a5 5 0 000-7L281.24 84.7a2.42 2.42 0 011.76-4.13h70.62A2.42 2.42 0 01356 83v70.63a2.41 2.41 0 01-1.49 2.23 2.35 2.35 0 01-.93.19 2.44 2.44 0 01-1.71-.71l-20.57-20.58a4.95 4.95 0 00-7 0L269 190a4.95 4.95 0 107 7l50.05-50a2.42 2.42 0 011.71-.71 2.45 2.45 0 011.71.71l27.94 27.94a4.89 4.89 0 003.5 1.46 5 5 0 001.9-.38 4.94 4.94 0 003.05-4.57V75.63a5 5 0 00-4.92-4.96zM365.89 211.46v81a5 5 0 01-8.45 3.5l-24.26-24.26a2.43 2.43 0 00-3.42 0l-46.37 46.37a5 5 0 01-7 0 4.95 4.95 0 010-7L328 259.53a5 5 0 017 0l16.89 16.9a2.42 2.42 0 004.13-1.71v-55.9a2.41 2.41 0 00-2.42-2.41h-55.92a2.41 2.41 0 00-2.23 1.49 2.3 2.3 0 00-.19.92 2.42 2.42 0 00.71 1.71l16.89 16.9a4.95 4.95 0 010 7l-29.47 29.47a4.95 4.95 0 01-8.44-3.5 4.89 4.89 0 011.45-3.5l24.26-24.26a2.44 2.44 0 000-3.42L276.4 215a4.94 4.94 0 013.49-8.45h81.05a5 5 0 014.95 4.91zM158.86 82.07a2.29 2.29 0 00-.18.92 2.41 2.41 0 00.7 1.71l16.9 16.9a4.94 4.94 0 010 7l-51.58 51.57a4.95 4.95 0 11-7-7l46.37-46.37a2.4 2.4 0 000-3.41l-24.26-24.27a4.95 4.95 0 013.5-8.45h81a5 5 0 015 5v81a5 5 0 01-8.45 3.5l-24.26-24.26a2.41 2.41 0 00-3.42 0l-24.26 24.26a4.95 4.95 0 11-7-7l29.47-29.47a5 5 0 017 0l16.89 16.89a2.42 2.42 0 004.13-1.71V83a2.42 2.42 0 00-2.41-2.43h-55.91a2.41 2.41 0 00-2.23 1.5z"/><g><path d="M200.58 355.25H95.52a14.62 14.62 0 01-14.61-14.6v-128a4.75 4.75 0 011.39-3.36L108.57 183a4.72 4.72 0 013.36-1.4h88.65a14.62 14.62 0 0114.6 14.61v144.44a14.62 14.62 0 01-14.6 14.6zM90.42 214.57v126.08a5.1 5.1 0 005.1 5.09h105.06a5.09 5.09 0 005.09-5.09V196.19a5.1 5.1 0 00-5.09-5.1H113.9z"/><path d="M118.5 223.92H98.8a4.76 4.76 0 110-9.51h14.94v-14.94a4.76 4.76 0 019.51 0v19.7a4.75 4.75 0 01-4.75 4.75zM233.41 381.52H128.35a14.63 14.63 0 01-14.61-14.61 4.76 4.76 0 019.51 0 5.11 5.11 0 005.1 5.1h105.06a5.11 5.11 0 005.1-5.1V222.45a5.1 5.1 0 00-5.1-5.09h-6.57a4.76 4.76 0 010-9.51h6.57a14.62 14.62 0 0114.6 14.6v144.46a14.62 14.62 0 01-14.6 14.61z"/><path d="M180.88 312.57h-65.67a4.76 4.76 0 010-9.51h65.67a4.76 4.76 0 010 9.51zM180.88 279.74h-65.67a4.76 4.76 0 010-9.51h65.67a4.76 4.76 0 010 9.51zM180.88 246.91h-32.83a4.76 4.76 0 110-9.51h32.83a4.76 4.76 0 010 9.51z"/></g></svg>