<?xml version="1.0" encoding="utf-8"?>
<!-- Generator: Adobe Illustrator 24.1.0, SVG Export Plug-In . SVG Version: 6.00 Build 0)  -->
<svg version="1.1" id="bdc58de0-a730-40c4-a340-7b4807fbbdfc"
	 xmlns="http://www.w3.org/2000/svg" xmlns:xlink="http://www.w3.org/1999/xlink" x="0px" y="0px" viewBox="0 0 64 64"
	 style="enable-background:new 0 0 64 64;" xml:space="preserve">
<g>
	<path d="M40.1,55.2c-0.6,0-1,0.5-1,1V63c0,0.6,0.5,1,1,1c0.2,0,0.4,0,0.5-0.1l6.2-3.7l6.2,3.7c0.3,0.2,0.7,0.2,1,0
		c0.3-0.2,0.5-0.5,0.5-0.9v-6.7c0-0.6-0.5-1-1-1c-0.6,0-1,0.5-1,1v5l-5.2-3.1c-0.3-0.2-0.7-0.2-1,0l-5.2,3.1v-5
		C41.1,55.7,40.7,55.2,40.1,55.2C40.1,55.2,40.1,55.2,40.1,55.2z"/>
	<path d="M46.8,28c-5.6,0-10.1,4.5-10.1,10.1s4.5,10.1,10.1,10.1s10.1-4.5,10.1-10.1l0,0C56.9,32.5,52.4,28,46.8,28z M46.8,45.5
		c-4.1,0-7.4-3.3-7.4-7.4s3.3-7.4,7.4-7.4s7.4,3.3,7.4,7.4C54.2,42.2,50.9,45.5,46.8,45.5L46.8,45.5z"/>
	<path d="M46.8,52.5c0.4,0,0.9,0.3,1.8,0.9c1.1,0.7,2.3,1.5,3.5,1.1c1.3-0.4,1.8-1.8,2.2-3v0c0.4-1,0.6-1.5,0.9-1.7
		c0.3-0.2,1-0.3,1.9-0.3c1.4-0.1,2.8-0.1,3.5-1.2c0.8-1.1,0.4-2.4,0.1-3.7c-0.3-1-0.4-1.6-0.3-2c0.1-0.3,0.5-0.7,1.3-1.3
		c1-0.8,2.2-1.8,2.2-3.1c0-1.4-1.2-2.3-2.2-3.1l0.2-0.3l-0.2,0.3l0.2-0.3l-0.2,0.3c-0.8-0.6-1.2-1-1.3-1.3c-0.1-0.4,0.1-1.1,0.3-2
		c0.4-1.3,0.7-2.6-0.1-3.7c-0.8-1.1-2.2-1.1-3.5-1.2c-0.9,0-1.6-0.1-1.9-0.3c-0.3-0.2-0.5-0.7-0.9-1.7v0c-0.4-1.2-1-2.6-2.2-3
		c-1.2-0.4-2.4,0.3-3.5,1.1l0,0c-0.9,0.6-1.4,0.9-1.8,0.9c-0.4,0-0.9-0.3-1.8-0.9c-1.1-0.7-2.3-1.5-3.5-1.1c-1.3,0.4-1.8,1.8-2.3,3
		c-0.4,1-0.6,1.5-0.9,1.7c-0.3,0.2-1,0.3-1.9,0.3c-1.4,0.1-2.8,0.1-3.5,1.2c-0.8,1.1-0.4,2.4-0.1,3.7c0.2,0.9,0.4,1.6,0.3,2
		c-0.1,0.3-0.5,0.7-1.3,1.3c-1,0.8-2.2,1.8-2.2,3.1s1.2,2.3,2.2,3.1c0.8,0.7,1.2,1,1.3,1.3c0.1,0.4-0.1,1.1-0.3,2
		c-0.4,1.3-0.7,2.6,0.1,3.7s2.2,1.1,3.5,1.2c0.9,0,1.6,0.1,1.9,0.3c0.3,0.2,0.5,0.7,0.9,1.7c0.5,1.2,1,2.6,2.3,3
		c0.2,0.1,0.5,0.1,0.7,0.1c1,0,1.9-0.6,2.8-1.2C45.9,52.8,46.5,52.5,46.8,52.5z M42.2,52.6L42.2,52.6c-0.4-0.2-0.6-0.8-1-1.8
		s-0.8-2.1-1.6-2.6c-0.8-0.6-1.9-0.7-3-0.7c-1.2-0.1-1.7-0.1-1.9-0.3L34.6,47l0-0.1c-0.1-0.3,0-0.9,0.3-1.9c0.3-1,0.6-2.2,0.3-3.1
		c-0.3-0.9-1.2-1.6-2-2.3c-1-0.8-1.4-1.2-1.4-1.5l0-0.1V38c0.1-0.3,0.5-0.8,1.4-1.5c0.8-0.7,1.7-1.3,2-2.3c0.3-1,0-2.1-0.3-3.1v0
		c-0.3-1.2-0.4-1.6-0.3-1.9l0-0.1l0.1-0.1c0.3-0.2,0.9-0.3,2-0.3c1.1-0.1,2.2-0.1,3-0.7c0.8-0.6,1.2-1.6,1.6-2.6
		c0.4-1.2,0.7-1.6,0.9-1.8l0.1-0.1h0.1c0.3,0,0.9,0.3,1.7,0.9c0.9,0.6,1.9,1.2,2.9,1.2c1,0,2-0.7,2.9-1.2c1-0.7,1.4-0.9,1.6-0.9h0.1
		l0.1,0.1c0.3,0.2,0.5,0.7,0.9,1.8c0.4,1,0.8,2.1,1.6,2.6c0.8,0.6,1.9,0.7,3,0.7c1.2,0.1,1.7,0.1,1.9,0.3l0.1,0.1l0,0.1
		c0.1,0.3,0,0.9-0.3,1.9c-0.3,1.1-0.6,2.2-0.3,3.1c0.3,0.9,1.2,1.6,2,2.3c0.9,0.7,1.3,1.1,1.4,1.5l0,0.1l0,0.1
		c-0.1,0.3-0.6,0.8-1.4,1.5l0,0c-0.8,0.7-1.7,1.3-2,2.3c-0.3,1,0,2.1,0.3,3.1c0.3,1.2,0.4,1.7,0.3,1.9l0,0.1l-0.1,0.1
		c-0.3,0.2-0.9,0.3-1.9,0.3c-1.1,0.1-2.2,0.1-3,0.7c-0.8,0.6-1.2,1.6-1.6,2.6c-0.4,1.2-0.7,1.6-0.9,1.8l-0.1,0l-0.1,0
		c-0.4,0-0.8-0.2-1.5-0.7l-0.2-0.1c-0.9-0.6-1.9-1.2-2.9-1.2c-1,0-2,0.7-2.9,1.2C42.9,52.4,42.5,52.6,42.2,52.6L42.2,52.6z"/>
	<path d="M1,0C0.5,0,0,0.5,0,1v62c0,0.6,0.5,1,1,1h33.7c0.6,0,1-0.5,1-1c0-0.6-0.5-1-1-1H2V2h43.8v16.5c0,0.6,0.5,1,1,1
		c0.6,0,1-0.5,1-1V1c0-0.6-0.5-1-1-1H1z"/>
	<path d="M13,5.4c-0.5,0-0.9,0.4-1,0.8c-0.5,3-2.8,5.3-5.8,5.8c-0.5,0.1-0.8,0.5-0.8,1v38c0,0.5,0.4,0.9,0.8,1
		c3,0.5,5.3,2.8,5.8,5.8c0.1,0.5,0.5,0.8,1,0.8h21.7c0.6,0,1-0.5,1-1s-0.5-1-1-1H13.8l-0.1-0.2c-0.9-2.9-3.2-5.2-6.1-6.1l-0.2-0.1
		V13.8l0.2-0.1c2.9-0.9,5.2-3.2,6.1-6.1l0.1-0.2H34l0.1,0.2c0.9,2.9,3.2,5.2,6.1,6.1l0.2,0.1v4.7c0,0.6,0.5,1,1,1c0.6,0,1-0.5,1-1
		V13c0-0.5-0.4-0.9-0.8-1c-3-0.5-5.3-2.8-5.8-5.8c-0.1-0.5-0.5-0.8-1-0.8L13,5.4z"/>
	<path d="M30.7,15.8c0.7,0,1.3-0.6,1.3-1.3c0-0.7-0.6-1.3-1.3-1.3H17.2c-0.7,0-1.3,0.6-1.3,1.3c0,0.7,0.6,1.3,1.3,1.3H30.7z"/>
	<path d="M34.7,22.6c0-0.7-0.6-1.3-1.3-1.3H13.2c-0.7,0-1.3,0.6-1.3,1.3c0,0.7,0.6,1.3,1.3,1.3h20.2C34.1,23.9,34.7,23.3,34.7,22.6z
		"/>
	<path d="M28,28H13.2c-0.7,0-1.3,0.6-1.3,1.3c0,0.7,0.6,1.3,1.3,1.3H28c0.7,0,1.3-0.6,1.3-1.3C29.3,28.6,28.7,28,28,28z"/>
	<path d="M13.2,37.4h12.1c0.7,0,1.3-0.6,1.3-1.3c0-0.7-0.6-1.3-1.3-1.3H13.2c-0.7,0-1.3,0.6-1.3,1.3C11.8,36.8,12.4,37.4,13.2,37.4z
		"/>
	<path d="M13.2,44.1h13.5c0.7,0,1.3-0.6,1.3-1.3c0-0.7-0.6-1.3-1.3-1.3H13.2c-0.7,0-1.3,0.6-1.3,1.3C11.8,43.5,12.4,44.1,13.2,44.1z
		"/>
	<path d="M15.8,50.9H28c0.7,0,1.3-0.6,1.3-1.3s-0.6-1.3-1.3-1.3H15.8c-0.7,0-1.3,0.6-1.3,1.3S15.1,50.9,15.8,50.9z"/>
</g>
</svg>
