<svg data-name="Layer 1" xmlns="http://www.w3.org/2000/svg" viewBox="0 0 450 450"><path d="M158.27 86.44a4.38 4.38 0 000 8.75h25v42.62c0 20.53 5.82 38.34 17.3 52.93l.32.41v25.9l-52.68 20a16.45 16.45 0 00-9.75 11.57l-19.37 96.74a16.32 16.32 0 003.1 13.94 16.1 16.1 0 0012.66 6.13h187.83a16.26 16.26 0 0015.81-19.84L319 248.39a16.38 16.38 0 00-9.84-11.4l-52.54-20v-25.84l.32-.41c11.49-14.59 17.31-32.4 17.31-52.93V95.19h20.62v42.62a4.38 4.38 0 108.75 0v-47a4.38 4.38 0 00-4.37-4.38zm164.41 270.24h-89.54V245.37l20.22-20.22 52.63 20a7.48 7.48 0 014.48 5.11l19.47 97.19a7.53 7.53 0 01-1.45 6.42 7.41 7.41 0 01-5.81 2.81zm-98.29 0h-89.54a7.4 7.4 0 01-5.8-2.81 7.7 7.7 0 01-1.41-6.66L147 250.48a7.57 7.57 0 014.39-5.29l52.78-20 20.21 20.22zm4.38-119.31l-19.13-19.12v-17.7l2.47 2a67.67 67.67 0 0014.89 9.77 4.39 4.39 0 003.48 0 67.93 67.93 0 0014.92-9.72l2.46-2v17.7zm0-33.93l-.72-.4c-8.45-4.71-36-23.37-36-65.41v-7.19h73.5v7.37c0 42.21-27.56 60.6-36 65.24zm36.74-81.75H192v-26.5h73.5z"/><circle cx="205.27" cy="284.68" r="5.87"/><circle cx="205.27" cy="308.18" r="5.87"/><circle cx="205.27" cy="261.18" r="5.87"/><circle cx="205.27" cy="331.68" r="5.87"/></svg>