<?xml version="1.0" encoding="utf-8"?>
<!-- Generator: Adobe Illustrator 24.1.0, SVG Export Plug-In . SVG Version: 6.00 Build 0)  -->
<svg version="1.1" id="Layer_1" xmlns="http://www.w3.org/2000/svg" xmlns:xlink="http://www.w3.org/1999/xlink" x="0px" y="0px"
	 viewBox="0 0 64 64" style="enable-background:new 0 0 64 64;" xml:space="preserve">
<g>
	<path d="M55.1,9.9c-0.4-0.4-1.1-0.5-1.5,0L38.2,24.1c-0.1-0.1-0.3-0.2-0.4-0.3c-1.1-0.7-2.4-0.9-4-0.9h-5.7c-0.5,0-1,0.4-1,0.9
		v10.5l-3.5,3.3V32c0-0.5-0.3-0.9-0.9-0.9h-5.4c-0.5,0-0.8,0.4-0.8,0.8c0,0.5,0.4,0.9,0.8,0.9h4.4v3.5c-1.1,0.8-2.7,1.4-4.5,1.4
		c-3.6,0-6.5-2.6-6.5-6.7c0-3.6,2.9-6.6,6.5-6.6c1,0,1.7,0.1,2.3,0.4c1.2,0.4,1.5,0.8,2,0.8s0.9-0.4,0.9-0.9c0-0.5-0.5-0.9-1.2-1.2
		c-1.1-0.5-2.3-0.8-4-0.8c-4.7,0-8.5,3.8-8.5,8.3c0,5.4,3.8,8.4,8.4,8.4c1.9,0,3.5-0.6,4.6-1.3v0.4c0,0.3,0.1,0.5,0.2,0.6L9,51.1
		c-4.7-5.7-7.1-12.9-6.8-20.2c0.7-16.4,14.6-29.3,31-28.6c6.4,0.2,12.6,2.6,17.6,6.6c0.5,0.4,1.1,0.3,1.5-0.2
		c0.4-0.5,0.3-1.1-0.1-1.5c-5.3-4.3-12-6.8-18.9-7.1C15.6-0.7,0.7,13.1,0,30.7C-0.3,39,2.6,47.2,8.2,53.3c0,0,0.1,0.1,0.1,0.1
		c0.5,0.4,1.1,0.4,1.5-0.1l0.1-0.1l17.3-16v1.2c0,0.5,0.4,0.9,1,0.9c0.5,0,1-0.4,1-0.9v-3l2.9-2.7h1.3L38,39
		c0.2,0.3,0.5,0.5,0.8,0.5c0.5,0,1-0.5,1-1c0-0.2-0.1-0.5-0.3-0.6l-4-5.1c0.8-0.1,1.6-0.4,2.3-1c1.2-0.9,1.9-2.1,1.9-3.9
		c0-0.7-0.1-1.4-0.3-1.9l14.9-13.7c5.1,5.8,7.8,13.3,7.5,21c-0.6,16.4-14.5,29.3-31,28.6c-6.7-0.2-13.1-2.7-18.1-7.1
		c-0.5-0.4-1.1-0.3-1.5,0.1c-0.4,0.5-0.3,1.1,0.1,1.5c5.4,4.7,12.3,7.3,19.4,7.6C48.4,64.7,63.3,50.9,64,33.3
		C64.3,24.6,61.1,16.2,55.1,9.9L55.1,9.9z M29.1,31.2v-6.7h4.5c1.1,0,2,0.1,2.8,0.6c0.2,0.1,0.3,0.2,0.4,0.3l-6.3,5.8L29.1,31.2
		L29.1,31.2z M37.8,27.8c0,1.4-0.6,2.3-1.4,2.8c-0.7,0.4-1.6,0.5-2.6,0.5l4-3.7C37.7,27.6,37.8,27.7,37.8,27.8L37.8,27.8z"/>
	<path d="M53.7,24.6c0.5,0,0.8-0.4,0.8-0.9c0-0.5-0.4-0.8-0.8-0.8H43.6c-0.5,0-1,0.4-1,0.9v14.4c0,0.5,0.4,0.9,1,0.9h10.1
		c0.5,0,0.8-0.4,0.8-0.8c0-0.5-0.4-0.9-0.8-0.9h-9.1v-5.6h7.8c0.5,0,0.8-0.4,0.8-0.8c0-0.5-0.4-0.9-0.8-0.9h-7.8v-5.6L53.7,24.6
		L53.7,24.6z"/>
</g>
</svg>
