<svg data-name="Layer 1" xmlns="http://www.w3.org/2000/svg" viewBox="0 0 450 450"><path d="M225 330.53c-16 0-28-14.56-28-33.87a28 28 0 0156 0c0 19.34-12 33.87-28 33.87zm0-52.87a19 19 0 00-19 19c0 14.41 8 24.87 19 24.87s19-10.46 19-24.87a19 19 0 00-19-19zM342.48 330.53c-16 0-28-14.56-28-33.87a28 28 0 1156 0c-.01 19.34-12.04 33.87-28 33.87zm0-52.87a19 19 0 00-19 19c0 14.41 8 24.87 19 24.87s19-10.46 19-24.87a19 19 0 00-19-19zM107.52 330.53c-16 0-28-14.56-28-33.87a28 28 0 1156 0c0 19.34-12.04 33.87-28 33.87zm0-52.87a19 19 0 00-19 19c0 14.41 8 24.87 19 24.87s19-10.46 19-24.87a19 19 0 00-19-19zM154.51 365.77a4.5 4.5 0 01-4.5-4.5v-4.66a7.22 7.22 0 00-4.2-6.59 92.87 92.87 0 00-38-7.75 95.1 95.1 0 00-38.48 7.8 7.2 7.2 0 00-4.33 6.61v4.59a4.5 4.5 0 01-9 0v-4.59a16.22 16.22 0 019.61-14.84 104.26 104.26 0 0142.13-8.57 101.72 101.72 0 0141.73 8.55 16.21 16.21 0 019.53 14.79v4.66a4.49 4.49 0 01-4.49 4.5zM272 365.77a4.5 4.5 0 01-4.5-4.5v-4.66a7.22 7.22 0 00-4.2-6.59 92.87 92.87 0 00-38-7.75 95.19 95.19 0 00-38.49 7.8 7.21 7.21 0 00-4.25 6.61v4.59a4.5 4.5 0 01-9 0v-4.59a16.22 16.22 0 019.61-14.84 104.22 104.22 0 0142.13-8.57 101.76 101.76 0 0141.7 8.55 16.21 16.21 0 019.51 14.79v4.66a4.49 4.49 0 01-4.51 4.5zM389.47 365.77a4.49 4.49 0 01-4.5-4.5v-4.66a7.21 7.21 0 00-4.21-6.59 92.77 92.77 0 00-38-7.75 95.19 95.19 0 00-38.49 7.8 7.21 7.21 0 00-4.25 6.61v4.59a4.5 4.5 0 01-9 0v-4.59a16.22 16.22 0 019.61-14.84 104.22 104.22 0 0142.13-8.57 101.76 101.76 0 0141.73 8.55 16.21 16.21 0 019.51 14.79v4.66a4.49 4.49 0 01-4.53 4.5zM366 260H84a4.49 4.49 0 01-4.5-4.5V73.45A4.49 4.49 0 0184 69h282a4.49 4.49 0 014.5 4.5v182.04A4.49 4.49 0 01366 260zm-277.47-9h272.94V78H88.53z"/><path d="M301.36 100.44H84a3.5 3.5 0 010-7h217.36a3.5 3.5 0 010 7zM348.35 100.44H336.6a3.5 3.5 0 010-7h11.75a3.5 3.5 0 010 7zM324.86 100.44h-11.75a3.5 3.5 0 010-7h11.75a3.5 3.5 0 010 7zM201.5 241.42a3.5 3.5 0 01-3.5-3.5v-23.5a9.38 9.38 0 019.38-9.37H272a8.25 8.25 0 000-16.5H136.89a14.14 14.14 0 00-14.12 14.13v35.24a3.5 3.5 0 01-7 0v-35.24a21.15 21.15 0 0121.12-21.13H272a15.25 15.25 0 010 30.5h-64.62a2.38 2.38 0 00-2.38 2.37v23.5a3.5 3.5 0 01-3.5 3.5zM166.26 176.81c-15.39 0-27-14.14-27-32.87a27 27 0 1154 0c0 18.73-11.61 32.87-27 32.87zm0-52.87a20 20 0 00-20 20c0 15 8.4 25.87 20 25.87s20-10.88 20-25.87a20 20 0 00-20-20zM324.86 141.56h-94a3.5 3.5 0 010-7h94a3.5 3.5 0 010 7zM324.86 165.06h-94a3.5 3.5 0 010-7h94a3.5 3.5 0 010 7z"/></svg>