<svg data-name="Layer 1" xmlns="http://www.w3.org/2000/svg" viewBox="0 0 450 450"><path d="M93.55 113.34a4.06 4.06 0 00-4.06 4.06v248.49a4.06 4.06 0 004.06 4.11h278.8a4.06 4.06 0 004.06-4.06V117.4a4.06 4.06 0 00-4.06-4.06H346.1V99.21a16.18 16.18 0 10-32.36 0v14.13h-16.12V99.21a16.19 16.19 0 00-32.37 0v14.13h-16.12V99.21a16.18 16.18 0 00-32.36 0v14.13h-16.12V99.21a16.19 16.19 0 00-32.37 0v14.13h-16.12V99.21a16.19 16.19 0 00-32.37 0v14.13zm274.74 248.49H97.61V121.46h22.18v14.12a16.19 16.19 0 0032.37 0v-14.12h16.12v14.12a16.19 16.19 0 0032.37 0v-14.12h16.12v14.12a16.18 16.18 0 0032.36 0v-14.12h16.12v14.12a16.19 16.19 0 0032.37 0v-14.12h16.12v14.12a16.18 16.18 0 0032.36 0v-14.12h22.19zm-38.37-218.19a8.07 8.07 0 01-8.06-8.06V99.21a8.06 8.06 0 0116.12 0v36.37a8.07 8.07 0 01-8.06 8.06zm-48.48 0a8.08 8.08 0 01-8.07-8.06V99.21a8.07 8.07 0 0116.13 0v36.37a8.07 8.07 0 01-8.06 8.06zm-48.49 0a8.07 8.07 0 01-8.06-8.06V99.21a8.06 8.06 0 0116.12 0v36.37a8.07 8.07 0 01-8.01 8.06zm-48.49 0a8.07 8.07 0 01-8.06-8.06V99.21a8.06 8.06 0 0116.12 0v36.37a8.07 8.07 0 01-8.06 8.06zm-48.48 0a8.07 8.07 0 01-8.06-8.06V99.21a8.06 8.06 0 0116.12 0v36.37a8.07 8.07 0 01-8.04 8.06z"/><path d="M148.1 190.13h-24.25a6.06 6.06 0 00-6.06 6.06v24.24a6.06 6.06 0 006.06 6.06h24.25a6.06 6.06 0 006.06-6.06v-24.24a6.06 6.06 0 00-6.06-6.06zM196.58 190.13h-24.24a6.06 6.06 0 00-6.06 6.06v24.24a6.06 6.06 0 006.06 6.06h24.24a6.06 6.06 0 006.07-6.06v-24.24a6.06 6.06 0 00-6.07-6.06zM245.07 190.13h-24.24a6.06 6.06 0 00-6.06 6.06v24.24a6.06 6.06 0 006.06 6.06h24.24a6.06 6.06 0 006.06-6.06v-24.24a6.06 6.06 0 00-6.06-6.06zM293.56 190.13h-24.25a6.06 6.06 0 00-6.06 6.06v24.24a6.06 6.06 0 006.06 6.06h24.25a6.06 6.06 0 006.06-6.06v-24.24a6.06 6.06 0 00-6.06-6.06zM342 190.13h-24.2a6.06 6.06 0 00-6.06 6.06v24.24a6.06 6.06 0 006.06 6.06H342a6.06 6.06 0 006.06-6.06v-24.24a6.06 6.06 0 00-6.06-6.06zM148.1 238.61h-24.25a6.06 6.06 0 00-6.06 6.06v24.25a6.06 6.06 0 006.06 6.06h24.25a6.06 6.06 0 006.06-6.06v-24.25a6.06 6.06 0 00-6.06-6.06zM196.58 238.61h-24.24a6.06 6.06 0 00-6.06 6.06v24.25a6.06 6.06 0 006.06 6.06h24.24a6.06 6.06 0 006.07-6.06v-24.25a6.06 6.06 0 00-6.07-6.06zM245.07 238.61h-24.24a6.06 6.06 0 00-6.06 6.06v24.25a6.06 6.06 0 006.06 6.06h24.24a6.06 6.06 0 006.06-6.06v-24.25a6.06 6.06 0 00-6.06-6.06zM293.56 238.61h-24.25a6.06 6.06 0 00-6.06 6.06v24.25a6.06 6.06 0 006.06 6.06h24.25a6.06 6.06 0 006.06-6.06v-24.25a6.06 6.06 0 00-6.06-6.06zM342 238.61h-24.2a6.06 6.06 0 00-6.06 6.06v24.25a6.06 6.06 0 006.06 6.08H342a6.06 6.06 0 006.06-6.06v-24.27a6.06 6.06 0 00-6.06-6.06zM148.1 287.1h-24.25a6.06 6.06 0 00-6.06 6.06v24.24a6.06 6.06 0 006.06 6.06h24.25a6.06 6.06 0 006.06-6.06v-24.24a6.06 6.06 0 00-6.06-6.06zM196.58 287.1h-24.24a6.06 6.06 0 00-6.06 6.06v24.24a6.06 6.06 0 006.06 6.06h24.24a6.06 6.06 0 006.07-6.06v-24.24a6.06 6.06 0 00-6.07-6.06zM245.07 287.1h-24.24a6.06 6.06 0 00-6.06 6.06v24.24a6.06 6.06 0 006.06 6.06h24.24a6.06 6.06 0 006.06-6.06v-24.24a6.06 6.06 0 00-6.06-6.06zM293.56 287.1h-24.25a6.06 6.06 0 00-6.06 6.06v24.24a6.06 6.06 0 006.06 6.06h24.25a6.06 6.06 0 006.06-6.06v-24.24a6.06 6.06 0 00-6.06-6.06z"/></svg>