<?xml version="1.0" encoding="utf-8"?>
<!-- Generator: Adobe Illustrator 24.1.0, SVG Export Plug-In . SVG Version: 6.00 Build 0)  -->
<svg version="1.1" id="b7c678d3-d83c-4164-a7a0-313d75e1ff90"
	 xmlns="http://www.w3.org/2000/svg" xmlns:xlink="http://www.w3.org/1999/xlink" x="0px" y="0px" viewBox="0 0 64 64"
	 style="enable-background:new 0 0 64 64;" xml:space="preserve">
<g>
	<path d="M50.7,26.7c0-2.9-2.4-5.3-5.3-5.3c-2.9,0-5.3,2.4-5.3,5.3c0,2.9,2.4,5.3,5.3,5.3C48.3,32,50.7,29.6,50.7,26.7z M42.7,26.7
		c0-1.5,1.2-2.7,2.7-2.7c1.5,0,2.7,1.2,2.7,2.7s-1.2,2.7-2.7,2.7C43.9,29.3,42.7,28.1,42.7,26.7L42.7,26.7z"/>
	<path d="M23.1,15.6c-1.7,0.5-3.3,1.1-4.9,1.8c-0.7,0.3-1,1.1-0.7,1.7c0.2,0.5,0.7,0.8,1.2,0.8c0.2,0,0.3,0,0.5-0.1
		c5.5-2.3,9.9-3.7,17.7-1.3c0.7,0.2,1.4-0.2,1.6-0.9c0.2-0.7-0.2-1.4-0.9-1.6c-1.4-0.4-2.7-0.8-4.1-1c3.2-3.1,3.2-8.1,0.2-11.3
		c-3.1-3.2-8.1-3.2-11.3-0.2s-3.2,8.1-0.2,11.3C22.6,15.2,22.8,15.4,23.1,15.6L23.1,15.6z M28,4c2.9,0,5.3,2.4,5.3,5.3
		S31,14.7,28,14.7s-5.3-2.4-5.3-5.3l0,0C22.7,6.4,25.1,4,28,4z"/>
	<path d="M63.2,29.4l-5.8-2.3c-0.1-3.7-1.8-9.7-7.9-12l1.2-9.6c0.1-0.7-0.4-1.4-1.2-1.5c-0.3,0-0.7,0-1,0.3l-10.7,8
		c-0.6,0.4-0.7,1.3-0.3,1.9c0.4,0.6,1.3,0.7,1.9,0.3l0,0l8.1-6.1l-0.9,7.5c-0.1,0.7,0.3,1.3,1,1.4c7.5,2.2,7.1,10.3,7,10.6
		c0,0.6,0.3,1.1,0.8,1.3l5.8,2.3v8.9l-5.8,2.3c-0.1,0.1-0.2,0.1-0.3,0.2C55.1,43,55,43.1,55,43.2c-0.1,0.1-0.1,0.1-0.1,0.2
		c0,0.1-0.1,0.2-0.1,0.3c0,0,0,0.1-0.1,0.1c-1.3,7.6-6.6,8.2-6.8,8.2c0,0-0.1,0-0.1,0c-0.1,0-0.3,0.1-0.4,0.1
		c-0.1,0-0.1,0.1-0.2,0.1c-0.1,0-0.1,0.1-0.2,0.2c-0.1,0.1-0.2,0.3-0.3,0.5L44.4,60h-4.9l-2.3-4.6c0-0.1-0.1-0.1-0.1-0.2
		c0-0.1-0.1-0.1-0.1-0.2c-0.1-0.1-0.1-0.1-0.2-0.2c-0.1,0-0.1-0.1-0.2-0.1c-0.1,0-0.2,0-0.3-0.1c-0.1,0-0.2,0-0.2,0
		c-0.1,0-0.2,0-0.3,0c-0.1,0-0.1,0-0.2,0c-0.1,0-5.4,2.1-12.5,0c-0.1,0-0.1,0-0.2,0c-0.1,0-0.2,0-0.3,0c-0.1,0-0.2,0-0.3,0
		c-0.2,0-0.3,0.1-0.5,0.2c-0.1,0-0.1,0.1-0.2,0.2c-0.1,0.1-0.1,0.1-0.2,0.2c0,0-0.1,0.1-0.1,0.1L19.2,60h-4.8L12,51.6l0,0
		c-0.1-0.2-0.1-0.3-0.2-0.5c0,0,0,0-0.1,0c-0.1-0.1-0.2-0.2-0.3-0.3C6.2,48,2.7,41.5,2.7,34.7c0-9.1,6.2-17.1,15-19.4
		c0.7-0.2,1.1-0.9,1-1.6s-0.9-1.1-1.6-1c-3.8,1-7.3,3-10.2,5.8c-0.3-0.5-0.5-0.9-0.8-1.4c1.8-2.2,3.5-4.9,2.9-7.1
		c-0.2-1-1.1-2.3-3.5-2.8C3,6.7,1.9,7.6,1.3,8.4c-1.3,1.9,0,5.4,1.5,8.4c-0.7,0.8-1.5,1.5-2.3,2.2c-0.6,0.5-0.7,1.3-0.2,1.9
		c0.5,0.6,1.3,0.7,1.9,0.2c0,0,0.1,0,0.1-0.1c0.4-0.3,1.1-0.9,1.9-1.8c0.3,0.5,0.6,1,0.8,1.3c-3.2,4-5,9-5,14.1
		c0,7.7,3.7,14.8,9.5,18.2l2.5,8.8c0.2,0.6,0.7,1,1.3,1H20c0.5,0,1-0.3,1.2-0.7l2.2-4.4c2,0.5,4.1,0.8,6.1,0.8c2,0,3.9-0.2,5.8-0.7
		l2.2,4.3c0.2,0.4,0.7,0.7,1.2,0.7h6.7c0.6,0,1.1-0.4,1.3-0.9l2.4-7.2c2.7-0.6,6.8-3.1,8.1-9.5l6-2.4c0.5-0.2,0.8-0.7,0.8-1.2V30.7
		C64,30.1,63.7,29.6,63.2,29.4z M4.7,14.5c-1.1-2.3-1.6-4.1-1.2-4.7c0,0,0.2-0.1,0.5-0.1c0.3,0,0.6,0,0.9,0.1
		c0.6,0.1,1.3,0.4,1.5,0.9C6.6,11.5,5.9,13,4.7,14.5z"/>
</g>
</svg>
