<?xml version="1.0" encoding="utf-8"?>
<!-- Generator: Adobe Illustrator 24.1.0, SVG Export Plug-In . SVG Version: 6.00 Build 0)  -->
<svg version="1.1" id="b9eef0e2-c604-4dc5-8620-96ce7a34ab21"
	 xmlns="http://www.w3.org/2000/svg" xmlns:xlink="http://www.w3.org/1999/xlink" x="0px" y="0px" viewBox="0 0 64 64"
	 style="enable-background:new 0 0 64 64;" xml:space="preserve">
<g>
	<path d="M37.1,51c-0.1,0-0.2,0-0.3,0L32,49.6L27.2,51c-0.3,0.1-0.7,0-1-0.2l-3.8-3.2l-4.9-0.7c-0.3-0.1-0.6-0.3-0.8-0.6l-2.2-4.5
		l-4.2-2.7c-0.3-0.2-0.5-0.5-0.5-0.8l-0.2-5L6.8,29c-0.2-0.3-0.2-0.7-0.1-1l1.9-4.7l-0.9-5C7.7,18,7.8,17.6,8,17.4l3.6-3.5L12.8,9
		c0.1-0.3,0.3-0.6,0.7-0.7l4.7-1.7l3.1-4c0.2-0.3,0.6-0.4,0.9-0.4l5,0.3l4.4-2.3c0.3-0.2,0.7-0.2,1,0l4.4,2.3l5-0.3
		c0.3,0,0.7,0.1,0.9,0.4l3.1,4l4.7,1.7c0.3,0.1,0.6,0.4,0.7,0.7l1.2,4.9l3.6,3.5c0.2,0.2,0.4,0.6,0.3,0.9l-0.9,5l1.9,4.7
		c0.1,0.3,0.1,0.7-0.1,1l-2.8,4.2l-0.2,5c0,0.3-0.2,0.7-0.5,0.8l-4.2,2.7l-2.2,4.5c-0.2,0.3-0.5,0.5-0.8,0.6l-4.9,0.7l-3.8,3.2
		C37.6,51,37.3,51,37.1,51z M18.3,44.8l4.7,0.7c0.2,0,0.4,0.1,0.5,0.2l3.6,3.1l4.5-1.3c0.2-0.1,0.4-0.1,0.6,0l4.5,1.3l3.6-3.1
		c0.2-0.1,0.3-0.2,0.5-0.2l4.7-0.7l2.1-4.3c0.1-0.2,0.2-0.3,0.4-0.4l4-2.6l0.2-4.8c0-0.2,0.1-0.4,0.2-0.5l2.6-4l-1.8-4.5
		c-0.1-0.2-0.1-0.4-0.1-0.6l0.8-4.7l-3.4-3.3c-0.1-0.1-0.2-0.3-0.3-0.5L49.3,10l-4.4-1.6c-0.2-0.1-0.3-0.2-0.5-0.3l-2.9-3.8
		l-4.7,0.3c-0.2,0-0.4,0-0.6-0.1L32,2.3l-4.2,2.2c-0.2,0.1-0.4,0.1-0.6,0.1l-4.7-0.3L19.6,8c-0.1,0.2-0.3,0.3-0.5,0.3L14.7,10
		l-1.2,4.6c0,0.2-0.1,0.4-0.3,0.5l-3.4,3.3l0.8,4.7c0,0.2,0,0.4-0.1,0.6l-1.8,4.5l2.6,4c0.1,0.2,0.2,0.3,0.2,0.5l0.2,4.8l4,2.6
		c0.2,0.1,0.3,0.3,0.4,0.4L18.3,44.8z M32,43.8c-10.1,0-18.3-8.2-18.3-18.3c0-10.1,8.2-18.3,18.3-18.3s18.3,8.2,18.3,18.3
		c0,0,0,0,0,0C50.3,35.6,42.1,43.8,32,43.8L32,43.8z M32,9.3c-9,0-16.2,7.3-16.2,16.2c0,9,7.3,16.2,16.2,16.2
		c9,0,16.2-7.3,16.2-16.2c0,0,0,0,0,0C48.2,16.5,41,9.3,32,9.3L32,9.3z"/>
	<path d="M39,36.4c-0.2,0-0.3,0-0.5-0.1L32,32.9l-6.5,3.4c-0.5,0.3-1.2,0.1-1.4-0.4C24,35.6,24,35.4,24,35.2l1.2-7.2L20,22.8
		c-0.4-0.4-0.4-1.1,0-1.5c0.2-0.2,0.4-0.3,0.6-0.3l7.2-1.1l3.2-6.6c0.3-0.5,0.9-0.7,1.4-0.5c0.2,0.1,0.4,0.3,0.5,0.5l3.2,6.6
		l7.2,1.1c0.6,0.1,1,0.6,0.9,1.2c0,0.2-0.1,0.4-0.3,0.6l-5.2,5.1l1.2,7.2c0.1,0.6-0.3,1.1-0.9,1.2C39.1,36.4,39,36.4,39,36.4
		L39,36.4z M23,22.8l4.1,4c0.2,0.2,0.4,0.6,0.3,0.9l-1,5.6l5.1-2.7c0.3-0.2,0.7-0.2,1,0l5.1,2.7l-1-5.6c-0.1-0.3,0.1-0.7,0.3-0.9
		l4.1-4L35.3,22c-0.3,0-0.6-0.3-0.8-0.6L32,16.3l-2.5,5.2C29.3,21.7,29,22,28.7,22L23,22.8z"/>
	<path d="M19,64L19,64c-0.5,0-0.8-0.3-0.9-0.6l-4-8.2l-7,0.4c-0.6,0-1.1-0.4-1.1-1c0-0.2,0.1-0.5,0.2-0.7L15,41.5
		c0.3-0.5,1-0.6,1.5-0.2c0.5,0.3,0.6,1,0.2,1.4L9.2,53.3l5.5-0.3c0.4,0,0.8,0.2,1,0.6l3.5,7.3l8.6-12c0.3-0.5,1-0.6,1.5-0.2
		c0.5,0.3,0.6,1,0.2,1.5l-9.6,13.5C19.7,63.8,19.4,64,19,64z"/>
	<path d="M45,64c-0.3,0-0.7-0.2-0.9-0.4l-9.6-13.5c-0.3-0.5-0.2-1.1,0.2-1.5c0.5-0.3,1.1-0.2,1.5,0.2l8.6,12l3.5-7.3
		c0.2-0.4,0.6-0.6,1-0.6l5.5,0.3l-7.5-10.5c-0.3-0.5-0.2-1.1,0.3-1.5c0.5-0.3,1.1-0.2,1.4,0.2l8.8,12.3c0.3,0.5,0.2,1.1-0.2,1.5
		c-0.2,0.1-0.4,0.2-0.7,0.2l-7-0.4l-4,8.2C45.7,63.7,45.4,64,45,64L45,64z"/>
</g>
</svg>
