<?xml version="1.0" encoding="utf-8"?>
<!-- Generator: Adobe Illustrator 24.1.0, SVG Export Plug-In . SVG Version: 6.00 Build 0)  -->
<svg version="1.1" id="bd485011-47d2-4b83-a5ba-bc083d25b804"
	 xmlns="http://www.w3.org/2000/svg" xmlns:xlink="http://www.w3.org/1999/xlink" x="0px" y="0px" viewBox="0 0 64 64"
	 style="enable-background:new 0 0 64 64;" xml:space="preserve">
<g>
	<path d="M0.9,6.8C0.4,6.8,0,7.2,0,7.7v55.4C0,63.6,0.4,64,0.9,64c0,0,0,0,0,0h62.2c0.5,0,0.9-0.4,0.9-0.9V7.7
		c0-0.5-0.4-0.9-0.9-0.9h-5.9V3.6c0-2-1.6-3.6-3.6-3.6c-2,0-3.6,1.6-3.6,3.6l0,0v3.2h-3.6V3.6c0-2-1.7-3.6-3.7-3.5
		c-1.9,0-3.5,1.6-3.5,3.5v3.2h-3.6V3.6C35.6,1.6,34,0,32,0c-2,0-3.6,1.6-3.6,3.6v3.2h-3.6V3.6c0-2-1.7-3.6-3.7-3.5
		c-1.9,0-3.5,1.6-3.5,3.5v3.2H14V3.6c0-2-1.7-3.6-3.7-3.5c-1.9,0-3.5,1.6-3.5,3.5v3.2H0.9z M62.2,62.2H1.8V8.6h4.9v3.1
		c0,2,1.7,3.6,3.7,3.5c1.9,0,3.5-1.6,3.5-3.5V8.6h3.6v3.1c0,2,1.7,3.6,3.7,3.5c1.9,0,3.5-1.6,3.5-3.5V8.6h3.6v3.1
		c0,2,1.6,3.6,3.6,3.6c2,0,3.6-1.6,3.6-3.6V8.6h3.6v3.1c0,2,1.7,3.6,3.7,3.5c1.9,0,3.5-1.6,3.5-3.5V8.6H50v3.1c0,2,1.6,3.6,3.6,3.6
		c2,0,3.6-1.6,3.6-3.6V8.6h4.9L62.2,62.2z M53.6,13.5c-1,0-1.8-0.8-1.8-1.8V3.6c0-1,0.8-1.8,1.8-1.8c1,0,1.8,0.8,1.8,1.8v8.1
		C55.4,12.7,54.6,13.5,53.6,13.5z M42.8,13.5c-1,0-1.8-0.8-1.8-1.8V3.6c0-1,0.9-1.8,1.9-1.7c0.9,0,1.7,0.8,1.7,1.7v8.1
		C44.6,12.7,43.8,13.5,42.8,13.5z M32,13.5c-1,0-1.8-0.8-1.8-1.8V3.6c0-1,0.8-1.8,1.8-1.8c1,0,1.8,0.8,1.8,1.8v8.1
		C33.8,12.7,33,13.5,32,13.5L32,13.5z M21.2,13.5c-1,0-1.8-0.8-1.8-1.8V3.6c0-1,0.8-1.8,1.8-1.8c1,0,1.8,0.8,1.8,1.8v8.1
		C23,12.7,22.2,13.5,21.2,13.5L21.2,13.5z M10.4,13.5c-1,0-1.8-0.8-1.8-1.8V3.6c0-1,0.8-1.8,1.8-1.8c1,0,1.8,0.8,1.8,1.8v8.1
		C12.2,12.7,11.4,13.5,10.4,13.5L10.4,13.5z"/>
	<path d="M13.1,23.9H7.7c-0.7,0-1.4,0.6-1.4,1.4v5.4c0,0.7,0.6,1.4,1.4,1.4h5.4c0.7,0,1.4-0.6,1.4-1.4v-5.4
		C14.4,24.5,13.8,23.9,13.1,23.9z"/>
	<path d="M23.9,23.9h-5.4c-0.7,0-1.4,0.6-1.4,1.4v5.4c0,0.7,0.6,1.4,1.4,1.4h5.4c0.7,0,1.4-0.6,1.4-1.3c0,0,0,0,0,0v-5.4
		C25.2,24.5,24.6,23.9,23.9,23.9C23.9,23.9,23.9,23.9,23.9,23.9z"/>
	<path d="M34.7,23.9h-5.4c-0.7,0-1.4,0.6-1.4,1.4v5.4c0,0.7,0.6,1.4,1.4,1.4h5.4c0.7,0,1.4-0.6,1.4-1.4v-5.4
		C36.1,24.5,35.4,23.9,34.7,23.9z"/>
	<path d="M45.5,23.9h-5.4c-0.7,0-1.4,0.6-1.4,1.4v5.4c0,0.7,0.6,1.4,1.4,1.4h5.4c0.7,0,1.4-0.6,1.4-1.4v-5.4
		C46.9,24.5,46.3,23.9,45.5,23.9z"/>
	<path d="M56.3,23.9h-5.4c-0.7,0-1.4,0.6-1.4,1.4v5.4c0,0.7,0.6,1.4,1.4,1.4h5.4c0.7,0,1.4-0.6,1.4-1.4v-5.4
		C57.7,24.5,57.1,23.9,56.3,23.9z"/>
	<path d="M13.1,34.7H7.7c-0.7,0-1.4,0.6-1.4,1.4v5.4c0,0.7,0.6,1.4,1.4,1.4h5.4c0.7,0,1.4-0.6,1.4-1.4V36
		C14.4,35.3,13.8,34.7,13.1,34.7z"/>
	<path d="M23.9,34.7h-5.4c-0.7,0-1.4,0.6-1.4,1.4v5.4c0,0.7,0.6,1.4,1.4,1.4h5.4c0.7,0,1.4-0.6,1.4-1.3c0,0,0,0,0,0V36
		C25.2,35.3,24.6,34.7,23.9,34.7C23.9,34.7,23.9,34.7,23.9,34.7z"/>
	<path d="M34.7,34.7h-5.4c-0.7,0-1.4,0.6-1.4,1.4v5.4c0,0.7,0.6,1.4,1.4,1.4h5.4c0.7,0,1.4-0.6,1.4-1.4V36
		C36.1,35.3,35.4,34.7,34.7,34.7z"/>
	<path d="M45.5,34.7h-5.4c-0.7,0-1.4,0.6-1.4,1.4v5.4c0,0.7,0.6,1.4,1.4,1.4h5.4c0.7,0,1.4-0.6,1.4-1.4V36
		C46.9,35.3,46.3,34.7,45.5,34.7z"/>
	<path d="M56.3,34.7h-5.4c-0.7,0-1.4,0.6-1.4,1.4v5.4c0,0.7,0.6,1.4,1.3,1.4c0,0,0,0,0,0h5.4c0.7,0,1.4-0.6,1.4-1.4V36
		C57.7,35.3,57.1,34.7,56.3,34.7z"/>
	<path d="M13.1,45.5H7.7c-0.7,0-1.4,0.6-1.4,1.4v5.4c0,0.7,0.6,1.4,1.4,1.4h5.4c0.7,0,1.4-0.6,1.4-1.4v-5.4
		C14.4,46.1,13.8,45.5,13.1,45.5z"/>
	<path d="M23.9,45.5h-5.4c-0.7,0-1.4,0.6-1.4,1.4v5.4c0,0.7,0.6,1.4,1.4,1.4h5.4c0.7,0,1.4-0.6,1.4-1.3c0,0,0,0,0,0v-5.4
		C25.2,46.1,24.6,45.5,23.9,45.5C23.9,45.5,23.9,45.5,23.9,45.5z"/>
	<path d="M34.7,45.5h-5.4c-0.7,0-1.4,0.6-1.4,1.4v5.4c0,0.7,0.6,1.4,1.4,1.4h5.4c0.7,0,1.4-0.6,1.4-1.4v-5.4
		C36.1,46.1,35.4,45.5,34.7,45.5z"/>
	<path d="M45.5,45.5h-5.4c-0.7,0-1.4,0.6-1.4,1.4v5.4c0,0.7,0.6,1.4,1.4,1.4h5.4c0.7,0,1.4-0.6,1.4-1.4v-5.4
		C46.9,46.1,46.3,45.5,45.5,45.5z"/>
</g>
</svg>
