<svg aria-hidden="true" style="position: absolute; width: 0; height: 0; overflow: hidden;" version="1.1" xmlns="http://www.w3.org/2000/svg" >
<defs>
<symbol id="icon-no-fees" viewBox="0 0 64 64" style="fill:#000">
<title>no-fees</title>
<path d="M31.403 10.951c-6.286-0.014-12.316 2.532-16.683 7.068-0.299 0.313-0.299 0.796 0.014 1.095l11.349 11.349c-0.796 0.171-1.436 0.526-1.906 1.095-0.683 0.782-1.024 1.963-1.024 3.513s0.341 2.702 1.038 3.456c0.697 0.754 1.764 1.124 3.214 1.124 0.512 0 1.038-0.057 1.536-0.185 0.398-0.085 0.796-0.242 1.152-0.455 0.284-0.185 0.427-0.341 0.427-0.469-0.028-0.185-0.1-0.37-0.213-0.526-0.142-0.228-0.27-0.341-0.398-0.341-0.142 0.043-0.27 0.1-0.398 0.185-0.284 0.142-0.583 0.27-0.882 0.37-0.412 0.128-0.825 0.185-1.252 0.185-0.853 0-1.493-0.228-1.92-0.683s-0.683-1.152-0.74-2.119h5.476c0.1 0 0.228-0.085 0.37-0.27 0.057-0.071 0.114-0.142 0.142-0.228l1.835 1.835c0.171 0.654 0.441 1.18 0.825 1.593 0.427 0.469 1.010 0.782 1.735 0.967l10.823 10.823c-3.968 3.598-9.145 5.575-14.507 5.561-11.947 0-21.675-9.728-21.675-21.675-0.014-4.665 1.493-9.216 4.295-12.956 0.242-0.341 0.171-0.811-0.156-1.067-0.341-0.27-0.825-0.213-1.095 0.128-3.001 4.011-4.622 8.875-4.608 13.895 0 12.814 10.425 23.239 23.239 23.239 6.044 0.014 11.847-2.332 16.185-6.556 0.028-0.028 0.043-0.043 0.057-0.071 0.27-0.341 0.213-0.825-0.114-1.095l-0.085-0.071-10.041-10.041c0.242-0.028 0.469-0.071 0.711-0.128 0.398-0.085 0.796-0.242 1.152-0.455 0.284-0.185 0.427-0.341 0.427-0.469-0.028-0.185-0.1-0.37-0.213-0.526-0.142-0.228-0.27-0.341-0.384-0.341-0.142 0.043-0.27 0.1-0.398 0.185-0.284 0.142-0.569 0.27-0.882 0.37-0.412 0.128-0.825 0.185-1.252 0.185-0.128 0-0.242 0-0.356-0.014l-2.276-2.304c-0.028-0.171-0.043-0.341-0.057-0.526h5.476c0.1 0 0.228-0.085 0.37-0.27 0.114-0.128 0.185-0.27 0.213-0.441 0-1.479-0.299-2.603-0.896-3.371s-1.493-1.152-2.674-1.152c-1.337 0-2.332 0.398-3.015 1.195-0.597 0.697-0.939 1.678-1.010 2.958l-1.92-1.906c-0.142-0.427-0.341-0.796-0.583-1.095-0.384-0.498-0.896-0.825-1.522-1.010l-11.947-11.947c4.025-3.897 9.415-6.059 15.019-6.044 11.947 0 21.675 9.728 21.675 21.675 0.014 4.85-1.607 9.557-4.608 13.369-0.27 0.341-0.213 0.825 0.128 1.095s0.825 0.213 1.095-0.128c3.228-4.082 4.964-9.131 4.949-14.336 0-12.814-10.425-23.239-23.239-23.239zM36.324 31.602c1.394 0 2.076 0.91 2.076 2.745h-4.508c0.128-1.82 0.939-2.745 2.432-2.745zM29.227 34.347h-4.508c0.128-1.835 0.939-2.745 2.432-2.745h0.085l1.934 1.934c0.028 0.256 0.057 0.526 0.057 0.811z"></path>
<path d="M17.479 31.588c0.057 0.085 0.156 0.128 0.256 0.128h0.697v7.467c0 0.256 0.228 0.384 0.697 0.384h0.071c0.469 0 0.697-0.128 0.697-0.384v-7.467h1.508c0.1 0.014 0.213-0.028 0.27-0.114 0.057-0.128 0.085-0.256 0.085-0.398v-0.213c0.014-0.142-0.014-0.27-0.085-0.398-0.057-0.085-0.171-0.128-0.27-0.128h-1.508v-1.508c0-0.526 0.085-0.868 0.242-1.038 0.185-0.171 0.441-0.27 0.697-0.256 0.171 0 0.327 0.014 0.498 0.043 0.085 0.028 0.171 0.043 0.256 0.043 0.1 0 0.185-0.114 0.256-0.327 0.057-0.156 0.1-0.327 0.1-0.498 0-0.341-0.427-0.526-1.266-0.526-0.569-0.014-1.109 0.171-1.564 0.512s-0.683 0.967-0.683 1.877v1.65h-0.697c-0.1-0.014-0.199 0.043-0.256 0.128-0.071 0.128-0.1 0.256-0.085 0.398v0.213c-0.014 0.156 0.014 0.299 0.085 0.412zM45.326 38.101c-0.284 0.213-0.711 0.327-1.266 0.327-0.327 0-0.668-0.043-0.981-0.156-0.256-0.085-0.512-0.199-0.74-0.341-0.1-0.071-0.213-0.142-0.327-0.185-0.114 0-0.242 0.114-0.384 0.356-0.114 0.156-0.185 0.327-0.213 0.526 0 0.142 0.128 0.299 0.37 0.469 0.313 0.199 0.654 0.356 1.010 0.441 0.455 0.128 0.91 0.185 1.38 0.185 0.54 0 1.067-0.114 1.55-0.356 0.455-0.213 0.839-0.555 1.109-0.967s0.412-0.896 0.412-1.38c0-0.796-0.242-1.408-0.711-1.835s-1.166-0.796-2.062-1.095c-0.526-0.171-0.882-0.356-1.067-0.54-0.177-0.19-0.286-0.446-0.286-0.728 0-0.019 0.001-0.038 0.002-0.057l-0 0.003c-0.014-0.341 0.156-0.668 0.427-0.853 0.327-0.213 0.711-0.327 1.109-0.313 0.384-0.014 0.768 0.057 1.124 0.213 0.27 0.142 0.427 0.228 0.455 0.228 0.1 0 0.228-0.114 0.356-0.356 0.114-0.171 0.185-0.37 0.199-0.583 0-0.199-0.228-0.37-0.697-0.526-0.512-0.156-1.052-0.228-1.593-0.228-0.512-0.014-1.024 0.1-1.479 0.327-0.412 0.199-0.768 0.512-1.024 0.896s-0.384 0.839-0.37 1.308c-0.014 0.469 0.1 0.953 0.327 1.365 0.199 0.341 0.484 0.612 0.825 0.811 0.398 0.213 0.811 0.398 1.252 0.526 0.469 0.142 0.91 0.356 1.308 0.626l0.1 0.1c0.455 0.512 0.412 1.323-0.114 1.792z"></path>
</symbol>
<symbol id="icon-transfer-90" viewBox="0 0 64 64">
<title>transfer-90</title>
<path d="M52.892 12.956h-11.748c-0.341 0.014-0.597 0.284-0.597 0.626 0 0.156 0.057 0.299 0.171 0.398l3.428 3.428c0.114 0.114 0.114 0.299 0 0.412l-6.13 6.144c-0.242 0.228-0.242 0.612-0.014 0.853s0.612 0.242 0.853 0.014l6.798-6.798c0.228-0.242 0.228-0.612 0-0.853l-2.532-2.532c-0.114-0.114-0.114-0.299 0-0.412 0.057-0.057 0.142-0.085 0.213-0.085h8.661c0.156 0 0.299 0.128 0.299 0.299v8.661c0 0.114-0.071 0.228-0.185 0.27-0.028 0.014-0.071 0.028-0.114 0.028-0.071 0-0.156-0.028-0.213-0.085l-2.532-2.532c-0.111-0.106-0.261-0.171-0.427-0.171s-0.316 0.065-0.427 0.171l0-0-6.784 6.798c-0.242 0.228-0.242 0.612-0.014 0.853s0.612 0.242 0.853 0.014l6.144-6.144c0.057-0.057 0.128-0.085 0.213-0.085 0.071 0 0.156 0.028 0.213 0.085l3.428 3.428c0.114 0.114 0.27 0.185 0.427 0.185 0.085 0 0.156-0.014 0.228-0.043 0.228-0.1 0.37-0.327 0.37-0.569v-11.762c0.014-0.313-0.228-0.583-0.555-0.597h-0.028zM53.504 30.222v9.941c-0.014 0.341-0.284 0.597-0.626 0.597-0.156 0-0.299-0.057-0.412-0.171l-2.987-2.987c-0.114-0.114-0.299-0.114-0.412 0l-5.689 5.689c-0.256 0.213-0.64 0.171-0.853-0.1-0.171-0.228-0.171-0.54 0-0.754l6.329-6.315c0.242-0.228 0.612-0.228 0.853 0l2.076 2.076c0.114 0.114 0.299 0.114 0.412 0 0.057-0.057 0.085-0.128 0.085-0.213v-6.855c0-0.156-0.128-0.299-0.299-0.299h-6.855c-0.114 0-0.228 0.071-0.27 0.185-0.014 0.043-0.028 0.071-0.028 0.114 0 0.071 0.028 0.156 0.085 0.213l2.076 2.076c0.228 0.242 0.228 0.612 0 0.853l-3.612 3.612c-0.228 0.242-0.612 0.242-0.853 0.014-0.114-0.114-0.185-0.27-0.185-0.441 0-0.156 0.071-0.313 0.185-0.427l2.987-2.987c0.114-0.114 0.114-0.299 0-0.412l-2.987-2.987c-0.242-0.242-0.242-0.612 0-0.853 0.114-0.114 0.27-0.185 0.427-0.185h9.956c0.327 0.014 0.583 0.284 0.597 0.612zM28.117 14.35c-0.014 0.043-0.028 0.071-0.028 0.114 0 0.085 0.028 0.156 0.085 0.213l2.076 2.076c0.228 0.242 0.228 0.612 0 0.853l-6.329 6.329c-0.228 0.242-0.612 0.27-0.853 0.043s-0.27-0.612-0.043-0.853l5.732-5.732c0.114-0.114 0.114-0.299 0-0.412l-2.987-2.987c-0.242-0.228-0.242-0.612 0-0.853 0.114-0.114 0.27-0.185 0.427-0.185h9.927c0.341 0 0.612 0.27 0.612 0.597v9.956c-0.014 0.341-0.284 0.597-0.626 0.597-0.156 0-0.299-0.057-0.412-0.171l-2.987-2.972c-0.114-0.114-0.299-0.114-0.412 0l-2.987 2.972c-0.228 0.242-0.612 0.242-0.853 0.014s-0.242-0.612-0.014-0.853l3.627-3.627c0.242-0.228 0.612-0.228 0.853 0l2.076 2.076c0.114 0.114 0.299 0.114 0.412 0 0.057-0.057 0.085-0.128 0.085-0.213v-6.855c0-0.156-0.128-0.299-0.299-0.299h-6.827c-0.114-0.014-0.213 0.057-0.256 0.171z"></path>
<path d="M19.086 27.676c1.081 0 2.148 0.242 3.115 0.725s1.764 1.252 2.375 2.304 0.924 2.418 0.924 4.053c0 3.086-0.683 5.561-2.076 7.367s-2.859 3.1-4.409 3.812-2.603 1.067-3.129 1.067c-0.299 0-0.583-0.156-0.74-0.412-0.199-0.299-0.37-0.626-0.469-0.967-0.1-0.284-0.142-0.569-0.156-0.868-0.014-0.142 0.014-0.284 0.071-0.412 0.071-0.085 0.171-0.142 0.284-0.156 1.351-0.37 2.603-1.052 3.655-1.991 1.024-0.91 1.806-2.062 2.247-3.371-0.839 0.455-1.764 0.683-2.716 0.668-0.825-0.014-1.65-0.213-2.389-0.569-0.853-0.412-1.579-1.067-2.091-1.863-0.583-0.853-0.868-1.977-0.868-3.328 0-1.394 0.313-2.546 0.924-3.442 0.583-0.882 1.408-1.564 2.375-1.991s2.005-0.64 3.072-0.626zM19.214 36.338c0.654 0 1.365-0.228 2.148-0.654 0.014-0.27 0.028-0.683 0.028-1.252 0-1.266-0.213-2.19-0.64-2.745-0.384-0.54-1.024-0.868-1.692-0.839-0.64-0.014-1.252 0.284-1.65 0.782-0.441 0.526-0.668 1.195-0.668 2.005s0.228 1.479 0.654 1.977 1.052 0.725 1.82 0.725zM19.086 26.695c-1.209 0-2.389 0.242-3.499 0.725-1.124 0.498-2.091 1.308-2.773 2.347-0.725 1.067-1.095 2.418-1.095 3.996 0 1.55 0.341 2.859 1.038 3.868 0.612 0.939 1.479 1.692 2.489 2.19 0.868 0.427 1.835 0.654 2.802 0.668 0.256 0 0.512-0.014 0.768-0.043-0.284 0.37-0.597 0.711-0.939 1.010-0.939 0.825-2.048 1.436-3.243 1.764-0.356 0.071-0.668 0.284-0.868 0.583-0.156 0.284-0.242 0.597-0.228 0.924 0.014 0.398 0.085 0.782 0.213 1.152 0.128 0.441 0.327 0.868 0.597 1.252 0.341 0.512 0.91 0.825 1.536 0.839 0.469 0 1.28-0.142 3.527-1.166 1.692-0.782 3.314-2.162 4.779-4.096 1.508-1.991 2.276-4.665 2.276-7.979 0-1.82-0.356-3.356-1.052-4.551-0.711-1.223-1.65-2.133-2.788-2.702-1.095-0.526-2.304-0.796-3.541-0.782zM19.214 35.356c-0.668 0-0.939-0.228-1.095-0.398-0.27-0.299-0.398-0.725-0.398-1.308s0.142-1.024 0.427-1.365c0.213-0.284 0.54-0.455 0.896-0.441 0.37-0.014 0.711 0.156 0.924 0.455 0.156 0.228 0.441 0.782 0.441 2.148v0.64c-0.37 0.156-0.782 0.256-1.195 0.27z"></path>
<path d="M33.707 27.634c1.337 0 2.489 0.384 3.442 1.152s1.692 1.892 2.204 3.342 0.768 3.2 0.768 5.22c0 2.020-0.256 3.769-0.768 5.22s-1.252 2.574-2.204 3.342-2.105 1.152-3.442 1.152-2.489-0.384-3.442-1.152-1.692-1.892-2.204-3.342-0.768-3.2-0.768-5.22 0.256-3.769 0.768-5.22 1.252-2.574 2.204-3.342 2.091-1.152 3.442-1.152zM33.707 43.904c0.754 0 1.351-0.555 1.749-1.65s0.612-2.731 0.612-4.892-0.213-3.783-0.612-4.892-0.996-1.65-1.749-1.65-1.351 0.555-1.749 1.65-0.612 2.731-0.612 4.892 0.213 3.783 0.612 4.892 0.996 1.65 1.749 1.65zM33.707 26.652c-1.564 0-2.93 0.469-4.068 1.38-1.109 0.882-1.948 2.162-2.532 3.783-0.555 1.55-0.839 3.428-0.839 5.561s0.284 3.996 0.839 5.561c0.569 1.636 1.422 2.901 2.532 3.783 1.124 0.91 2.503 1.38 4.068 1.38s2.93-0.469 4.053-1.38c1.109-0.882 1.948-2.162 2.532-3.783 0.555-1.564 0.839-3.428 0.839-5.561s-0.284-3.996-0.839-5.561c-0.583-1.621-1.422-2.901-2.532-3.783-1.152-0.924-2.588-1.408-4.053-1.38zM33.707 42.923c-0.384 0-0.668-0.555-0.839-1.024-0.37-0.996-0.555-2.517-0.555-4.551s0.185-3.556 0.555-4.551c0.171-0.469 0.455-1.024 0.839-1.024s0.654 0.555 0.839 1.024c0.37 0.996 0.555 2.532 0.555 4.551s-0.185 3.556-0.555 4.551c-0.185 0.484-0.469 1.024-0.839 1.024z"></path>
</symbol>
<symbol id="icon-affordable-costs" viewBox="0 0 64 64">
<title>affordable-costs</title>
<path d="M43.191 38.751c0.066-0.098 0.106-0.219 0.106-0.349 0-0.217-0.11-0.408-0.277-0.521l-0.002-0.001c-1.176-0.795-2.626-1.269-4.186-1.269-4.163 0-7.538 3.375-7.538 7.538s3.375 7.538 7.538 7.538c4.163 0 7.538-3.375 7.538-7.538 0-1.553-0.47-2.997-1.275-4.196l0.017 0.027c-0.114-0.17-0.306-0.28-0.523-0.28-0.347 0-0.629 0.282-0.629 0.629 0 0.13 0.039 0.251 0.107 0.351l-0.001-0.002c0.656 0.976 1.047 2.178 1.047 3.472 0 3.469-2.812 6.281-6.281 6.281s-6.281-2.812-6.281-6.281c0-3.469 2.812-6.281 6.281-6.281 1.3 0 2.509 0.395 3.511 1.072l-0.022-0.014c0.098 0.066 0.219 0.105 0.349 0.105 0.217 0 0.408-0.11 0.522-0.277l0.001-0.002z"></path>
<path d="M38.827 34.096c-5.55 0.006-10.047 4.504-10.054 10.053v0.001c0 0.008-0 0.018-0 0.028 0 2.303 0.781 4.423 2.093 6.11l-0.017-0.022c0.116 0.135 0.287 0.221 0.478 0.221 0.347 0 0.629-0.281 0.629-0.629 0-0.134-0.042-0.258-0.113-0.359l0.001 0.002c-1.134-1.456-1.818-3.312-1.818-5.327 0-0.010 0-0.020 0-0.029v0.002c0.001-4.857 3.939-8.795 8.796-8.795s8.796 3.938 8.796 8.796-3.938 8.796-8.796 8.796c-2.023 0-3.887-0.683-5.374-1.832l0.020 0.015c-0.105-0.081-0.238-0.13-0.383-0.13-0.347 0-0.628 0.281-0.628 0.628 0 0.202 0.096 0.382 0.244 0.497l0.001 0.001c1.664 1.296 3.785 2.078 6.087 2.078 0.010 0 0.020 0 0.030-0h-0.002c5.502-0.068 9.935-4.543 9.935-10.054s-4.434-9.987-9.929-10.054l-0.006-0z"></path>
<path d="M48.883 26.556c-0.001 0-0.002 0-0.003 0-3.68 0-6.744 2.637-7.405 6.124l-0.007 0.047c-0.007 0.034-0.010 0.073-0.010 0.113 0 0.307 0.219 0.562 0.51 0.617l0.004 0.001c0.034 0.006 0.073 0.010 0.113 0.010 0.001 0 0.002 0 0.003 0h-0c0.307-0.001 0.562-0.22 0.617-0.511l0.001-0.004c0.56-2.945 3.114-5.141 6.181-5.141 1.301 0 2.51 0.395 3.512 1.072l-0.022-0.014c0.095 0.061 0.211 0.097 0.335 0.097 0.347 0 0.629-0.281 0.629-0.629 0-0.21-0.103-0.397-0.262-0.511l-0.002-0.001c-1.173-0.796-2.621-1.27-4.179-1.27-0.004 0-0.009 0-0.013 0h0.001z"></path>
<path d="M50.027 40.277c-0.292 0.058-0.51 0.312-0.51 0.617 0 0.345 0.278 0.625 0.622 0.629h0c0.001 0 0.002 0 0.003 0 0.039 0 0.077-0.004 0.114-0.011l-0.004 0.001c3.536-0.668 6.174-3.733 6.174-7.413 0-1.556-0.471-3.001-1.279-4.202l0.017 0.027c-0.115-0.162-0.302-0.266-0.513-0.266-0.347 0-0.629 0.281-0.629 0.629 0 0.123 0.035 0.238 0.097 0.335l-0.002-0.003c0.657 0.977 1.048 2.181 1.048 3.476 0 3.067-2.196 5.62-5.101 6.175l-0.039 0.006z"></path>
<path d="M48.883 24.043c-4.838 0.011-8.875 3.427-9.841 7.978l-0.012 0.066c-0.044 0.222-0.083 0.445-0.112 0.67-0.005 0.029-0.008 0.063-0.008 0.097 0 0.347 0.281 0.629 0.629 0.629 0.323 0 0.589-0.243 0.624-0.556l0-0.003c0.026-0.198 0.060-0.394 0.098-0.586 0.849-4.043 4.385-7.035 8.619-7.035 4.859 0 8.798 3.939 8.798 8.798 0 4.235-2.992 7.771-6.978 8.609l-0.057 0.010c-0.193 0.040-0.39 0.073-0.587 0.098-0.309 0.043-0.544 0.306-0.544 0.623 0 0.346 0.28 0.628 0.627 0.629h0c0.013 0.001 0.027 0.002 0.042 0.002s0.029-0.001 0.044-0.002l-0.002 0c0.226-0.030 0.449-0.068 0.67-0.112 4.632-0.96 8.064-5.007 8.064-9.856 0-5.553-4.502-10.055-10.055-10.055-0.007 0-0.013 0-0.020 0h0.001z"></path>
<path d="M38.827 38.511c0.453 0.001 0.821 0.369 0.821 0.822 0 0 0 0 0 0v0 0.124c-0 0.001-0 0.003-0 0.005 0 0.065 0.044 0.121 0.104 0.137l0.001 0c1.158 0.321 1.823 1.28 1.823 2.628 0 0.454-0.368 0.822-0.822 0.822s-0.822-0.368-0.822-0.822v0c0-0.569-0.134-1.105-1.105-1.105s-1.106 0.531-1.106 1.105c0 0.498 0.439 0.744 1.442 1.183s2.418 1.060 2.418 2.672c0 1.35-0.666 2.307-1.823 2.628-0.061 0.017-0.105 0.072-0.105 0.137 0 0.002 0 0.003 0 0.005v-0 0.125c0 0.010 0.001 0.022 0.001 0.034 0 0.454-0.368 0.822-0.822 0.822s-0.822-0.368-0.822-0.822c0-0.012 0-0.024 0.001-0.036l-0 0.002v-0.125c0-0.002 0-0.003 0-0.005 0-0.065-0.044-0.12-0.103-0.137l-0.001-0c-1.159-0.321-1.823-1.28-1.823-2.628-0-0.010-0.001-0.022-0.001-0.034 0-0.454 0.368-0.822 0.822-0.822s0.822 0.368 0.822 0.822c0 0.012-0 0.024-0.001 0.036l0-0.002c0 0.569 0.135 1.105 1.106 1.105 0.569 0 1.105-0.134 1.105-1.105 0-0.488-0.435-0.731-1.432-1.168-1.021-0.449-2.418-1.065-2.418-2.688 0-1.35 0.664-2.307 1.823-2.628 0.060-0.017 0.104-0.072 0.104-0.137 0-0.002-0-0.004-0-0.005v0-0.124c0-0.454 0.368-0.822 0.822-0.822v0z"></path>
<path d="M49.219 33.368c-1.003-0.439-1.442-0.685-1.442-1.183 0-0.569 0.135-1.105 1.106-1.105s1.106 0.53 1.106 1.105c-0 0.010-0.001 0.022-0.001 0.034 0 0.454 0.368 0.822 0.822 0.822s0.822-0.368 0.822-0.822c0-0.012-0-0.024-0.001-0.036l0 0.002c0-1.35-0.666-2.308-1.823-2.628-0.060-0.017-0.104-0.072-0.104-0.137 0-0.002 0-0.004 0-0.006v0-0.117c0-0.454-0.368-0.822-0.822-0.822s-0.822 0.368-0.822 0.822v0 0.124c0 0.002 0 0.003 0 0.005 0 0.065-0.044 0.12-0.103 0.137l-0.001 0c-1.158 0.32-1.823 1.28-1.823 2.628 0 1.623 1.401 2.239 2.418 2.688 0.996 0.437 1.432 0.68 1.432 1.166 0 0.973-0.532 1.106-1.106 1.106-0.971 0-1.106-0.532-1.106-1.106 0-0.001 0-0.002 0-0.003 0-0.452-0.367-0.819-0.819-0.819-0.302 0-0.566 0.163-0.708 0.406l-0.002 0.004c1.257 1.095 2.262 2.446 2.938 3.974l0.029 0.072c0.291-0.131 0.491-0.418 0.492-0.752v-0.125c-0-0.002-0-0.003-0-0.005 0-0.065 0.044-0.12 0.103-0.137l0.001-0c1.158-0.321 1.823-1.28 1.823-2.63-0.001-1.603-1.391-2.214-2.409-2.662z"></path>
<path d="M29.013 23.735c0.453 0.001 0.821 0.369 0.821 0.822 0 0 0 0 0 0v0 0.124c-0 0.002-0 0.003-0 0.005 0 0.065 0.044 0.12 0.103 0.137l0.001 0c1.159 0.32 1.823 1.28 1.823 2.628 0 0.010 0.001 0.022 0.001 0.034 0 0.454-0.368 0.822-0.822 0.822s-0.822-0.368-0.822-0.822c0-0.012 0-0.024 0.001-0.036l-0 0.002c0-0.569-0.134-1.105-1.105-1.105s-1.107 0.53-1.107 1.105c0 0.498 0.439 0.744 1.441 1.183s2.418 1.060 2.418 2.671c0 1.35-0.664 2.308-1.823 2.63-0.060 0.017-0.104 0.072-0.104 0.137 0 0.002 0 0.004 0 0.005v-0 0.125c0 0.010 0.001 0.022 0.001 0.034 0 0.454-0.368 0.822-0.822 0.822s-0.822-0.368-0.822-0.822c0-0.012 0-0.024 0.001-0.036l-0 0.002v-0.125c0-0.002 0-0.003 0-0.005 0-0.065-0.044-0.12-0.103-0.137l-0.001-0c-1.159-0.321-1.823-1.28-1.823-2.63 0.019-0.439 0.379-0.788 0.821-0.788s0.802 0.349 0.821 0.786l0 0.002c0 0.569 0.134 1.107 1.107 1.107 0.569 0 1.105-0.134 1.105-1.107 0-0.486-0.437-0.73-1.432-1.166-1.023-0.449-2.418-1.065-2.418-2.688 0-1.35 0.664-2.308 1.823-2.628 0.060-0.017 0.104-0.072 0.104-0.137 0-0.002-0-0.004-0-0.006v0-0.124c0-0.454 0.368-0.822 0.822-0.822v0z"></path>
<path d="M15.528 28.554c0.454 0 0.822 0.368 0.822 0.822s-0.368 0.822-0.822 0.822c-0.454 0-0.822-0.368-0.822-0.822 0-0 0-0.001 0-0.002v0c0.001-0.453 0.369-0.821 0.822-0.821 0 0 0 0 0 0v0z"></path>
<path d="M51.181 16.027c0 0 0 0 0 0 0.453 0 0.821 0.367 0.822 0.821v5.547c-0.452-0.139-1.007-0.264-1.574-0.35l-0.068-0.009v-4.224c0-0.079-0.064-0.142-0.142-0.142v0h-42.396c-0.079 0-0.142 0.064-0.142 0.142v0 23.127c0 0.079 0.064 0.142 0.142 0.142v0h18.5c-0.11 0.465-0.198 1.025-0.247 1.597l-0.003 0.045h-19.217c-0.454 0-0.822-0.368-0.822-0.822v0-25.054c0.001-0.453 0.369-0.821 0.822-0.821 0 0 0 0 0 0h44.326z"></path>
<path d="M44.436 19.881c0 0 0 0 0 0 0.453 0 0.821 0.367 0.822 0.821v0c0 0.001 0 0.002 0 0.002 0 0.564 0.154 1.091 0.423 1.543l-0.008-0.014c-0.627 0.152-1.155 0.323-1.666 0.528l0.082-0.029c-0.157-0.315-0.286-0.681-0.367-1.064l-0.005-0.031c-0.014-0.065-0.071-0.114-0.139-0.114-0.001 0-0.002 0-0.003 0h-8.782c-0.062 0-0.114 0.040-0.133 0.096l-0 0.001c-0.005 0.014-0.008 0.030-0.008 0.046 0 0.046 0.022 0.087 0.056 0.113l0 0c1.797 1.355 3.086 3.299 3.584 5.54l0.012 0.063c-0.632 0.933-1.154 2.011-1.51 3.161l-0.023 0.086c0.064-0.376 0.1-0.809 0.1-1.25 0-4.333-3.513-7.846-7.846-7.846s-7.846 3.513-7.846 7.846c0 3.959 2.932 7.233 6.743 7.769l0.041 0.005c-0.063 0.098-0.125 0.199-0.188 0.301l-0.057 0.1c-0.080 0.142-0.142 0.252-0.205 0.36l-0.060 0.114-0.027 0.054c-0.050 0.095-0.104 0.199-0.156 0.304l-0.075 0.155-0.018 0.041-0.010 0.021c-0.040 0.084-0.080 0.171-0.119 0.259h-13.444c-0.454 0-0.822-0.368-0.822-0.822v0c-0.005-1.672-1.36-3.025-3.032-3.026h-0c-0.454 0-0.822-0.368-0.822-0.822v-9.636c0-0.454 0.368-0.822 0.822-0.822v0c1.674-0.002 3.031-1.359 3.032-3.033v-0c0.001-0.453 0.369-0.821 0.822-0.821 0 0 0 0 0 0h30.835zM14.467 37.232h8.782c0.063-0 0.116-0.041 0.135-0.097l0-0.001c0.004-0.013 0.007-0.028 0.007-0.044 0-0.046-0.022-0.087-0.056-0.113l-0-0c-1.152-0.872-2.085-1.969-2.747-3.231l-0.025-0.053c-0.654-1.254-1.037-2.738-1.037-4.311s0.384-3.058 1.062-4.364l-0.025 0.053c0.683-1.317 1.613-2.416 2.738-3.272l0.024-0.017c0.035-0.026 0.057-0.067 0.057-0.114 0-0.079-0.064-0.142-0.142-0.142v0h-8.772c-0.001 0-0.002 0-0.003 0-0.069 0-0.126 0.048-0.139 0.113l-0 0.001c-0.382 1.839-1.806 3.263-3.613 3.641l-0.030 0.005c-0.065 0.014-0.114 0.071-0.114 0.139 0 0.001 0 0.002 0 0.003v-0 7.903c0 0.001 0 0.002 0 0.003 0 0.069 0.048 0.126 0.113 0.139l0.001 0c1.84 0.382 3.265 1.808 3.641 3.618l0.005 0.030c0.014 0.065 0.071 0.114 0.139 0.114 0.001 0 0.002 0 0.003-0h-0z"></path>
</symbol>
<symbol id="icon-calendar" viewBox="0 0 64 64">
<title>calendar</title>
<path d="M13.305 16.119c-0.319 0-0.577 0.259-0.577 0.577v0 35.341c0 0.002-0 0.005-0 0.007 0 0.319 0.258 0.577 0.577 0.577 0 0 0 0 0 0h39.652c0.319 0 0.577-0.258 0.577-0.577v-35.348c0-0.319-0.258-0.577-0.577-0.577v0h-3.733v-2.010c0-1.271-1.030-2.301-2.301-2.301s-2.301 1.030-2.301 2.301v0 2.010h-2.293v-2.010c-0.032-1.247-1.050-2.245-2.302-2.245s-2.27 0.999-2.302 2.242l-0 0.003v2.010h-2.293v-2.010c0-1.271-1.030-2.301-2.301-2.301s-2.301 1.030-2.301 2.301v0 2.010h-2.293v-2.010c-0.032-1.247-1.050-2.245-2.302-2.245s-2.27 0.999-2.302 2.242l-0 0.003v2.010h-2.293v-2.010c-0.032-1.247-1.050-2.245-2.302-2.245s-2.27 0.999-2.302 2.242l-0 0.003v2.010zM52.379 51.46h-38.497v-34.186h3.154v2.008c0.032 1.247 1.050 2.245 2.302 2.245s2.27-0.999 2.302-2.242l0-0.003v-2.008h2.293v2.008c0.032 1.247 1.050 2.245 2.302 2.245s2.27-0.999 2.302-2.242l0-0.003v-2.008h2.293v2.008c0 1.271 1.030 2.301 2.301 2.301s2.301-1.030 2.301-2.301v0-2.008h2.293v2.008c0.032 1.247 1.050 2.245 2.302 2.245s2.27-0.999 2.302-2.242l0-0.003v-2.008h2.293v2.008c0 1.271 1.030 2.301 2.301 2.301s2.301-1.030 2.301-2.301v0-2.008h3.156zM46.922 20.429c-0.633-0.001-1.145-0.514-1.146-1.146v-5.173c0-0.633 0.513-1.146 1.146-1.146s1.146 0.513 1.146 1.146v0 5.173c-0.001 0.633-0.514 1.145-1.146 1.146h-0zM40.027 20.429c-0.633-0.001-1.146-0.513-1.148-1.146v-5.173c0.022-0.616 0.527-1.107 1.147-1.107s1.125 0.491 1.147 1.105l0 0.002v5.173c-0.001 0.633-0.514 1.145-1.146 1.146h-0zM33.131 20.429c-0.633-0.001-1.145-0.514-1.146-1.146v-5.173c0-0.633 0.513-1.146 1.146-1.146s1.146 0.513 1.146 1.146v0 5.173c-0.001 0.63-0.51 1.142-1.139 1.146h-0zM26.234 20.429c-0.633-0.001-1.145-0.514-1.146-1.146v-5.173c0-0.633 0.513-1.146 1.146-1.146s1.146 0.513 1.146 1.146v0 5.173c-0.001 0.633-0.514 1.145-1.146 1.146h-0zM19.339 20.429c-0.633-0.001-1.145-0.514-1.146-1.146v-5.173c0-0.633 0.513-1.146 1.146-1.146s1.146 0.513 1.146 1.146v0 5.173c-0.001 0.632-0.512 1.144-1.143 1.146h-0z"></path>
<path d="M21.063 27.041h-3.449c-0.476 0-0.862 0.386-0.862 0.862v0 3.447c0 0.476 0.386 0.862 0.862 0.862v0h3.449c0.476 0 0.862-0.386 0.862-0.862v0-3.447c0-0.476-0.386-0.862-0.862-0.862v0z"></path>
<path d="M27.958 27.041h-3.447c-0.476 0-0.862 0.386-0.862 0.862v0 3.447c0 0.476 0.386 0.862 0.862 0.862v0h3.447c0 0 0.001 0 0.001 0 0.476 0 0.862-0.386 0.862-0.862 0 0 0 0 0 0v0-3.447c0 0 0 0 0 0 0-0.476-0.386-0.862-0.862-0.862-0 0-0.001 0-0.002 0h0z"></path>
<path d="M34.854 27.041h-3.447c-0.476 0-0.862 0.386-0.862 0.862v0 3.447c0 0.476 0.386 0.862 0.862 0.862v0h3.447c0.476 0 0.862-0.386 0.862-0.862v0-3.447c0-0.476-0.386-0.862-0.862-0.862v0z"></path>
<path d="M41.751 27.041h-3.449c-0.476 0-0.862 0.386-0.862 0.862v0 3.447c0 0.476 0.386 0.862 0.862 0.862h3.449c0.476 0 0.862-0.386 0.862-0.862v0-3.447c0-0.476-0.386-0.862-0.862-0.862v0z"></path>
<path d="M48.64 27.041h-3.442c-0.476 0-0.862 0.386-0.862 0.862v0 3.447c0 0.476 0.386 0.862 0.862 0.862h3.442c0.476 0 0.862-0.386 0.862-0.862v0-3.447c0-0.476-0.386-0.862-0.862-0.862v0z"></path>
<path d="M21.063 33.936h-3.449c-0.476 0-0.862 0.386-0.862 0.862v0 3.449c0 0.476 0.386 0.862 0.862 0.862v0h3.449c0.476 0 0.862-0.386 0.862-0.862v-3.449c0-0.476-0.386-0.862-0.862-0.862v0z"></path>
<path d="M27.958 33.936h-3.447c-0.476 0-0.862 0.386-0.862 0.862v0 3.449c0 0.476 0.386 0.862 0.862 0.862v0h3.447c0 0 0.001 0 0.001 0 0.476 0 0.862-0.386 0.862-0.862 0 0 0 0 0 0v0-3.449c0 0 0 0 0 0 0-0.476-0.386-0.862-0.862-0.862-0 0-0.001 0-0.002 0h0z"></path>
<path d="M34.854 33.936h-3.447c-0.476 0-0.862 0.386-0.862 0.862v0 3.449c0 0.476 0.386 0.862 0.862 0.862v0h3.447c0.476 0 0.862-0.386 0.862-0.862v-3.449c0-0.476-0.386-0.862-0.862-0.862v0z"></path>
<path d="M41.751 33.936h-3.449c-0.476 0-0.862 0.386-0.862 0.862v0 3.449c0 0.476 0.386 0.862 0.862 0.862v0h3.449c0.476 0 0.862-0.386 0.862-0.862v0-3.449c0-0.476-0.386-0.862-0.862-0.862v0z"></path>
<path d="M48.64 33.936h-3.442c-0.476 0-0.862 0.386-0.862 0.862v0 3.449c0 0.001 0 0.002 0 0.003 0 0.476 0.386 0.862 0.862 0.862 0 0 0 0 0 0h3.442c0.476 0 0.862-0.386 0.862-0.862v-3.452c0-0.476-0.386-0.862-0.862-0.862v0z"></path>
<path d="M21.063 40.832h-3.449c-0.476 0-0.862 0.386-0.862 0.862v3.447c0 0.476 0.386 0.862 0.862 0.862v0h3.449c0.476 0 0.862-0.386 0.862-0.862v0-3.447c0-0.476-0.386-0.862-0.862-0.862v0z"></path>
<path d="M27.958 40.832h-3.447c-0.476 0-0.862 0.386-0.862 0.862v3.447c0 0.476 0.386 0.862 0.862 0.862v0h3.447c0 0 0.001 0 0.001 0 0.476 0 0.862-0.386 0.862-0.862 0 0 0 0 0 0v0-3.447c0 0 0 0 0 0 0-0.476-0.386-0.862-0.862-0.862-0 0-0.001 0-0.002 0h0z"></path>
<path d="M34.854 40.832h-3.447c-0.476 0-0.862 0.386-0.862 0.862v3.447c0 0.476 0.386 0.862 0.862 0.862v0h3.447c0.476 0 0.862-0.386 0.862-0.862v0-3.447c0-0.476-0.386-0.862-0.862-0.862v0z"></path>
<path d="M41.751 40.832h-3.449c-0.476 0-0.862 0.386-0.862 0.862v0 3.447c0 0.476 0.386 0.862 0.862 0.862h3.449c0.476 0 0.862-0.386 0.862-0.862v0-3.447c0-0.476-0.386-0.862-0.862-0.862v0z"></path>
</symbol>
<symbol id="icon-no-exams" viewBox="0 0 64 64">
<title>no-exams</title>
<path d="M40.56 49.025h-20.223c-0.002 0-0.004 0-0.006 0-0.965 0-1.747-0.779-1.754-1.742v-24.056c0.002-0.31 0.129-0.591 0.333-0.794l0-0 2.789-2.752c0.203-0.2 0.481-0.324 0.789-0.324 0.002 0 0.003 0 0.005 0h18.062c0.002 0 0.005 0 0.007 0 0.963 0 1.745 0.778 1.751 1.74v5.782c0 0.008 0.001 0.017 0.001 0.026 0 0.273-0.222 0.495-0.495 0.495s-0.495-0.222-0.495-0.495c0-0.009 0-0.019 0.001-0.028l-0 0.001v-5.774c-0.006-0.417-0.345-0.752-0.762-0.752-0.002 0-0.005 0-0.008 0h-18.062c-0.038 0-0.073 0.015-0.098 0.040l0-0-2.79 2.752c-0.023 0.023-0.037 0.054-0.037 0.089 0 0 0 0.001 0 0.001v-0 24.048c0.005 0.417 0.344 0.752 0.761 0.752 0.003 0 0.006 0 0.009-0h20.222c0.002 0 0.005 0 0.007 0 0.417 0 0.757-0.336 0.762-0.752v-6.635c-0-0.008-0.001-0.017-0.001-0.026 0-0.273 0.222-0.495 0.495-0.495s0.495 0.222 0.495 0.495c0 0.009-0 0.019-0.001 0.028l0-0.001v6.635c-0.006 0.963-0.788 1.742-1.752 1.742-0.002 0-0.004 0-0.006 0h0z"></path>
<path d="M24.024 25.291h-2.967c-0.275 0-0.498-0.223-0.498-0.498s0.223-0.498 0.498-0.498v0h2.472v-2.466c-0-0.008-0.001-0.017-0.001-0.026 0-0.273 0.222-0.495 0.495-0.495s0.495 0.222 0.495 0.495c0 0.009-0 0.019-0.001 0.028l0-0.001v2.967c0 0 0 0.001 0 0.001 0 0.273-0.221 0.494-0.494 0.494 0 0 0 0 0 0v0z"></path>
<path d="M28.968 46.552c-0.001 0-0.002 0-0.004 0-0.135 0-0.256-0.054-0.345-0.142v0c-0.090-0.089-0.145-0.213-0.145-0.35 0-0.059 0.010-0.116 0.030-0.169l-0.001 0.003 1.513-4.24c0.027-0.071 0.067-0.133 0.117-0.184l12.942-12.942c0.986-0.986 2.56-1.020 3.5-0.075 0.425 0.426 0.687 1.014 0.687 1.663 0 0.029-0.001 0.059-0.002 0.088l0-0.004c-0.018 0.685-0.303 1.301-0.754 1.749l-12.942 12.942c-0.050 0.051-0.112 0.091-0.18 0.116l-0.003 0.001-4.238 1.513c-0.049 0.019-0.107 0.030-0.166 0.030-0.003 0-0.006 0-0.009-0h0zM30.911 42.098l-1.125 3.15 3.15-1.125 12.86-12.871c0.28-0.277 0.458-0.657 0.472-1.078l0-0.003c0.001-0.017 0.001-0.036 0.001-0.056 0-0.377-0.152-0.718-0.398-0.965l0 0c-0.559-0.559-1.502-0.523-2.102 0.075zM33.207 44.551v0z"></path>
<path d="M45.67 32.569c-0.001 0-0.002 0-0.003 0-0.135 0-0.258-0.054-0.347-0.142l-2.724-2.725c-0.089-0.089-0.145-0.213-0.145-0.349 0-0.273 0.221-0.494 0.494-0.494 0.136 0 0.26 0.055 0.349 0.145l2.725 2.725c0.089 0.089 0.143 0.212 0.143 0.348 0 0.273-0.221 0.494-0.493 0.495h-0z"></path>
<path d="M44.712 33.533c-0.001 0-0.003 0-0.004 0-0.134 0-0.256-0.054-0.344-0.142v0l-2.726-2.724c-0.084-0.089-0.137-0.209-0.137-0.341 0-0.273 0.222-0.495 0.495-0.495 0.132 0 0.253 0.052 0.342 0.137l2.725 2.725c0.089 0.089 0.143 0.212 0.143 0.348 0 0.273-0.221 0.494-0.493 0.495h-0z"></path>
<path d="M33.687 44.56c-0.001 0-0.002 0-0.003 0-0.135 0-0.258-0.054-0.347-0.142l-2.725-2.725c-0.095-0.090-0.154-0.218-0.154-0.358 0-0.273 0.222-0.495 0.495-0.495 0.141 0 0.268 0.059 0.358 0.153l2.725 2.725c0.090 0.090 0.145 0.213 0.145 0.35 0 0.273-0.221 0.495-0.495 0.495v0z"></path>
<path d="M35.891 30.73h-12.851c-0.262-0.015-0.468-0.23-0.468-0.494s0.207-0.48 0.467-0.494l0.001-0h12.857c0.262 0.015 0.468 0.23 0.468 0.494s-0.207 0.48-0.467 0.494l-0.001 0z"></path>
<path d="M31.935 35.675h-8.895c-0.275 0-0.498-0.223-0.498-0.498s0.223-0.498 0.498-0.498v0h8.9c0.275 0 0.498 0.223 0.498 0.498s-0.223 0.498-0.498 0.498v0z"></path>
<path d="M31.408 57.425c-12.811 0-23.233-10.422-23.233-23.233-0-0.021-0-0.045-0-0.070 0-5.21 1.73-10.017 4.646-13.877l-0.042 0.058c0.144-0.192 0.371-0.315 0.627-0.315 0.432 0 0.783 0.35 0.783 0.782 0 0.176-0.058 0.339-0.157 0.47l0.001-0.002c-2.681 3.546-4.294 8.030-4.294 12.89 0 0.022 0 0.044 0 0.066v-0.003c0 11.947 9.721 21.669 21.669 21.669 0.016 0 0.035 0 0.054 0 5.57 0 10.646-2.114 14.47-5.583l-0.018 0.016-31.179-31.178c-0.141-0.142-0.229-0.337-0.229-0.553 0-0.212 0.084-0.404 0.22-0.545l-0 0c4.2-4.36 10.088-7.067 16.608-7.067 0.026 0 0.051 0 0.077 0h-0.004c12.813 0 23.235 10.423 23.235 23.235 0 0.024 0 0.053 0 0.082 0 5.405-1.864 10.375-4.984 14.302l0.036-0.047c-0.145 0.183-0.366 0.299-0.615 0.299-0.432 0-0.782-0.35-0.782-0.782 0-0.183 0.063-0.352 0.169-0.485l-0.001 0.002c2.876-3.617 4.614-8.252 4.614-13.292 0-0.027-0-0.054-0-0.081v0.004c0-11.947-9.721-21.67-21.67-21.67-0.023-0-0.051-0-0.078-0-5.806 0-11.073 2.304-14.939 6.047l0.006-0.006 31.141 31.142c0.178 0.145 0.291 0.364 0.291 0.609 0 0.22-0.091 0.419-0.237 0.561l-0 0c-4.16 4.054-9.85 6.555-16.125 6.555-0.020 0-0.041 0-0.061-0h0.003z"></path>
</symbol>
<symbol id="icon-no-gre" viewBox="0 0 64 64">
<title>no-gre</title>
<path d="M48.811 15.972c-0.299-0.313-0.782-0.327-1.095-0.028l-11.207 10.354c-0.1-0.085-0.199-0.156-0.299-0.228-0.796-0.54-1.735-0.683-2.887-0.683h-4.153c-0.398 0-0.697 0.313-0.697 0.683v7.637l-2.574 2.375v-4.068c0-0.384-0.213-0.683-0.64-0.683h-3.897c-0.327 0-0.583 0.284-0.583 0.612 0 0.341 0.256 0.626 0.583 0.626h3.186v2.532c-0.782 0.569-1.948 1.038-3.3 1.038-2.617 0-4.708-1.892-4.708-4.864 0-2.617 2.119-4.807 4.708-4.807 0.697 0 1.237 0.1 1.678 0.256 0.853 0.299 1.095 0.569 1.436 0.569s0.64-0.256 0.64-0.64c0-0.398-0.341-0.654-0.853-0.868-0.796-0.327-1.664-0.569-2.901-0.569-3.385 0-6.158 2.731-6.158 6.059 0 3.925 2.731 6.087 6.087 6.087 1.394 0 2.546-0.412 3.342-0.953v0.284c0 0.185 0.057 0.356 0.171 0.469l-9.401 8.69c-3.385-4.11-5.177-9.358-4.949-14.706 0.484-11.947 10.581-21.276 22.514-20.793 4.665 0.171 9.145 1.863 12.772 4.807 0.327 0.256 0.796 0.199 1.067-0.114 0.284-0.327 0.242-0.825-0.085-1.109-3.883-3.157-8.69-4.964-13.696-5.148-12.8-0.512-23.623 9.5-24.135 22.3-0.242 6.030 1.877 11.932 5.916 16.427 0.014 0.028 0.043 0.043 0.071 0.071 0.327 0.284 0.825 0.256 1.109-0.071l0.071-0.071 12.558-11.591v0.868c0 0.37 0.299 0.683 0.697 0.683 0.384 0 0.697-0.313 0.697-0.683v-2.148l2.133-1.963h0.924l3.385 4.466c0.142 0.185 0.341 0.327 0.583 0.327 0.398 0 0.711-0.327 0.711-0.697 0-0.156-0.071-0.327-0.185-0.469l-2.901-3.698c0.612-0.1 1.166-0.299 1.707-0.697 0.853-0.626 1.394-1.55 1.394-2.83 0-0.526-0.071-0.981-0.213-1.394l10.809-9.984c3.726 4.181 5.689 9.643 5.447 15.232-0.469 11.947-10.567 21.276-22.514 20.793-4.85-0.171-9.486-1.991-13.17-5.134-0.327-0.284-0.825-0.242-1.109 0.085s-0.242 0.825 0.085 1.109c3.954 3.385 8.932 5.319 14.123 5.504 12.8 0.512 23.623-9.5 24.135-22.3 0.242-6.3-2.062-12.416-6.428-16.953zM29.881 31.417v-4.864h3.3c0.782 0 1.451 0.071 2.034 0.412 0.114 0.071 0.213 0.142 0.313 0.228l-4.551 4.21h-1.095zM36.196 28.985c0 1.038-0.412 1.664-1.024 2.034-0.54 0.313-1.166 0.384-1.906 0.398l2.916-2.688c0 0.085 0.014 0.171 0.014 0.256z"></path>
<path d="M47.758 26.61c0.327 0 0.583-0.284 0.583-0.626 0-0.327-0.256-0.612-0.583-0.612h-7.31c-0.398 0-0.697 0.313-0.697 0.683v10.468c0 0.37 0.299 0.683 0.697 0.683h7.31c0.327 0 0.583-0.284 0.583-0.612 0-0.341-0.256-0.626-0.583-0.626h-6.613v-4.082h5.703c0.341 0 0.612-0.284 0.612-0.612s-0.256-0.626-0.612-0.626h-5.703v-4.039h6.613z"></path>
</symbol>
<symbol id="icon-piggy-bank" viewBox="0 0 64 64">
<title>piggy-bank</title>
<path d="M44.658 29.073c-0.001-1.721-1.396-3.116-3.117-3.116s-3.117 1.396-3.117 3.117 1.396 3.117 3.117 3.117v0c1.721-0.002 3.116-1.398 3.117-3.119v-0zM39.981 29.073c0-0.864 0.7-1.564 1.564-1.564s1.564 0.7 1.564 1.564c0 0.864-0.7 1.564-1.564 1.564v0c-0.863-0.001-1.563-0.701-1.563-1.564v0z"></path>
<path d="M28.54 22.626c-1.174 0.356-2.13 0.713-3.060 1.121l0.175-0.069c-0.285 0.119-0.482 0.397-0.482 0.72 0 0.43 0.348 0.778 0.778 0.778 0.001 0 0.002 0 0.003 0h-0c0.001 0 0.003 0 0.004 0 0.106 0 0.208-0.022 0.3-0.062l-0.005 0.002c3.2-1.331 5.815-2.165 10.382-0.754 0.063 0.019 0.136 0.029 0.212 0.029 0.43 0 0.779-0.349 0.779-0.779 0-0.342-0.22-0.632-0.526-0.737l-0.005-0.002c-0.654-0.215-1.468-0.419-2.3-0.57l-0.118-0.018c0.873-0.851 1.415-2.038 1.415-3.352 0-2.583-2.094-4.676-4.676-4.676s-4.676 2.094-4.676 4.676c0 1.496 0.703 2.828 1.796 3.684l0.010 0.008zM31.41 15.824c1.722 0 3.118 1.396 3.118 3.117s-1.396 3.117-3.117 3.117c-1.722 0-3.117-1.396-3.117-3.117v0c0.002-1.721 1.396-3.116 3.117-3.117h0z"></path>
<path d="M51.964 30.689l-3.398-1.36c-0.044-2.145-1.038-5.649-4.612-7.026l0.7-5.604c0.004-0.029 0.006-0.062 0.006-0.095 0-0.43-0.349-0.779-0.779-0.779-0.176 0-0.338 0.058-0.469 0.157l0.002-0.001-6.235 4.676c-0.19 0.144-0.311 0.369-0.311 0.623 0 0.43 0.349 0.779 0.779 0.779 0.177 0 0.34-0.059 0.471-0.158l-0.002 0.001 4.766-3.575-0.552 4.409c-0.004 0.029-0.006 0.062-0.006 0.096 0 0.354 0.235 0.653 0.558 0.749l0.005 0.001c4.363 1.264 4.124 6.015 4.114 6.215-0.001 0.017-0.002 0.037-0.002 0.058 0 0.326 0.2 0.605 0.483 0.721l0.005 0.002 3.413 1.363v5.18l-3.413 1.362c-0.168 0.105-0.233 0.148-0.299 0.191l0.097-0.060c-0.040 0.035-0.076 0.072-0.108 0.112l-0.001 0.002c-0.028 0.034-0.054 0.072-0.076 0.113l-0.002 0.004c-0.022 0.042-0.042 0.092-0.057 0.144l-0.001 0.006c-0.011 0.023-0.022 0.050-0.030 0.078l-0.001 0.004c-0.757 4.453-3.84 4.797-3.974 4.81-0.021 0-0.038 0.014-0.060 0.017-0.085 0.011-0.162 0.034-0.233 0.069l0.004-0.002c-0.043 0.026-0.080 0.055-0.114 0.087l0-0c-0.045 0.029-0.085 0.061-0.121 0.097l0-0c-0.065 0.074-0.116 0.162-0.149 0.259l-0.002 0.005-1.381 4.142h-2.853l-1.344-2.687c-0.025-0.040-0.052-0.074-0.081-0.106l0 0c-0.027-0.042-0.056-0.078-0.087-0.111l0 0.001c-0.038-0.032-0.080-0.061-0.125-0.086l-0.004-0.002c-0.035-0.025-0.075-0.048-0.118-0.067l-0.004-0.002c-0.043-0.015-0.093-0.027-0.146-0.034l-0.004-0c-0.041-0.009-0.090-0.016-0.14-0.018l-0.002-0c-0.056 0.005-0.108 0.014-0.158 0.028l0.006-0.001c-0.044 0.004-0.085 0.012-0.124 0.023l0.005-0.001c-0.030 0.011-3.176 1.209-7.285-0.021-0.026-0.005-0.057-0.008-0.089-0.008h-0.001c-0.044-0.009-0.095-0.014-0.147-0.014-0.001 0-0.001 0-0.002 0h0c-0.056 0.002-0.109 0.009-0.16 0.021l0.005-0.001c-0.101 0.022-0.191 0.063-0.268 0.119l0.002-0.001c-0.041 0.028-0.077 0.057-0.11 0.090l0-0c-0.036 0.036-0.068 0.077-0.095 0.121l-0.002 0.003c-0.019 0.021-0.037 0.044-0.053 0.068l-0.001 0.002-1.344 2.687h-2.827l-1.397-4.897s0 0 0 0c-0.032-0.104-0.080-0.195-0.143-0.273l0.001 0.002c-0.009-0.010-0.023-0.016-0.031-0.026-0.057-0.068-0.124-0.124-0.2-0.169l-0.004-0.002c-3.021-1.64-5.049-5.436-5.049-9.446 0.006-5.416 3.689-9.971 8.688-11.301l0.082-0.018c0.338-0.090 0.583-0.394 0.583-0.755 0-0.431-0.349-0.78-0.78-0.78-0.070 0-0.137 0.009-0.202 0.026l0.005-0.001c-2.334 0.621-4.342 1.793-5.948 3.372l0.002-0.002q-0.246-0.4-0.468-0.794c1.075-1.291 2.047-2.876 1.725-4.124-0.142-0.582-0.622-1.34-2.028-1.644-1.469-0.319-2.153 0.178-2.473 0.649-0.741 1.094-0.011 3.153 0.882 4.908-0.427 0.458-0.895 0.905-1.358 1.307-0.178 0.144-0.291 0.363-0.291 0.608 0 0.43 0.349 0.779 0.779 0.779 0.206 0 0.394-0.080 0.534-0.211l-0 0c0.205-0.178 0.629-0.555 1.126-1.057 0.174 0.293 0.338 0.556 0.485 0.785-1.807 2.24-2.901 5.121-2.901 8.257v0c0 4.507 2.177 8.639 5.569 10.642l1.475 5.158c0.095 0.331 0.394 0.569 0.749 0.569 0 0 0 0 0 0h3.901c0 0 0.001 0 0.001 0 0.302 0 0.564-0.171 0.694-0.422l0.002-0.004 1.28-2.56c1.075 0.287 2.309 0.455 3.582 0.462h0.004c0.023 0 0.051 0 0.078 0 1.177 0 2.319-0.156 3.404-0.448l-0.091 0.021 1.261 2.523c0.132 0.255 0.394 0.427 0.696 0.427 0 0 0.001 0 0.001 0h3.897c0 0 0 0 0 0 0.342 0 0.633-0.221 0.738-0.528l0.002-0.005 1.411-4.233c1.564-0.356 3.965-1.829 4.762-5.578l3.51-1.404c0.289-0.117 0.489-0.396 0.489-0.721 0-0 0-0.001 0-0.001v0-6.241c-0.001-0.327-0.203-0.607-0.49-0.721l-0.005-0.002zM17.778 21.98c-0.619-1.333-0.922-2.405-0.7-2.732 0.014-0.020 0.102-0.067 0.314-0.067 0.193 0.004 0.377 0.029 0.555 0.072l-0.017-0.004c0.348 0.075 0.778 0.223 0.853 0.505 0.118 0.472-0.31 1.307-1.006 2.226z"></path>
</symbol>
<symbol id="icon-trophy" viewBox="0 0 64 64">
<title>trophy</title>
<path d="M32.269 37.84c-2.883 0-5.358-1.025-7.354-3.046-5.696-5.77-5.611-17.636-5.605-18.142 0.005-0.338 0.28-0.61 0.619-0.61 0 0 0 0 0 0h24.681c0 0 0 0 0 0 0.339 0 0.614 0.272 0.619 0.61v0c0.007 0.503 0.091 12.373-5.605 18.142-1.995 2.021-4.47 3.046-7.354 3.046zM20.555 17.279c0.063 2.49 0.612 11.959 5.242 16.647 1.755 1.776 3.932 2.677 6.471 2.677s4.718-0.9 6.473-2.677c4.631-4.693 5.178-14.157 5.242-16.64z"></path>
<path d="M32.31 34.429c-3.457 0-6.067-2.179-7.538-6.299-0.023-0.062-0.036-0.134-0.036-0.209 0-0.342 0.277-0.619 0.619-0.619 0.267 0 0.494 0.169 0.581 0.405l0.001 0.004c1.303 3.635 3.449 5.48 6.379 5.48 0.342 0 0.619 0.277 0.619 0.619s-0.277 0.619-0.619 0.619v0z"></path>
<path d="M24.631 34.17c-3.982 0-6.969-2.692-8.636-7.787-1.219-3.725-1.307-7.386-1.311-7.538-0-0.003-0-0.006-0-0.010 0-0.17 0.067-0.324 0.177-0.437l-0 0c0.113-0.114 0.269-0.185 0.442-0.185 0 0 0 0 0 0h4.625v1.237h-3.974c0.189 2.745 1.392 13.483 8.676 13.483z"></path>
<path d="M39.946 34.17v-1.237c7.285 0 8.488-10.738 8.676-13.483h-3.974v-1.237h4.625c0.001 0 0.001 0 0.002 0 0.341 0 0.617 0.276 0.617 0.617 0 0.005-0 0.010-0 0.015v-0.001c0 0.154-0.091 3.814-1.311 7.538-1.665 5.096-4.652 7.788-8.634 7.788z"></path>
<path d="M32.269 43.469c-1.213 0-5.175-0.121-5.175-1.68v-0.168l0.085-0.142c0.014-0.027 1.536-2.692 0.32-4.858l1.078-0.606c1.264 2.25 0.327 4.742-0.127 5.689 0.486 0.226 1.798 0.525 3.819 0.525 1.645 0 3.025-0.272 3.698-0.489-1.017-1.341-1.463-3.429 0-5.774l1.048 0.658c-1.604 2.56-0.222 4.267 0.24 4.725 0.14 0.136 0.227 0.325 0.227 0.535 0 0.103-0.021 0.201-0.059 0.29l0.002-0.005c-0.431 1.067-3.957 1.3-5.157 1.3z"></path>
<path d="M32.269 46.393c-3.765 0-10.135-0.597-10.135-2.833 0-1.553 3.046-2.256 5.602-2.571l0.152 1.227c-3.181 0.394-4.419 1.089-4.52 1.365 0.206 0.521 3.445 1.574 8.9 1.574s8.695-1.054 8.902-1.618c-0.102-0.236-1.361-0.94-4.601-1.33l0.142-1.229c2.594 0.313 5.689 1.014 5.689 2.581 0.004 2.236-6.367 2.833-10.132 2.833z"></path>
<path d="M32.269 50.591c-3.762 0-10.132-0.596-10.135-2.832v-4.252h1.237v4.251c0.203 0.542 3.44 1.596 8.897 1.596s8.695-1.054 8.902-1.618v-4.228h1.237v4.251c-0.007 2.237-6.376 2.833-10.139 2.833z"></path>
</symbol>
<symbol id="icon-two-calendars" viewBox="0 0 64 64">
<title>two-calendars</title>
<path d="M56.633 20.025l-3.044-0.441 0.242-1.636c0.171-1.038-0.54-2.005-1.564-2.176-1.038-0.171-2.005 0.54-2.176 1.564 0 0.014 0 0.043-0.014 0.057l-0.242 1.636-1.863-0.27 0.242-1.636c0.156-1.038-0.569-1.991-1.607-2.148s-1.991 0.569-2.148 1.607l-0.242 1.636-1.863-0.27 0.242-1.636c0.142-1.038-0.583-1.991-1.621-2.133-1.024-0.142-1.963 0.569-2.119 1.579l-0.242 1.636-1.863-0.27 0.242-1.636c0.128-1.038-0.597-1.991-1.636-2.119-1.010-0.128-1.948 0.569-2.119 1.579l-0.242 1.636-1.863-0.27 0.242-1.636c0.156-1.038-0.569-1.991-1.607-2.148s-1.991 0.569-2.148 1.607l-0.242 1.636-3.044-0.441c-0.256-0.043-0.498 0.142-0.54 0.398l-0.668 4.58c-0.868-0.455-1.934-0.114-2.375 0.754-0.185 0.356-0.242 0.768-0.171 1.152l0.299 1.508-1.721 0.341-0.299-1.508c-0.213-0.953-1.166-1.55-2.105-1.337-0.924 0.199-1.508 1.095-1.351 2.020l0.299 1.508-1.735 0.341-0.299-1.508c-0.185-0.953-1.124-1.579-2.076-1.394s-1.579 1.124-1.394 2.076l0.299 1.508-2.816 0.569c-0.242 0.043-0.398 0.284-0.356 0.526l5.262 26.624c0.043 0.242 0.284 0.398 0.526 0.356l28.572-5.632 10.624 1.55c0.256 0.043 0.498-0.142 0.54-0.398l4.181-28.8c0.043-0.27-0.142-0.512-0.398-0.54zM50.418 21.746l0.612-4.21c0.071-0.512 0.54-0.882 1.052-0.811s0.882 0.54 0.811 1.052v0.028l-0.612 4.21c-0.071 0.512-0.54 0.882-1.052 0.811s-0.882-0.54-0.811-1.052c-0.014-0.014-0.014-0.014 0-0.028zM44.8 20.921l0.612-4.21c0.071-0.512 0.555-0.868 1.067-0.796s0.868 0.555 0.796 1.067l-0.612 4.21c-0.071 0.512-0.555 0.868-1.067 0.796s-0.868-0.54-0.796-1.067zM39.182 20.11l0.612-4.21c0.071-0.512 0.555-0.868 1.067-0.796s0.868 0.555 0.796 1.067l-0.612 4.21c-0.071 0.512-0.555 0.868-1.067 0.796s-0.868-0.555-0.796-1.067zM33.564 19.3l0.612-4.21c0.071-0.512 0.555-0.868 1.067-0.796s0.868 0.555 0.796 1.067l-0.612 4.21c-0.071 0.512-0.555 0.868-1.067 0.796s-0.868-0.555-0.796-1.067zM27.947 18.475l0.612-4.21c0.071-0.512 0.555-0.882 1.067-0.796 0.512 0.071 0.882 0.555 0.796 1.067l-0.612 4.21c-0.071 0.512-0.555 0.868-1.067 0.796s-0.868-0.555-0.796-1.067zM22.158 21.006c0.313-0.057 0.626 0.057 0.839 0.299l-0.697 4.821c-0.028-0.057-0.043-0.114-0.057-0.185l-0.768-3.897c-0.1-0.469 0.199-0.939 0.683-1.038zM16.967 22.044c0.469-0.1 0.939 0.213 1.038 0.697l0.768 3.897c0.1 0.484-0.213 0.939-0.697 1.038s-0.939-0.213-1.038-0.697l-0.768-3.897c-0.1-0.484 0.213-0.939 0.697-1.038zM11.762 23.068c0.469-0.1 0.939 0.213 1.038 0.683l0.768 3.897c0.1 0.484-0.213 0.939-0.697 1.038s-0.939-0.213-1.038-0.697l-0.768-3.897c-0.085-0.469 0.228-0.939 0.697-1.024zM13.383 52.878l-5.092-25.756 2.375-0.469 0.299 1.508c0.185 0.953 1.109 1.593 2.076 1.408s1.593-1.109 1.408-2.076v-0.014l-0.299-1.508 1.721-0.341 0.299 1.508c0.171 0.967 1.095 1.607 2.048 1.436s1.607-1.095 1.436-2.048c0-0.014-0.014-0.043-0.014-0.057l-0.299-1.508 1.721-0.341 0.299 1.508c0.085 0.469 0.37 0.882 0.768 1.138l-0.91 6.172-0.1-0.512c-0.071-0.356-0.412-0.597-0.782-0.526l-2.603 0.512c-0.356 0.071-0.597 0.412-0.526 0.782l0.512 2.603c0.071 0.356 0.412 0.597 0.768 0.526l2.276-0.455-0.199 1.394-1.82 0.356c-0.356 0.071-0.597 0.412-0.526 0.782l0.526 2.588c0.071 0.356 0.412 0.597 0.782 0.526l0.441-0.085-0.199 1.394c-0.356 0.071-0.583 0.427-0.512 0.768l0.512 2.603c0.071 0.356 0.412 0.597 0.782 0.526l2.603-0.512c0.356-0.071 0.597-0.412 0.526-0.782l-0.071-0.327 1.408 0.199c0.128 0.284 0.427 0.455 0.74 0.384l0.825-0.156 12.459 1.806-25.657 5.049zM51.982 48.725l-31.36-4.565 0.071-0.526 0.085-0.555 0.199-1.394 0.597-4.124 1.465-10.041 0.128-0.882 0.427-2.887 0.37-2.546 0.711-4.878 2.574 0.37-0.242 1.636c-0.156 1.038 0.569 1.991 1.607 2.148s1.991-0.569 2.148-1.607l0.242-1.636 1.863 0.27-0.242 1.636c-0.142 1.038 0.583 1.991 1.621 2.133 1.024 0.142 1.963-0.569 2.119-1.579l0.242-1.636 1.863 0.27-0.242 1.636c-0.156 1.038 0.569 1.991 1.607 2.148s1.991-0.569 2.148-1.607l0.242-1.636 1.863 0.27-0.242 1.636c-0.156 1.038 0.569 1.991 1.607 2.148s1.991-0.569 2.148-1.607l0.242-1.636 1.863 0.27-0.242 1.636c-0.128 1.038 0.597 1.991 1.636 2.119 1.010 0.128 1.948-0.569 2.119-1.579l0.242-1.636 2.574 0.37-4.053 27.861z"></path>
<path d="M12.43 33.934l2.603-0.498c0.356-0.071 0.711 0.171 0.768 0.526l0.498 2.603c0.071 0.356-0.171 0.711-0.526 0.768l-2.588 0.498c-0.356 0.071-0.711-0.171-0.768-0.526l-0.512-2.603c-0.071-0.356 0.156-0.697 0.526-0.768zM13.582 39.111l2.603-0.512c0.356-0.071 0.711 0.156 0.782 0.526l0.512 2.603c0.071 0.356-0.156 0.711-0.526 0.782l-2.603 0.512c-0.356 0.071-0.711-0.156-0.782-0.526l-0.512-2.603c-0.057-0.356 0.171-0.711 0.526-0.782zM14.606 44.316l2.603-0.512c0.356-0.071 0.711 0.156 0.782 0.526l0.512 2.603c0.071 0.356-0.156 0.711-0.526 0.782l-2.603 0.512c-0.356 0.071-0.711-0.156-0.782-0.526l-0.498-2.617c-0.071-0.356 0.156-0.697 0.512-0.768zM25.259 28.018l0.398-2.802c0.057-0.384 0.412-0.654 0.796-0.597l2.802 0.398c0.384 0.057 0.654 0.412 0.597 0.796l-0.398 2.802c-0.057 0.384-0.412 0.654-0.796 0.597l-2.802-0.398c-0.384-0.043-0.654-0.398-0.597-0.796zM30.962 28.956l0.412-2.802c0.057-0.384 0.412-0.654 0.811-0.597l2.802 0.412c0.384 0.057 0.654 0.412 0.597 0.811l-0.412 2.802c-0.057 0.384-0.412 0.654-0.811 0.597l-2.802-0.412c-0.384-0.071-0.654-0.427-0.597-0.811zM36.58 29.767l0.412-2.802c0.057-0.384 0.412-0.654 0.811-0.597l2.802 0.412c0.384 0.057 0.654 0.412 0.597 0.811l-0.412 2.802c-0.057 0.384-0.412 0.654-0.811 0.597l-2.802-0.412c-0.384-0.057-0.654-0.427-0.597-0.811zM42.197 30.592l0.412-2.802c0.057-0.384 0.412-0.654 0.811-0.597l2.802 0.412c0.384 0.057 0.654 0.412 0.597 0.811l-0.412 2.802c-0.057 0.384-0.412 0.654-0.811 0.597l-2.802-0.412c-0.384-0.071-0.654-0.427-0.597-0.811zM47.815 31.403l0.412-2.802c0.057-0.384 0.412-0.654 0.811-0.597l2.802 0.412c0.384 0.057 0.654 0.412 0.597 0.811l-0.412 2.802c-0.057 0.384-0.412 0.654-0.811 0.597l-2.802-0.412c-0.384-0.057-0.654-0.427-0.597-0.811zM24.533 33.749l0.412-2.802c0.057-0.384 0.412-0.654 0.811-0.597l2.802 0.412c0.384 0.057 0.654 0.412 0.597 0.811l-0.412 2.802c-0.057 0.384-0.412 0.654-0.811 0.597l-2.802-0.412c-0.384-0.057-0.654-0.427-0.597-0.811zM30.151 34.574l0.412-2.802c0.057-0.384 0.412-0.654 0.811-0.597l2.802 0.412c0.384 0.057 0.654 0.412 0.597 0.811l-0.412 2.802c-0.057 0.384-0.412 0.654-0.811 0.597l-2.802-0.412c-0.384-0.071-0.654-0.427-0.597-0.811zM35.755 35.385l0.412-2.802c0.057-0.384 0.412-0.654 0.811-0.597l2.802 0.412c0.384 0.057 0.654 0.412 0.597 0.811l-0.412 2.802c-0.057 0.384-0.412 0.654-0.811 0.597l-2.802-0.412c-0.384-0.071-0.64-0.427-0.597-0.811zM41.372 36.196l0.412-2.802c0.057-0.384 0.412-0.654 0.811-0.597l2.802 0.412c0.384 0.057 0.654 0.412 0.597 0.811l-0.412 2.802c-0.057 0.384-0.412 0.654-0.811 0.597l-2.802-0.412c-0.384-0.057-0.654-0.412-0.597-0.811zM46.99 37.020l0.412-2.802c0.057-0.384 0.412-0.654 0.811-0.597l2.802 0.412c0.384 0.057 0.654 0.412 0.597 0.811l-0.412 2.802c-0.057 0.384-0.412 0.654-0.811 0.597l-2.802-0.412c-0.384-0.071-0.654-0.427-0.597-0.811zM23.708 39.367l0.412-2.802c0.057-0.384 0.412-0.654 0.811-0.597l2.802 0.412c0.384 0.057 0.654 0.412 0.597 0.811l-0.412 2.802c-0.057 0.384-0.412 0.654-0.811 0.597l-2.802-0.412c-0.384-0.071-0.654-0.427-0.597-0.811zM29.326 40.178l0.412-2.802c0.057-0.384 0.412-0.654 0.811-0.597l2.802 0.412c0.384 0.057 0.654 0.412 0.597 0.811l-0.412 2.802c-0.057 0.384-0.412 0.654-0.811 0.597l-2.802-0.412c-0.384-0.057-0.654-0.412-0.597-0.811zM34.944 41.003l0.412-2.802c0.057-0.384 0.412-0.654 0.811-0.597l2.802 0.412c0.384 0.057 0.654 0.412 0.597 0.811l-0.412 2.802c-0.057 0.384-0.412 0.654-0.811 0.597l-2.802-0.412c-0.384-0.071-0.654-0.427-0.597-0.811zM40.562 41.813l0.412-2.802c0.057-0.384 0.412-0.654 0.811-0.597l2.802 0.412c0.384 0.057 0.654 0.412 0.597 0.811l-0.412 2.802c-0.057 0.384-0.412 0.654-0.811 0.597l-2.802-0.412c-0.384-0.057-0.654-0.427-0.597-0.811z"></path>
</symbol>
</defs>
</svg>
