<svg aria-hidden="true" style="position: absolute; width: 0; height: 0; overflow: hidden;" version="1.1" xmlns="http://www.w3.org/2000/svg" xmlns:xlink="http://www.w3.org/1999/xlink">
<defs>
<symbol id="icon-no-fees" viewBox="0 0 64 64" style="fill:#000">
<title>no-fees</title>
<path d="M32 64C14.4 64 0 49.6 0 32c0-6.9 2.2-13.6 6.3-19.1.4-.5 1-.5 1.5-.2.4.4.5 1 .2 1.5C4.2 19.3 2.1 25.6 2.2 32c0 16.5 13.4 29.8 29.8 29.8 7.4 0 14.5-2.7 20-7.7L9 11.2c-.4-.4-.4-1.1 0-1.5C15 3.5 23.3 0 32 0c17.6 0 32 14.4 32 32 0 7.2-2.4 14.1-6.8 19.7-.4.5-1 .5-1.5.2-.5-.4-.5-1-.2-1.5 4.1-5.2 6.4-11.7 6.4-18.4C61.8 15.5 48.5 2.2 32 2.2c-7.7 0-15.1 3-20.7 8.3l42.8 42.8.1.1c.5.4.5 1.1.2 1.5l-.1.1c-6 5.8-14 9-22.3 9z"/><path d="M12.9 40.4V30.2h-1c-.1 0-.3-.1-.4-.2-.1-.2-.1-.4-.1-.6v-.3c0-.2 0-.4.1-.6.1-.1.2-.2.4-.2h1V26c0-1.3.3-2.1.9-2.6.6-.5 1.4-.7 2.2-.7 1.2 0 1.7.2 1.7.7 0 .2-.1.5-.1.7-.1.3-.2.4-.4.4-.1 0-.2 0-.3-.1-.2 0-.5-.1-.7-.1-.4 0-.7.1-1 .3-.2.2-.3.7-.3 1.4v2.1H17c.1 0 .3 0 .4.2.1.2.1.4.1.6v.3c0 .2 0 .4-.1.6-.1.1-.2.2-.4.2h-2.1v10.3c0 .3-.3.5-1 .5h-.1c-.6.2-.9 0-.9-.4zM20.8 39.5c-1-1-1.4-2.6-1.4-4.8s.5-3.7 1.4-4.8c.9-1.1 2.3-1.6 4.2-1.6 1.6 0 2.9.5 3.7 1.6.8 1.1 1.2 2.6 1.2 4.6 0 .2-.1.4-.3.6-.2.3-.4.4-.5.4h-7.6c.1 1.3.4 2.3 1 2.9.6.6 1.5.9 2.7.9.6 0 1.2-.1 1.7-.3.4-.1.8-.3 1.2-.5.2-.1.4-.2.5-.3.2 0 .3.2.5.5.2.2.3.5.3.7 0 .2-.2.4-.6.7-.5.3-1 .5-1.6.6-.7.2-1.4.3-2.1.3-1.9.1-3.3-.4-4.3-1.5zm6.9-5.7c0-2.5-1-3.8-2.9-3.8-2.1 0-3.2 1.3-3.3 3.8h6.2zM33.5 39.5c-1-1-1.4-2.6-1.4-4.8s.5-3.7 1.4-4.8c.9-1.1 2.3-1.6 4.2-1.6 1.6 0 2.9.5 3.7 1.6.8 1.1 1.2 2.6 1.2 4.6 0 .2-.1.4-.3.6-.2.3-.4.4-.5.4h-7.6c.1 1.3.4 2.3 1 2.9.6.6 1.5.9 2.7.9.6 0 1.2-.1 1.7-.3.4-.1.8-.3 1.2-.5l.6-.3c.2 0 .3.2.5.5.2.2.3.5.3.7 0 .2-.2.4-.6.7-.5.3-1 .5-1.6.6-.7.2-1.4.3-2.1.3-2 .1-3.5-.4-4.4-1.5zm6.9-5.7c0-2.5-1-3.8-2.9-3.8-2.1 0-3.2 1.3-3.3 3.8h6.2zM46.4 40.9c-.5-.1-1-.3-1.4-.6-.3-.2-.5-.5-.5-.6 0-.3.1-.5.3-.7.2-.3.4-.5.5-.5.2.1.3.2.5.3.3.2.7.4 1 .5.4.1.9.2 1.3.2.8 0 1.3-.2 1.7-.5.7-.6.8-1.8.2-2.5l-.1-.1c-.6-.4-1.2-.7-1.8-.9-.6-.2-1.2-.4-1.7-.7-.5-.3-.9-.7-1.1-1.1-.3-.6-.5-1.2-.5-1.9 0-.6.2-1.3.5-1.8s.8-1 1.4-1.2c.6-.3 1.3-.5 2-.4.7 0 1.5.1 2.2.3.6.2 1 .4 1 .7 0 .3-.1.6-.3.8-.2.3-.3.5-.5.5 0 0-.3-.1-.6-.3-.5-.2-1-.3-1.5-.3s-1.1.1-1.5.4c-.4.3-.6.7-.6 1.2 0 .4.1.8.4 1.1.3.3.8.5 1.5.7 1.2.4 2.2.9 2.8 1.5.7.6 1 1.4 1 2.5 0 .7-.2 1.3-.6 1.9-.4.6-.9 1-1.5 1.3-.7.3-1.4.5-2.1.5-.7-.1-1.4-.1-2-.3z"/>
</symbol>
<symbol id="icon-transfer-90" viewBox="0 0 64 64">
<title>transfer-90</title>
<path d="M63.1 5.1h-18c-.5 0-.9.4-.9 1 0 .2.1.5.3.6l5.2 5.2c.2.2.2.5 0 .6L40.2 22c-.4.4-.4.9 0 1.3s.9.4 1.3 0L52 12.9c.4-.4.4-.9 0-1.3l-3.9-3.9c-.2-.2-.2-.5 0-.6.1-.1.2-.2.3-.1h13.3c.2 0 .4.2.5.5v13.3c0 .2-.1.3-.3.4h-.2c-.1 0-.2-.1-.3-.1l-3.9-3.9c-.4-.4-.9-.4-1.3 0L45.8 27.5c-.4.4-.4.9 0 1.3s.9.4 1.3 0l9.4-9.4c.1-.1.2-.1.3-.1.1 0 .2.1.3.1l5.2 5.2c.2.2.4.3.7.3.1 0 .2 0 .4-.1.3-.1.6-.5.6-.9V6c0-.5-.4-.9-.9-.9zM64 31.6v15.2c0 .5-.4.9-1 .9-.2 0-.5-.1-.6-.3l-4.6-4.6c-.2-.2-.5-.2-.6 0l-8.7 8.7c-.4.3-1 .3-1.3-.1-.3-.3-.3-.8 0-1.2l9.7-9.7c.4-.3.9-.3 1.3 0l3.2 3.2c.2.2.5.2.6 0 .1-.1.1-.2.1-.3V33c0-.2-.2-.4-.5-.5H51.2c-.2 0-.3.1-.4.3v.2c0 .1.1.2.1.3l3.2 3.2c.4.4.4.9 0 1.3l-5.5 5.5c-.4.4-.9.4-1.3 0-.2-.2-.3-.4-.3-.7 0-.2.1-.5.3-.7l4.6-4.6c.2-.2.2-.5 0-.6l-4.6-4.6c-.4-.4-.4-.9 0-1.3.2-.2.4-.3.7-.3h15.3c.3.2.7.6.7 1.1zM25.1 7.2v.2c0 .1 0 .2.1.3l3.2 3.2c.4.4.4.9 0 1.3l-9.7 9.7c-.3.4-.9.4-1.3.1-.4-.4-.4-1-.1-1.3L26 12c.2-.2.2-.5 0-.6l-4.6-4.6c-.4-.4-.4-.9 0-1.3.2-.2.4-.3.7-.3h15.2c.5 0 .9.4.9.9v15.2c0 .5-.4.9-1 .9-.2 0-.5-.1-.6-.3L32 17.3c-.2-.2-.5-.2-.6 0l-4.6 4.6c-.4.4-.9.4-1.3 0s-.4-.9 0-1.3l5.5-5.5c.4-.4.9-.4 1.3 0l3.2 3.2c.2.2.5.2.6 0 .1-.1.1-.2.1-.3V7.4c.2-.2 0-.4-.2-.4H25.5c-.2 0-.3.1-.4.2z"/><g><path d="M11.3 27.7c1.7 0 3.3.4 4.8 1.1 1.5.7 2.7 1.9 3.6 3.5s1.4 3.7 1.4 6.2c0 4.7-1.1 8.5-3.2 11.3s-4.4 4.7-6.8 5.8-4 1.6-4.8 1.6c-.5 0-.9-.2-1.1-.6-.3-.5-.6-1-.7-1.5-.1-.4-.2-.9-.2-1.3 0-.2 0-.4.1-.6.1-.1.3-.2.4-.2 2.1-.6 4-1.6 5.6-3.1 1.6-1.4 2.8-3.2 3.4-5.2-1.3.7-2.7 1-4.2 1-1.3 0-2.5-.3-3.7-.9-1.3-.6-2.4-1.6-3.2-2.9-.9-1.3-1.3-3-1.3-5.1 0-2.1.5-3.9 1.4-5.3.9-1.3 2.2-2.4 3.6-3 1.6-.5 3.3-.8 4.9-.8m.2 13.2c1 0 2.1-.3 3.3-1V38c0-1.9-.3-3.3-1-4.2-.6-.8-1.6-1.3-2.6-1.3s-1.9.4-2.5 1.2c-.7.8-1 1.8-1 3.1s.3 2.3 1 3c.7.8 1.6 1.1 2.8 1.1m-.2-14.7c-1.8 0-3.7.4-5.4 1.1-1.7.8-3.2 2-4.2 3.6C.6 32.5 0 34.6 0 37c0 2.4.5 4.4 1.6 5.9.9 1.4 2.3 2.6 3.8 3.3 1.3.7 2.8 1 4.3 1 .4 0 .8 0 1.2-.1-.4.6-.9 1.1-1.4 1.6-1.4 1.3-3.1 2.2-5 2.7-.5.1-1 .4-1.3.9-.2.4-.4.9-.3 1.4 0 .6.1 1.2.3 1.8.2.7.5 1.3.9 1.9.5.8 1.4 1.3 2.3 1.3.7 0 2-.2 5.4-1.8 2.6-1.2 5.1-3.3 7.3-6.3 2.3-3.1 3.5-7.1 3.5-12.2 0-2.8-.5-5.1-1.6-7-1.1-1.9-2.5-3.3-4.3-4.1-1.7-.7-3.5-1.2-5.4-1.1zm.2 13.2c-1 0-1.4-.3-1.7-.6-.4-.5-.6-1.1-.6-2 0-.9.2-1.6.7-2.1.3-.4.8-.7 1.4-.7.6 0 1.1.2 1.4.7.2.3.7 1.2.7 3.3v1c-.7.3-1.3.4-1.9.4z"/><path d="M33.7 27.6c2 0 3.8.6 5.3 1.8 1.5 1.2 2.6 2.9 3.4 5.1s1.2 4.9 1.2 8c0 3.1-.4 5.8-1.2 8s-1.9 3.9-3.4 5.1-3.2 1.8-5.3 1.8c-2 0-3.8-.6-5.3-1.8-1.5-1.2-2.6-2.9-3.4-5.1-.8-2.2-1.2-4.9-1.2-8s.4-5.8 1.2-8c.8-2.2 1.9-3.9 3.4-5.1 1.5-1.2 3.2-1.8 5.3-1.8m0 24.9c1.2 0 2.1-.8 2.7-2.5.6-1.7.9-4.2.9-7.5s-.3-5.8-.9-7.5c-.6-1.7-1.5-2.5-2.7-2.5-1.2 0-2.1.8-2.7 2.5-.6 1.7-.9 4.2-.9 7.5s.3 5.8.9 7.5c.6 1.7 1.5 2.5 2.7 2.5m0-26.4c-2.4 0-4.5.7-6.2 2.1-1.7 1.4-3 3.3-3.9 5.8-.8 2.4-1.3 5.2-1.3 8.5s.4 6.1 1.3 8.5c.9 2.5 2.2 4.4 3.9 5.8 1.7 1.4 3.8 2.1 6.2 2.1s4.5-.7 6.2-2.1c1.7-1.4 3-3.3 3.9-5.8.8-2.4 1.3-5.2 1.3-8.5s-.4-6.1-1.3-8.5c-.9-2.5-2.2-4.4-3.9-5.8-1.8-1.4-4-2.1-6.2-2.1zm0 24.9c-.6 0-1-.8-1.3-1.6-.6-1.5-.8-3.9-.8-7s.3-5.4.8-7c.3-.7.7-1.6 1.3-1.6.6 0 1 .8 1.3 1.6.6 1.5.8 3.9.8 7s-.3 5.4-.8 7c-.3.8-.8 1.6-1.3 1.6z"/></g>
</symbol>
<symbol id="icon-affordable-costs" viewBox="0 0 64 64">
<title>affordable-costs</title>
<path d="M44.9 36.4c.2-.3.1-.8-.2-1.1-4.2-2.8-9.8-1.7-12.6 2.5s-1.7 9.8 2.5 12.6c4.2 2.8 9.8 1.7 12.6-2.5 2-3.1 2-7 0-10.1-.2-.3-.7-.4-1.1-.2-.3.2-.4.7-.2 1.1 2.3 3.5 1.4 8.2-2.1 10.5-3.5 2.3-8.2 1.4-10.5-2.1-2.3-3.5-1.4-8.2 2.1-10.5 2.6-1.7 5.9-1.7 8.4 0 .4.2.9.1 1.1-.2z"/><path d="M39.7 30.8c-6.7 0-12.1 5.4-12.2 12.2 0 2.7.9 5.3 2.5 7.4.3.3.8.4 1.1.1.3-.3.4-.7.1-1-1.4-1.9-2.2-4.1-2.2-6.5 0-5.9 4.8-10.6 10.6-10.6 5.9 0 10.6 4.8 10.6 10.6s-4.8 10.6-10.6 10.6c-2.3 0-4.6-.8-6.5-2.2-.3-.3-.8-.2-1.1.1-.3.3-.2.8.1 1.1 2.1 1.6 4.7 2.5 7.4 2.5 6.7-.1 12.1-5.6 12-12.3.1-6.6-5.2-12-11.8-12zM51.8 21.7c-4.4 0-8.2 3.1-9 7.5-.1.4.2.8.6.9h.1c.4 0 .7-.3.7-.6.8-4.1 4.7-6.9 8.9-6.1 1 .2 2 .6 2.8 1.2.4.2.8.1 1-.2.2-.3.1-.8-.2-1-1.3-1.2-3.1-1.8-4.9-1.7zM53.2 38.2c-.4.1-.7.5-.6.9.1.4.4.6.7.6h.1c5-.9 8.2-5.7 7.3-10.6-.2-1.2-.7-2.4-1.4-3.4-.2-.3-.7-.4-1.1-.2-.3.2-.4.7-.2 1 2.3 3.5 1.4 8.2-2.1 10.5-.7.7-1.7 1.1-2.7 1.2z"/><path d="M51.8 18.6c-5.8 0-10.7 4.1-11.9 9.7-.1.3-.1.5-.1.8-.1.5.2.9.6.9.4.1.8-.2.9-.6 0-.2.1-.5.1-.7 1.2-5.8 6.8-9.5 12.6-8.3s9.5 6.8 8.3 12.6c-.9 4.2-4.1 7.4-8.3 8.3-.2 0-.5.1-.7.1-.4.1-.7.4-.7.9.1.4.4.7.8.7h.1c.3 0 .5-.1.8-.1 6.6-1.3 10.8-7.7 9.5-14.3-1.2-5.9-6.2-10-12-10zM39.7 36.1c.5 0 1 .4 1 1v.1c0 .1.1.2.1.2 1.4.4 2.2 1.5 2.2 3.2 0 .5-.4 1-1 1-.5 0-1-.4-1-1 0-.7-.2-1.3-1.3-1.3-1.2 0-1.3.6-1.3 1.3 0 .6.5.9 1.7 1.4 1.2.5 2.9 1.3 2.9 3.2 0 1.6-.8 2.8-2.2 3.2-.1 0-.1.1-.1.2v.2c0 .5-.4 1-1 1-.5 0-1-.4-1-1V48.5c0-.1 0-.2-.1-.2-1.4-.4-2.2-1.5-2.2-3.2 0-.5.4-1 1-1 .5 0 1 .4 1 1v.1c0 .7.2 1.3 1.3 1.3.7 0 1.3-.2 1.3-1.3 0-.6-.5-.9-1.7-1.4-1.2-.5-2.9-1.3-2.9-3.3 0-1.6.8-2.8 2.2-3.2.1 0 .1-.1.1-.2V37c0-.4.4-.9 1-.9"/><path d="M52.2 29.9c-1.2-.5-1.7-.8-1.7-1.4 0-.7.2-1.3 1.3-1.3 1.2 0 1.3.6 1.3 1.3 0 .5.4 1 1 1 .5 0 1-.4 1-1v-.1c0-1.6-.8-2.8-2.2-3.2-.1 0-.1-.1-.1-.2 0-.5-.4-1-1-1-.5 0-1 .4-1 1v.1c0 .1 0 .2-.1.2-1.4.4-2.2 1.5-2.2 3.2 0 2 1.7 2.7 2.9 3.3 1.2.5 1.7.8 1.7 1.4 0 1.2-.6 1.3-1.3 1.3-1.2 0-1.3-.6-1.3-1.3 0-.5-.4-1-1-1-.4 0-.7.2-.9.5 1.5 1.3 2.8 3 3.6 4.9.4-.2.6-.5.6-.9v-.2c0-.1 0-.2.1-.2 1.4-.4 2.2-1.5 2.2-3.2 0-1.9-1.6-2.7-2.9-3.2z"/><g><path d="M27.8 18.2c.5 0 1 .4 1 1v.1c0 .1 0 .2.1.2 1.4.4 2.2 1.5 2.2 3.2 0 .5-.4 1-1 1-.5 0-1-.4-1-1v-.1c0-.7-.2-1.3-1.3-1.3s-1.3.6-1.3 1.3c0 .6.5.9 1.7 1.4 1.2.5 2.9 1.3 2.9 3.2 0 1.6-.8 2.8-2.2 3.2-.1 0-.1.1-.1.2v.2c0 .5-.4 1-1 1-.5 0-1-.4-1-1V30.5c0-.1 0-.2-.1-.2-1.4-.4-2.2-1.5-2.2-3.2 0-.5.5-1 1-1s.9.4 1 1c0 .7.2 1.3 1.3 1.3.7 0 1.3-.2 1.3-1.3 0-.6-.5-.9-1.7-1.4-1.2-.5-2.9-1.3-2.9-3.3 0-1.6.8-2.8 2.2-3.2.1 0 .1-.1.1-.2v-.1c0-.2.4-.7 1-.7M11.5 24.1c.5 0 1 .4 1 1 0 .5-.4 1-1 1-.5 0-1-.4-1-1s.4-1 1-1"/><path d="M54.6 8.9c.5 0 1 .4 1 1v6.7c-.7-.2-1.3-.3-2-.4v-5.1c0-.1-.1-.2-.2-.2H2.2c-.1 0-.2.1-.2.2v28c0 .1.1.2.2.2h22.4c-.1.7-.2 1.3-.3 2H1c-.5 0-1-.4-1-1V9.9c0-.5.4-1 1-1h53.6"/><path d="M46.4 13.6c.5 0 1 .4 1 1 0 .7.2 1.3.5 1.9-.7.2-1.3.4-1.9.6-.2-.4-.4-.9-.5-1.3 0-.1-.1-.1-.2-.1H34.8c-.1 0-.1 0-.2.1 0 .1 0 .1.1.2 2.2 1.7 3.8 4.1 4.3 6.8-.8 1.2-1.4 2.5-1.9 3.9.8-5.2-2.7-10-7.9-10.9-5.2-.8-10 2.7-10.9 7.9s2.7 10 7.9 10.9h.2c-.1.1-.2.2-.2.4v.1c-.1.2-.2.3-.2.4l-.1.1v.1c-.1.1-.1.2-.2.4l-.1.2c0 .1-.1.2-.1.3H9.2c-.5 0-1-.4-1-1 0-2-1.6-3.7-3.7-3.7-.5 0-1-.4-1-1V19.2c0-.5.4-1 1-1 2 0 3.7-1.6 3.7-3.7 0-.5.4-1 1-1h37.2M10.2 34.6h10.6c.1 0 .1 0 .2-.1 0-.1 0-.1-.1-.2-1.4-1.1-2.5-2.4-3.4-4-1.7-3.3-1.7-7.2 0-10.4.8-1.6 1.9-2.9 3.3-4 .1-.1.1-.2 0-.2l-.1-.1H10.2c-.1 0-.2.1-.2.1-.4 2.2-2.2 4-4.4 4.4-.1 0-.1.1-.1.2v9.6c0 .1.1.2.1.2 2.2.4 4 2.2 4.4 4.4 0 0 .1.1.2.1"/></g>
</symbol>
<symbol id="icon-calendar" viewBox="0 0 64 64">
<title>calendar</title>
<path d="M.9 6.8c-.5 0-.9.4-.9.9v55.4c0 .5.4.9.9.9h62.2c.5 0 .9-.4.9-.9V7.7c0-.5-.4-.9-.9-.9h-5.9V3.6c0-2-1.6-3.6-3.6-3.6S50 1.6 50 3.6v3.2h-3.6V3.6c0-2-1.7-3.6-3.7-3.5-1.9 0-3.5 1.6-3.5 3.5v3.2h-3.6V3.6C35.6 1.6 34 0 32 0s-3.6 1.6-3.6 3.6v3.2h-3.6V3.6c0-2-1.7-3.6-3.7-3.5-1.9 0-3.5 1.6-3.5 3.5v3.2H14V3.6c0-2-1.7-3.6-3.7-3.5-1.9 0-3.5 1.6-3.5 3.5v3.2H.9zm61.3 55.4H1.8V8.6h4.9v3.1c0 2 1.7 3.6 3.7 3.5 1.9 0 3.5-1.6 3.5-3.5V8.6h3.6v3.1c0 2 1.7 3.6 3.7 3.5 1.9 0 3.5-1.6 3.5-3.5V8.6h3.6v3.1c0 2 1.6 3.6 3.6 3.6s3.6-1.6 3.6-3.6V8.6h3.6v3.1c0 2 1.7 3.6 3.7 3.5 1.9 0 3.5-1.6 3.5-3.5V8.6H50v3.1c0 2 1.6 3.6 3.6 3.6s3.6-1.6 3.6-3.6V8.6h4.9l.1 53.6zm-8.6-48.7c-1 0-1.8-.8-1.8-1.8V3.6c0-1 .8-1.8 1.8-1.8s1.8.8 1.8 1.8v8.1c0 1-.8 1.8-1.8 1.8zm-10.8 0c-1 0-1.8-.8-1.8-1.8V3.6c0-1 .9-1.8 1.9-1.7.9 0 1.7.8 1.7 1.7v8.1c0 1-.8 1.8-1.8 1.8zm-10.8 0c-1 0-1.8-.8-1.8-1.8V3.6c0-1 .8-1.8 1.8-1.8s1.8.8 1.8 1.8v8.1c0 1-.8 1.8-1.8 1.8zm-10.8 0c-1 0-1.8-.8-1.8-1.8V3.6c0-1 .8-1.8 1.8-1.8s1.8.8 1.8 1.8v8.1c0 1-.8 1.8-1.8 1.8zm-10.8 0c-1 0-1.8-.8-1.8-1.8V3.6c0-1 .8-1.8 1.8-1.8s1.8.8 1.8 1.8v8.1c0 1-.8 1.8-1.8 1.8z"/><path d="M13.1 23.9H7.7c-.7 0-1.4.6-1.4 1.4v5.4c0 .7.6 1.4 1.4 1.4h5.4c.7 0 1.4-.6 1.4-1.4v-5.4c-.1-.8-.7-1.4-1.4-1.4zM23.9 23.9h-5.4c-.7 0-1.4.6-1.4 1.4v5.4c0 .7.6 1.4 1.4 1.4h5.4c.7 0 1.4-.6 1.4-1.3v-5.4c-.1-.9-.7-1.5-1.4-1.5zM34.7 23.9h-5.4c-.7 0-1.4.6-1.4 1.4v5.4c0 .7.6 1.4 1.4 1.4h5.4c.7 0 1.4-.6 1.4-1.4v-5.4c0-.8-.7-1.4-1.4-1.4zM45.5 23.9h-5.4c-.7 0-1.4.6-1.4 1.4v5.4c0 .7.6 1.4 1.4 1.4h5.4c.7 0 1.4-.6 1.4-1.4v-5.4c0-.8-.6-1.4-1.4-1.4zM56.3 23.9h-5.4c-.7 0-1.4.6-1.4 1.4v5.4c0 .7.6 1.4 1.4 1.4h5.4c.7 0 1.4-.6 1.4-1.4v-5.4c0-.8-.6-1.4-1.4-1.4zM13.1 34.7H7.7c-.7 0-1.4.6-1.4 1.4v5.4c0 .7.6 1.4 1.4 1.4h5.4c.7 0 1.4-.6 1.4-1.4V36c-.1-.7-.7-1.3-1.4-1.3zM23.9 34.7h-5.4c-.7 0-1.4.6-1.4 1.4v5.4c0 .7.6 1.4 1.4 1.4h5.4c.7 0 1.4-.6 1.4-1.3V36c-.1-.7-.7-1.3-1.4-1.3zM34.7 34.7h-5.4c-.7 0-1.4.6-1.4 1.4v5.4c0 .7.6 1.4 1.4 1.4h5.4c.7 0 1.4-.6 1.4-1.4V36c0-.7-.7-1.3-1.4-1.3zM45.5 34.7h-5.4c-.7 0-1.4.6-1.4 1.4v5.4c0 .7.6 1.4 1.4 1.4h5.4c.7 0 1.4-.6 1.4-1.4V36c0-.7-.6-1.3-1.4-1.3zM56.3 34.7h-5.4c-.7 0-1.4.6-1.4 1.4v5.4c0 .7.6 1.4 1.3 1.4h5.4c.7 0 1.4-.6 1.4-1.4V36c.1-.7-.5-1.3-1.3-1.3zM13.1 45.5H7.7c-.7 0-1.4.6-1.4 1.4v5.4c0 .7.6 1.4 1.4 1.4h5.4c.7 0 1.4-.6 1.4-1.4v-5.4c-.1-.8-.7-1.4-1.4-1.4zM23.9 45.5h-5.4c-.7 0-1.4.6-1.4 1.4v5.4c0 .7.6 1.4 1.4 1.4h5.4c.7 0 1.4-.6 1.4-1.3V47c-.1-.9-.7-1.5-1.4-1.5zM34.7 45.5h-5.4c-.7 0-1.4.6-1.4 1.4v5.4c0 .7.6 1.4 1.4 1.4h5.4c.7 0 1.4-.6 1.4-1.4v-5.4c0-.8-.7-1.4-1.4-1.4zM45.5 45.5h-5.4c-.7 0-1.4.6-1.4 1.4v5.4c0 .7.6 1.4 1.4 1.4h5.4c.7 0 1.4-.6 1.4-1.4v-5.4c0-.8-.6-1.4-1.4-1.4z"/>
</symbol>
<symbol id="icon-no-exams" viewBox="0 0 64 64">
<title>no-exams</title>
<path d="M42.5 52.4H14.7c-1.3 0-2.4-1.1-2.4-2.4V16.9c0-.4.2-.8.5-1.1l3.8-3.8c.3-.3.7-.4 1.1-.4h24.9c1.3 0 2.4 1.1 2.4 2.4v8c0 .4-.3.7-.6.7-.4 0-.7-.3-.7-.6V14c0-.6-.5-1-1.1-1h-25c-.1 0-.1 0-.1.1l-3.8 3.8-.1.1v33c0 .6.5 1 1.1 1h27.8c.6 0 1.1-.5 1.1-1v-9.1c0-.4.3-.7.6-.7s.7.3.7.6V50c0 1.4-1 2.4-2.4 2.4z"/><path d="M19.7 19.7h-4.1c-.4 0-.7-.3-.7-.7 0-.4.3-.7.7-.7H19V15c0-.4.3-.7.6-.7.4 0 .7.3.7.6V19.1c.1.3-.2.6-.6.6.1 0 0 0 0 0zM26.6 49c-.2 0-.4-.1-.5-.2-.2-.2-.2-.5-.2-.7l2.1-5.8c0-.1.1-.2.2-.3L46 24.2c1.4-1.4 3.5-1.4 4.8-.1.6.6 1 1.5.9 2.4 0 .9-.4 1.8-1 2.4L32.9 46.7c-.1.1-.2.1-.3.2L26.8 49h-.2zm2.6-6.1l-1.5 4.3 4.3-1.5L49.7 28c.4-.4.6-.9.7-1.5 0-.5-.2-1-.5-1.4-.8-.8-2.1-.7-2.9.1L29.2 42.9zm3.2 3.4z"/><path d="M49.6 29.8c-.2 0-.4-.1-.5-.2l-3.8-3.8c-.3-.3-.3-.7 0-1 .3-.3.7-.3 1 0l3.8 3.8c.3.3.3.7 0 1-.2.1-.4.2-.5.2zM48.2 31.1c-.2 0-.4-.1-.5-.2L44 27.1c-.3-.3-.2-.7 0-1 .3-.3.7-.3.9 0l3.8 3.8c.3.3.3.7 0 1-.1.1-.3.2-.5.2zM33.1 46.3c-.2 0-.4-.1-.5-.2l-3.8-3.8c-.3-.3-.3-.7 0-1 .3-.3.7-.3 1 0l3.8 3.8c.3.3.3.7 0 1-.2.1-.4.2-.5.2zM36.1 27.2H18.4c-.4 0-.7-.3-.6-.7 0-.3.3-.6.6-.6h17.7c.4 0 .7.3.6.7 0 .3-.3.6-.6.6zM30.6 34H18.4c-.4 0-.7-.3-.7-.7 0-.4.3-.7.7-.7h12.3c.4 0 .7.3.7.7-.1.4-.4.7-.8.7z"/><path d="M32 64C14.4 64 0 49.6 0 32c0-6.9 2.2-13.6 6.3-19.1.4-.5 1-.6 1.5-.2.5.4.6 1 .2 1.5C4.2 19.3 2.1 25.6 2.2 32c0 16.5 13.4 29.8 29.8 29.8 7.4 0 14.5-2.7 20-7.7L9 11.2c-.4-.4-.4-1.1 0-1.5C15 3.5 23.3 0 32 0c17.6 0 32 14.4 32 32 0 7.2-2.4 14.1-6.8 19.7-.4.5-1 .5-1.5.2-.5-.4-.5-1-.2-1.5 4.1-5.2 6.4-11.7 6.4-18.4C61.8 15.5 48.5 2.2 32 2.2c-7.7 0-15.1 3-20.7 8.3l42.8 42.8.1.1c.5.4.5 1.1.2 1.5l-.1.1c-6 5.8-14 9-22.3 9z"/>
</symbol>
<symbol id="icon-no-gre" viewBox="0 0 64 64">
<title>no-gre</title>
<path d="M55.1 9.9c-.4-.4-1.1-.5-1.5 0L38.2 24.1c-.1-.1-.3-.2-.4-.3-1.1-.7-2.4-.9-4-.9h-5.7c-.5 0-1 .4-1 .9v10.5l-3.5 3.3V32c0-.5-.3-.9-.9-.9h-5.4c-.5 0-.8.4-.8.8 0 .5.4.9.8.9h4.4v3.5c-1.1.8-2.7 1.4-4.5 1.4-3.6 0-6.5-2.6-6.5-6.7 0-3.6 2.9-6.6 6.5-6.6 1 0 1.7.1 2.3.4 1.2.4 1.5.8 2 .8s.9-.4.9-.9-.5-.9-1.2-1.2c-1.1-.5-2.3-.8-4-.8-4.7 0-8.5 3.8-8.5 8.3 0 5.4 3.8 8.4 8.4 8.4 1.9 0 3.5-.6 4.6-1.3v.4c0 .3.1.5.2.6L9 51.1c-4.7-5.7-7.1-12.9-6.8-20.2.7-16.4 14.6-29.3 31-28.6 6.4.2 12.6 2.6 17.6 6.6.5.4 1.1.3 1.5-.2.4-.5.3-1.1-.1-1.5C46.9 2.9 40.2.4 33.3.1 15.6-.7.7 13.1 0 30.7-.3 39 2.6 47.2 8.2 53.3l.1.1c.5.4 1.1.4 1.5-.1l.1-.1 17.3-16v1.2c0 .5.4.9 1 .9.5 0 1-.4 1-.9v-3l2.9-2.7h1.3L38 39c.2.3.5.5.8.5.5 0 1-.5 1-1 0-.2-.1-.5-.3-.6l-4-5.1c.8-.1 1.6-.4 2.3-1 1.2-.9 1.9-2.1 1.9-3.9 0-.7-.1-1.4-.3-1.9l14.9-13.7c5.1 5.8 7.8 13.3 7.5 21-.6 16.4-14.5 29.3-31 28.6-6.7-.2-13.1-2.7-18.1-7.1-.5-.4-1.1-.3-1.5.1-.4.5-.3 1.1.1 1.5 5.4 4.7 12.3 7.3 19.4 7.6 17.7.7 32.6-13.1 33.3-30.7.3-8.7-2.9-17.1-8.9-23.4zm-26 21.3v-6.7h4.5c1.1 0 2 .1 2.8.6.2.1.3.2.4.3l-6.3 5.8h-1.4zm8.7-3.4c0 1.4-.6 2.3-1.4 2.8-.7.4-1.6.5-2.6.5l4-3.7c-.1.2 0 .3 0 .4z"/><path d="M53.7 24.6c.5 0 .8-.4.8-.9s-.4-.8-.8-.8H43.6c-.5 0-1 .4-1 .9v14.4c0 .5.4.9 1 .9h10.1c.5 0 .8-.4.8-.8 0-.5-.4-.9-.8-.9h-9.1v-5.6h7.8c.5 0 .8-.4.8-.8 0-.5-.4-.9-.8-.9h-7.8v-5.6l9.1.1z"/>
</symbol>
<symbol id="icon-piggy-bank" viewBox="0 0 64 64">
<title>piggy-bank</title>
<path d="M50.7 26.7c0-2.9-2.4-5.3-5.3-5.3s-5.3 2.4-5.3 5.3 2.4 5.3 5.3 5.3 5.3-2.4 5.3-5.3zm-8 0c0-1.5 1.2-2.7 2.7-2.7 1.5 0 2.7 1.2 2.7 2.7s-1.2 2.7-2.7 2.7c-1.5-.1-2.7-1.3-2.7-2.7zM23.1 15.6c-1.7.5-3.3 1.1-4.9 1.8-.7.3-1 1.1-.7 1.7.2.5.7.8 1.2.8.2 0 .3 0 .5-.1 5.5-2.3 9.9-3.7 17.7-1.3.7.2 1.4-.2 1.6-.9.2-.7-.2-1.4-.9-1.6-1.4-.4-2.7-.8-4.1-1 3.2-3.1 3.2-8.1.2-11.3C30.6.5 25.6.5 22.4 3.5s-3.2 8.1-.2 11.3c.4.4.6.6.9.8zM28 4c2.9 0 5.3 2.4 5.3 5.3S31 14.7 28 14.7s-5.3-2.4-5.3-5.3c0-3 2.4-5.4 5.3-5.4z"/><path d="M63.2 29.4l-5.8-2.3c-.1-3.7-1.8-9.7-7.9-12l1.2-9.6c.1-.7-.4-1.4-1.2-1.5-.3 0-.7 0-1 .3l-10.7 8c-.6.4-.7 1.3-.3 1.9.4.6 1.3.7 1.9.3l8.1-6.1-.9 7.5c-.1.7.3 1.3 1 1.4 7.5 2.2 7.1 10.3 7 10.6 0 .6.3 1.1.8 1.3l5.8 2.3v8.9l-5.8 2.3c-.1.1-.2.1-.3.2 0 .1-.1.2-.1.3-.1.1-.1.1-.1.2s-.1.2-.1.3c0 0 0 .1-.1.1-1.3 7.6-6.6 8.2-6.8 8.2h-.1c-.1 0-.3.1-.4.1-.1 0-.1.1-.2.1s-.1.1-.2.2-.2.3-.3.5L44.4 60h-4.9l-2.3-4.6c0-.1-.1-.1-.1-.2s-.1-.1-.1-.2l-.2-.2c-.1 0-.1-.1-.2-.1s-.2 0-.3-.1h-.7c-.1 0-5.4 2.1-12.5 0h-.8c-.2 0-.3.1-.5.2-.1 0-.1.1-.2.2l-.2.2-.1.1-2.1 4.7h-4.8L12 51.6c-.1-.2-.1-.3-.2-.5h-.1l-.3-.3C6.2 48 2.7 41.5 2.7 34.7c0-9.1 6.2-17.1 15-19.4.7-.2 1.1-.9 1-1.6s-.9-1.1-1.6-1c-3.8 1-7.3 3-10.2 5.8-.3-.5-.5-.9-.8-1.4C7.9 14.9 9.6 12.2 9 10c-.2-1-1.1-2.3-3.5-2.8-2.5-.5-3.6.4-4.2 1.2-1.3 1.9 0 5.4 1.5 8.4-.7.8-1.5 1.5-2.3 2.2-.6.5-.7 1.3-.2 1.9.5.6 1.3.7 1.9.2 0 0 .1 0 .1-.1.4-.3 1.1-.9 1.9-1.8.3.5.6 1 .8 1.3-3.2 4-5 9-5 14.1 0 7.7 3.7 14.8 9.5 18.2l2.5 8.8c.2.6.7 1 1.3 1H20c.5 0 1-.3 1.2-.7l2.2-4.4c2 .5 4.1.8 6.1.8s3.9-.2 5.8-.7l2.2 4.3c.2.4.7.7 1.2.7h6.7c.6 0 1.1-.4 1.3-.9l2.4-7.2c2.7-.6 6.8-3.1 8.1-9.5l6-2.4c.5-.2.8-.7.8-1.2V30.7c0-.6-.3-1.1-.8-1.3zM4.7 14.5c-1.1-2.3-1.6-4.1-1.2-4.7 0 0 .2-.1.5-.1s.6 0 .9.1c.6.1 1.3.4 1.5.9.2.8-.5 2.3-1.7 3.8z"/>
</symbol>
<symbol id="icon-trophy" viewBox="0 0 64 64">
<title>trophy</title>
<path d="M32 40.2c-5.2 0-9.7-1.9-13.4-5.5C8.2 24.2 8.4 2.6 8.4 1.7c0-.6.5-1.1 1.1-1.1h44.9c.6 0 1.1.5 1.1 1.1 0 .9.2 22.5-10.2 33-3.6 3.7-8.1 5.5-13.3 5.5zM10.7 2.8c.1 4.5 1.1 21.7 9.5 30.3C23.4 36.3 27.4 38 32 38s8.6-1.6 11.8-4.9c8.4-8.5 9.4-25.7 9.5-30.2l-42.6-.1z"/><path d="M32 34c-6.3 0-11-4-13.7-11.5-.2-.6.1-1.2.7-1.4.6-.2 1.2.1 1.4.7 2.4 6.6 6.3 10 11.6 10 .6 0 1.1.5 1.1 1.1.1.6-.4 1.1-1.1 1.1.1 0 .1 0 0 0zM18.1 33.6c-7.2 0-12.7-4.9-15.7-14.2C.2 12.6 0 6 0 5.7c0-.3.1-.6.3-.8.2-.2.5-.3.8-.3h8.4v2.2H2.3c.3 5 2.5 24.5 15.8 24.5v2.3zM45.9 33.6v-2.2c13.2 0 15.4-19.5 15.8-24.5h-7.2V4.5h8.4c.6 0 1.1.5 1.1 1.2 0 .3-.2 6.9-2.4 13.7-3 9.3-8.4 14.2-15.7 14.2zM32 50.5c-2.2 0-9.4-.2-9.4-3.1v-.3l.2-.3s2.8-4.9.6-8.8l2-1.1c2.3 4.1.6 8.6-.2 10.3.9.4 3.3 1 6.9 1 3 0 5.5-.5 6.7-.9-1.8-2.4-2.7-6.2 0-10.5l1.9 1.2c-2.9 4.7-.4 7.8.4 8.6.4.4.5 1 .3 1.5-.8 1.9-7.3 2.4-9.4 2.4z"/><path d="M32 55.8c-6.8 0-18.4-1.1-18.4-5.1 0-2.8 5.5-4.1 10.2-4.7l.3 2.2c-5.8.7-8 2-8.2 2.5.4.9 6.3 2.9 16.2 2.9s15.8-1.9 16.2-2.9c-.2-.4-2.5-1.7-8.4-2.4l.3-2.2c4.7.6 10.3 1.8 10.3 4.7-.1 3.9-11.7 5-18.5 5z"/><path d="M32 63.4c-6.8 0-18.4-1.1-18.4-5.1v-7.7h2.2v7.7c.4 1 6.3 2.9 16.2 2.9s15.8-1.9 16.2-2.9v-7.7h2.2v7.7c0 4-11.6 5.1-18.4 5.1z"/>
</symbol>
<symbol id="icon-two-calendars" viewBox="0 0 64 64">
<title>two-calendars</title>
<path d="M56.633 20.025l-3.044-0.441 0.242-1.636c0.171-1.038-0.54-2.005-1.564-2.176-1.038-0.171-2.005 0.54-2.176 1.564 0 0.014 0 0.043-0.014 0.057l-0.242 1.636-1.863-0.27 0.242-1.636c0.156-1.038-0.569-1.991-1.607-2.148s-1.991 0.569-2.148 1.607l-0.242 1.636-1.863-0.27 0.242-1.636c0.142-1.038-0.583-1.991-1.621-2.133-1.024-0.142-1.963 0.569-2.119 1.579l-0.242 1.636-1.863-0.27 0.242-1.636c0.128-1.038-0.597-1.991-1.636-2.119-1.010-0.128-1.948 0.569-2.119 1.579l-0.242 1.636-1.863-0.27 0.242-1.636c0.156-1.038-0.569-1.991-1.607-2.148s-1.991 0.569-2.148 1.607l-0.242 1.636-3.044-0.441c-0.256-0.043-0.498 0.142-0.54 0.398l-0.668 4.58c-0.868-0.455-1.934-0.114-2.375 0.754-0.185 0.356-0.242 0.768-0.171 1.152l0.299 1.508-1.721 0.341-0.299-1.508c-0.213-0.953-1.166-1.55-2.105-1.337-0.924 0.199-1.508 1.095-1.351 2.020l0.299 1.508-1.735 0.341-0.299-1.508c-0.185-0.953-1.124-1.579-2.076-1.394s-1.579 1.124-1.394 2.076l0.299 1.508-2.816 0.569c-0.242 0.043-0.398 0.284-0.356 0.526l5.262 26.624c0.043 0.242 0.284 0.398 0.526 0.356l28.572-5.632 10.624 1.55c0.256 0.043 0.498-0.142 0.54-0.398l4.181-28.8c0.043-0.27-0.142-0.512-0.398-0.54zM50.418 21.746l0.612-4.21c0.071-0.512 0.54-0.882 1.052-0.811s0.882 0.54 0.811 1.052v0.028l-0.612 4.21c-0.071 0.512-0.54 0.882-1.052 0.811s-0.882-0.54-0.811-1.052c-0.014-0.014-0.014-0.014 0-0.028zM44.8 20.921l0.612-4.21c0.071-0.512 0.555-0.868 1.067-0.796s0.868 0.555 0.796 1.067l-0.612 4.21c-0.071 0.512-0.555 0.868-1.067 0.796s-0.868-0.54-0.796-1.067zM39.182 20.11l0.612-4.21c0.071-0.512 0.555-0.868 1.067-0.796s0.868 0.555 0.796 1.067l-0.612 4.21c-0.071 0.512-0.555 0.868-1.067 0.796s-0.868-0.555-0.796-1.067zM33.564 19.3l0.612-4.21c0.071-0.512 0.555-0.868 1.067-0.796s0.868 0.555 0.796 1.067l-0.612 4.21c-0.071 0.512-0.555 0.868-1.067 0.796s-0.868-0.555-0.796-1.067zM27.947 18.475l0.612-4.21c0.071-0.512 0.555-0.882 1.067-0.796 0.512 0.071 0.882 0.555 0.796 1.067l-0.612 4.21c-0.071 0.512-0.555 0.868-1.067 0.796s-0.868-0.555-0.796-1.067zM22.158 21.006c0.313-0.057 0.626 0.057 0.839 0.299l-0.697 4.821c-0.028-0.057-0.043-0.114-0.057-0.185l-0.768-3.897c-0.1-0.469 0.199-0.939 0.683-1.038zM16.967 22.044c0.469-0.1 0.939 0.213 1.038 0.697l0.768 3.897c0.1 0.484-0.213 0.939-0.697 1.038s-0.939-0.213-1.038-0.697l-0.768-3.897c-0.1-0.484 0.213-0.939 0.697-1.038zM11.762 23.068c0.469-0.1 0.939 0.213 1.038 0.683l0.768 3.897c0.1 0.484-0.213 0.939-0.697 1.038s-0.939-0.213-1.038-0.697l-0.768-3.897c-0.085-0.469 0.228-0.939 0.697-1.024zM13.383 52.878l-5.092-25.756 2.375-0.469 0.299 1.508c0.185 0.953 1.109 1.593 2.076 1.408s1.593-1.109 1.408-2.076v-0.014l-0.299-1.508 1.721-0.341 0.299 1.508c0.171 0.967 1.095 1.607 2.048 1.436s1.607-1.095 1.436-2.048c0-0.014-0.014-0.043-0.014-0.057l-0.299-1.508 1.721-0.341 0.299 1.508c0.085 0.469 0.37 0.882 0.768 1.138l-0.91 6.172-0.1-0.512c-0.071-0.356-0.412-0.597-0.782-0.526l-2.603 0.512c-0.356 0.071-0.597 0.412-0.526 0.782l0.512 2.603c0.071 0.356 0.412 0.597 0.768 0.526l2.276-0.455-0.199 1.394-1.82 0.356c-0.356 0.071-0.597 0.412-0.526 0.782l0.526 2.588c0.071 0.356 0.412 0.597 0.782 0.526l0.441-0.085-0.199 1.394c-0.356 0.071-0.583 0.427-0.512 0.768l0.512 2.603c0.071 0.356 0.412 0.597 0.782 0.526l2.603-0.512c0.356-0.071 0.597-0.412 0.526-0.782l-0.071-0.327 1.408 0.199c0.128 0.284 0.427 0.455 0.74 0.384l0.825-0.156 12.459 1.806-25.657 5.049zM51.982 48.725l-31.36-4.565 0.071-0.526 0.085-0.555 0.199-1.394 0.597-4.124 1.465-10.041 0.128-0.882 0.427-2.887 0.37-2.546 0.711-4.878 2.574 0.37-0.242 1.636c-0.156 1.038 0.569 1.991 1.607 2.148s1.991-0.569 2.148-1.607l0.242-1.636 1.863 0.27-0.242 1.636c-0.142 1.038 0.583 1.991 1.621 2.133 1.024 0.142 1.963-0.569 2.119-1.579l0.242-1.636 1.863 0.27-0.242 1.636c-0.156 1.038 0.569 1.991 1.607 2.148s1.991-0.569 2.148-1.607l0.242-1.636 1.863 0.27-0.242 1.636c-0.156 1.038 0.569 1.991 1.607 2.148s1.991-0.569 2.148-1.607l0.242-1.636 1.863 0.27-0.242 1.636c-0.128 1.038 0.597 1.991 1.636 2.119 1.010 0.128 1.948-0.569 2.119-1.579l0.242-1.636 2.574 0.37-4.053 27.861z"></path>
<path d="M12.43 33.934l2.603-0.498c0.356-0.071 0.711 0.171 0.768 0.526l0.498 2.603c0.071 0.356-0.171 0.711-0.526 0.768l-2.588 0.498c-0.356 0.071-0.711-0.171-0.768-0.526l-0.512-2.603c-0.071-0.356 0.156-0.697 0.526-0.768zM13.582 39.111l2.603-0.512c0.356-0.071 0.711 0.156 0.782 0.526l0.512 2.603c0.071 0.356-0.156 0.711-0.526 0.782l-2.603 0.512c-0.356 0.071-0.711-0.156-0.782-0.526l-0.512-2.603c-0.057-0.356 0.171-0.711 0.526-0.782zM14.606 44.316l2.603-0.512c0.356-0.071 0.711 0.156 0.782 0.526l0.512 2.603c0.071 0.356-0.156 0.711-0.526 0.782l-2.603 0.512c-0.356 0.071-0.711-0.156-0.782-0.526l-0.498-2.617c-0.071-0.356 0.156-0.697 0.512-0.768zM25.259 28.018l0.398-2.802c0.057-0.384 0.412-0.654 0.796-0.597l2.802 0.398c0.384 0.057 0.654 0.412 0.597 0.796l-0.398 2.802c-0.057 0.384-0.412 0.654-0.796 0.597l-2.802-0.398c-0.384-0.043-0.654-0.398-0.597-0.796zM30.962 28.956l0.412-2.802c0.057-0.384 0.412-0.654 0.811-0.597l2.802 0.412c0.384 0.057 0.654 0.412 0.597 0.811l-0.412 2.802c-0.057 0.384-0.412 0.654-0.811 0.597l-2.802-0.412c-0.384-0.071-0.654-0.427-0.597-0.811zM36.58 29.767l0.412-2.802c0.057-0.384 0.412-0.654 0.811-0.597l2.802 0.412c0.384 0.057 0.654 0.412 0.597 0.811l-0.412 2.802c-0.057 0.384-0.412 0.654-0.811 0.597l-2.802-0.412c-0.384-0.057-0.654-0.427-0.597-0.811zM42.197 30.592l0.412-2.802c0.057-0.384 0.412-0.654 0.811-0.597l2.802 0.412c0.384 0.057 0.654 0.412 0.597 0.811l-0.412 2.802c-0.057 0.384-0.412 0.654-0.811 0.597l-2.802-0.412c-0.384-0.071-0.654-0.427-0.597-0.811zM47.815 31.403l0.412-2.802c0.057-0.384 0.412-0.654 0.811-0.597l2.802 0.412c0.384 0.057 0.654 0.412 0.597 0.811l-0.412 2.802c-0.057 0.384-0.412 0.654-0.811 0.597l-2.802-0.412c-0.384-0.057-0.654-0.427-0.597-0.811zM24.533 33.749l0.412-2.802c0.057-0.384 0.412-0.654 0.811-0.597l2.802 0.412c0.384 0.057 0.654 0.412 0.597 0.811l-0.412 2.802c-0.057 0.384-0.412 0.654-0.811 0.597l-2.802-0.412c-0.384-0.057-0.654-0.427-0.597-0.811zM30.151 34.574l0.412-2.802c0.057-0.384 0.412-0.654 0.811-0.597l2.802 0.412c0.384 0.057 0.654 0.412 0.597 0.811l-0.412 2.802c-0.057 0.384-0.412 0.654-0.811 0.597l-2.802-0.412c-0.384-0.071-0.654-0.427-0.597-0.811zM35.755 35.385l0.412-2.802c0.057-0.384 0.412-0.654 0.811-0.597l2.802 0.412c0.384 0.057 0.654 0.412 0.597 0.811l-0.412 2.802c-0.057 0.384-0.412 0.654-0.811 0.597l-2.802-0.412c-0.384-0.071-0.64-0.427-0.597-0.811zM41.372 36.196l0.412-2.802c0.057-0.384 0.412-0.654 0.811-0.597l2.802 0.412c0.384 0.057 0.654 0.412 0.597 0.811l-0.412 2.802c-0.057 0.384-0.412 0.654-0.811 0.597l-2.802-0.412c-0.384-0.057-0.654-0.412-0.597-0.811zM46.99 37.020l0.412-2.802c0.057-0.384 0.412-0.654 0.811-0.597l2.802 0.412c0.384 0.057 0.654 0.412 0.597 0.811l-0.412 2.802c-0.057 0.384-0.412 0.654-0.811 0.597l-2.802-0.412c-0.384-0.071-0.654-0.427-0.597-0.811zM23.708 39.367l0.412-2.802c0.057-0.384 0.412-0.654 0.811-0.597l2.802 0.412c0.384 0.057 0.654 0.412 0.597 0.811l-0.412 2.802c-0.057 0.384-0.412 0.654-0.811 0.597l-2.802-0.412c-0.384-0.071-0.654-0.427-0.597-0.811zM29.326 40.178l0.412-2.802c0.057-0.384 0.412-0.654 0.811-0.597l2.802 0.412c0.384 0.057 0.654 0.412 0.597 0.811l-0.412 2.802c-0.057 0.384-0.412 0.654-0.811 0.597l-2.802-0.412c-0.384-0.057-0.654-0.412-0.597-0.811zM34.944 41.003l0.412-2.802c0.057-0.384 0.412-0.654 0.811-0.597l2.802 0.412c0.384 0.057 0.654 0.412 0.597 0.811l-0.412 2.802c-0.057 0.384-0.412 0.654-0.811 0.597l-2.802-0.412c-0.384-0.071-0.654-0.427-0.597-0.811zM40.562 41.813l0.412-2.802c0.057-0.384 0.412-0.654 0.811-0.597l2.802 0.412c0.384 0.057 0.654 0.412 0.597 0.811l-0.412 2.802c-0.057 0.384-0.412 0.654-0.811 0.597l-2.802-0.412c-0.384-0.057-0.654-0.427-0.597-0.811z"></path>
</symbol>
<symbol id="icon-transfer-arrows" viewBox="0 0 64 64"><path d="M16.3 12.8c-.3 0-.5.1-.7.3L.4 27.9c-.6.5-.6 1.4 0 2l15.2 14.7c.3.3.8.4 1.1.2.4-.2.6-.5.7-.9v-7.1h12c.6 0 1-.5 1-1 0-.6-.5-1-1-1h-12v-5.9c0-.6-.5-1.1-1.1-1.1-.6 0-1.1.5-1.1 1.1v12.6L2.8 29.3c-.2-.2-.2-.6 0-.8l12.5-12.1V22c0 .6.5 1 1.1 1h17.1c.6 0 1-.4 1-1s-.5-1-1-1H17.4v-7.1c0-.4-.3-.8-.7-.9-.1-.1-.2-.2-.4-.2zM47.7 51.2c.3 0 .5-.1.7-.3l15.2-14.7c.6-.5.6-1.4 0-2L48.4 19.4c-.3-.3-.8-.4-1.1-.2-.4.2-.6.5-.7.9v7.1h-12c-.6 0-1 .5-1 1 0 .6.5 1 1 1h12v5.9c0 .6.5 1.1 1.1 1.1.6 0 1.1-.5 1.1-1.1V22.6l12.5 12.1c.2.2.2.6 0 .8L48.7 47.7v-5.6c0-.6-.5-1-1.1-1H30.5c-.6 0-1 .4-1 1s.5 1 1 1h16.1v7.1c0 .4.3.8.7.9.1.1.2.1.4.1z"/>
</symbol>
<symbol id="icon-online-classes" viewBox="0 0 64 64">
<path d="M39.2 48.8H24.8c-.4 0-.7-.3-.7-.7s.3-.7.7-.7h14.3c.4 0 .7.3.7.7s-.3.7-.6.7z"/><path d="M60.7 56.2H3.3c-1.8 0-3.3-1.5-3.3-3.3v-1.2c0-.2.1-.4.2-.5L4.9 44c.2-.3.5-.4.8-.4h52.6c.3 0 .6.2.8.4l4.8 7.2c.1.1.2.3.2.5v1.2c-.1 1.8-1.6 3.3-3.4 3.3zM1.8 52v.9c0 .8.7 1.5 1.5 1.5h57.4c.8 0 1.5-.7 1.5-1.5V52l-4.4-6.5H6.2L1.8 52z"/><path d="M63.1 52.6H.9c-.5 0-.9-.4-.9-.9s.4-.9.9-.9h62.2c.5 0 .9.4.9.9s-.4.9-.9.9zM58.3 45.5H5.7c-.5 0-.9-.4-.9-.9V10.5C4.8 9 6 7.8 7.5 7.8h49c1.5 0 2.7 1.2 2.7 2.7v34.1c0 .5-.4.9-.9.9zM6.6 43.6h50.8V10.5c0-.5-.4-.9-.9-.9h-49c-.5 0-.9.4-.9.9v33.1z"/><path d="M52.3 38.1h-4.8c-.4 0-.7-.3-.7-.7 0-.4.3-.7.7-.7h4.1V15.3H33.9v13.6c0 .4-.3.7-.7.7s-.7-.3-.7-.7V14.7c0-.4.3-.7.7-.7h19.1c.4 0 .7.3.7.7v22.7c0 .4-.3.7-.7.7z"/><path d="M27.2 41.6c-.4 0-.7-.3-.7-.7v-6.2c0-.4.3-.7.7-.7.2 0 .4.1.5.2l4.8 4.8h9.1c.9 0 1.7-.8 1.7-1.7V37c-.1-.8-.9-1.4-1.8-1.4h-7.3c-.2 0-.4-.1-.5-.2l-5.1-5.1c-1.2-1.2-2.9-1.9-4.6-1.9H14c-1.6 0-2.9 1.3-2.9 2.9V41c0 .4-.3.7-.7.7s-.6-.4-.6-.7v-9.6c0-2.4 1.9-4.3 4.3-4.3h10c2.1 0 4.1.8 5.6 2.3l4.9 4.9h7c1.6 0 2.9 1.1 3.2 2.6.3 1.7-.8 3.3-2.5 3.5h-9.9c-.2 0-.4-.1-.5-.2l-3.8-3.8V41c-.2.3-.5.6-.9.6zM20 26.1c-3.1 0-5.5-2.9-5.5-6.7 0-3 2.4-5.5 5.5-5.5 3 0 5.5 2.4 5.5 5.5 0 3.8-2.3 6.7-5.5 6.7zm0-10.8c-2.3 0-4.1 1.8-4.1 4.1 0 3.1 1.7 5.3 4.1 5.3s4.1-2.2 4.1-5.3c0-2.2-1.8-4.1-4.1-4.1z"/>
</symbol>
<symbol id="icon-start-times" viewBox="0 0 64 64">
	<path d="M13.5 41l1.6-.3c-.2-1.1-.3-2.3-.4-3.4h2.8c.1 1.3.2 2.5.5 3.7l1.6-.3c-.2-1.1-.4-2.2-.5-3.4h6.2v-1.6H4.5v1.6h8.6c.1 1.2.2 2.5.4 3.7z"/><path d="M57.7 19.8l3.2-3.5-1.6-1.5 1.5-1.6-1.2-1.1-1.5 1.6-1.7-1.5-3.2 3.5c-3.4-2.4-7.4-3.9-11.6-4.5v-3h2.3V2H33.2v6.1h2.3v3.1c-7.5.9-14.1 5.1-18.2 11.4l1.4.9c7.2-11 21.9-14.1 33-7s14.1 21.9 7 33c-7.2 11-21.9 14.1-33 7-2.8-1.8-5.2-4.2-7-7-.6-1-1.2-2-1.7-3.1h3.1c5.4 10.3 18.2 14.2 28.5 8.8 10.3-5.4 14.2-18.2 8.8-28.5-5.7-10.3-18.4-14.3-28.7-8.8-2.4 1.3-4.6 3-6.3 5.1l1.2 1c3.5-4.2 8.5-6.7 14-6.9v1.6h1.6V17c10.2.3 18.4 8.5 18.8 18.6h-1.8v1.6H58c-.4 10.2-8.6 18.3-18.8 18.6v-1.6h-1.6v1.6c-5.2-.3-10.2-2.6-13.6-6.6-.8-.9-1.6-1.9-2.2-3h3.5v-1.6h-16v1.6h5.8c5.4 13 20.3 19.1 33.3 13.6 13-5.4 19.1-20.3 13.6-33.3-1-2.3-2.5-4.6-4.3-6.7zM34.9 6.6V3.7h7.4v2.9h-7.4zm2.2 4.5V8.2H40v2.9h-2.9zm17.4 5.6l2-2.2 2.1 2-2 2.2c-.7-.8-1.4-1.4-2.1-2z"/><path d="M13.5 32l1.6.3c.2-1.4.6-2.7 1.1-4h3c-.3.8-.6 1.5-.8 2.3-.1.3-.1.6-.2.9l-.2.5 1.6.3.1-.5c0-.3.1-.5.2-.8.3-1 .6-1.9 1-2.8h4.4v-1.6H11.5v1.6h3c-.4 1.3-.7 2.5-1 3.8zM0 35.7h2.3v1.6H0zM4.8 44.7h2.3v1.6H4.8zM7 26.7h2.3v1.6H7zM49.3 24.6l-9.2 9.2c-1.5-.9-3.3-.4-4.2 1.1-.9 1.5-.4 3.3 1.1 4.2 1.5.9 3.3.4 4.2-1.1.5-.9.6-2.1 0-3l9.2-9.2-1.1-1.2zM38.6 38c-.8 0-1.4-.6-1.4-1.4 0-.8.6-1.4 1.4-1.4.8 0 1.4.6 1.4 1.4 0 .7-.6 1.4-1.4 1.4z"/>
</symbol>
<symbol id="icon-credit-transfer" viewBox="0 0 64 64">
	<path d="M60.3 0H40.6c-.6 0-1 .5-1 1.1 0 .3.1.5.3.7l5.8 5.8c.2.2.2.5 0 .7L35.3 18.5c-.4.4-.4 1 0 1.4.4.4 1 .4 1.4 0L48.2 8.6c.4-.4.4-1 0-1.4L44 3c-.2-.2-.2-.5 0-.7 0-.2.1-.3.3-.3h14.5c.3 0 .5.2.5.5V17c0 .2-.1.4-.3.5h-.2c-.1 0-.3-.1-.4-.1l-4.2-4.2c-.4-.4-1-.4-1.4 0L41.4 24.6c-.4.4-.4 1 0 1.4.4.4 1 .4 1.4 0l10.3-10.3c.1-.1.2-.1.4-.1.1 0 .3.1.4.1l5.8 5.8c.2.2.4.3.7.3.1 0 .3 0 .4-.1.4-.2.6-.5.6-.9V1c-.1-.5-.5-1-1.1-1zM61.3 29v16.7c0 .6-.5 1-1.1 1-.3 0-.5-.1-.7-.3l-5-5c-.2-.2-.5-.2-.7 0l-9.5 9.5c-.4.4-1 .4-1.4 0-.4-.4-.4-1 0-1.4l10.6-10.6c.4-.4 1-.4 1.4 0l3.5 3.5c.2.2.5.2.7 0 .1-.1.1-.2.1-.4V30.5c0-.3-.2-.5-.5-.5H47.3c-.2 0-.4.1-.5.3v.2c0 .1.1.3.1.4l3.5 3.5c.4.4.4 1 0 1.4l-6.1 6.1c-.4.4-1 .4-1.4 0-.2-.2-.3-.4-.3-.7 0-.3.1-.5.3-.7l5-5c.2-.2.2-.5 0-.7l-5-5c-.4-.4-.4-1 0-1.4.2-.2.5-.3.7-.3h16.7c.6-.1 1 .3 1 .9zM18.7 2.3v.2c0 .1.1.3.1.4l3.5 3.5c.4.4.4 1 0 1.4L11.7 18.4c-.4.4-1 .4-1.4 0-.4-.4-.4-1 0-1.4l9.5-9.5c.2-.2.2-.5 0-.7l-5-5c-.4-.4-.4-1 0-1.4.2-.3.4-.4.7-.4h16.7c.6 0 1 .5 1 1v16.7c0 .6-.5 1-1.1 1-.3 0-.5-.1-.7-.3l-5-5c-.2-.2-.5-.2-.7 0l-5 5c-.4.4-1 .4-1.4 0-.4-.4-.4-1 0-1.4l6.1-6.1c.4-.4 1-.4 1.4 0l3.5 3.5c.2.2.5.2.7 0 .1-.1.1-.2.1-.4V2.5c.1-.2-.1-.5-.4-.5H19.2c-.2 0-.4.2-.5.3z"/><g><path d="M27.3 58.6H5.7c-1.7 0-3-1.3-3-3V29.2c0-.3.1-.5.3-.7l5.4-5.4c.2-.2.4-.3.7-.3h18.3c1.7 0 3 1.3 3 3v29.7c-.1 1.7-1.4 3.1-3.1 3.1zm-22.7-29v26c0 .6.5 1 1.1 1h21.6c.6 0 1-.5 1-1V25.8c0-.6-.5-1-1-1.1H9.5l-4.9 4.9z"/><path d="M10.4 31.6H6.3c-.5 0-1-.4-1-.9s.4-1 .9-1h3.2v-3.1c0-.5.5-1 1-.9.5 0 .9.4.9.9v4.1c.1.4-.4.9-.9.9zM34.1 64H12.4c-1.7 0-3-1.3-3-3 0-.5.5-1 1-.9.5 0 .9.4.9.9 0 .6.5 1 1.1 1.1H34c.6 0 1-.5 1.1-1.1V31.2c0-.6-.5-1-1.1-1h-1.4c-.5 0-1-.5-.9-1 0-.5.4-.9.9-.9H34c1.7 0 3 1.3 3 3V61c.1 1.7-1.3 3-2.9 3z"/><path d="M23.2 49.8H9.7c-.5 0-1-.5-.9-1 0-.5.4-.9.9-.9h13.5c.5 0 1 .5.9 1 .1.5-.3.9-.9.9zM23.2 43H9.7c-.5 0-1-.5-.9-1 0-.5.4-.9.9-.9h13.5c.5 0 1 .5.9 1 .1.5-.3.9-.9.9zM23.2 36.3h-6.8c-.5 0-1-.4-1-.9s.4-1 .9-1H23.2c.5 0 1 .5.9 1 .1.5-.3.9-.9.9z"/></g>
</symbol>
<symbol id="icon-class-ratio" viewBox="0 0 64 64">
	<path d="M32 53.4c-3 0-5.3-2.8-5.3-6.4 0-2.9 2.4-5.3 5.3-5.3s5.3 2.4 5.3 5.3c0 3.7-2.3 6.4-5.3 6.4zm0-10c-2 0-3.6 1.6-3.6 3.6 0 2.7 1.5 4.7 3.6 4.7s3.6-2 3.6-4.7c0-2-1.6-3.6-3.6-3.6zM54.2 53.4c-3 0-5.3-2.8-5.3-6.4 0-2.9 2.4-5.3 5.3-5.3s5.3 2.4 5.3 5.3c0 3.7-2.2 6.4-5.3 6.4zm0-10c-2 0-3.6 1.6-3.6 3.6 0 2.7 1.5 4.7 3.6 4.7s3.6-2 3.6-4.7c0-2-1.6-3.6-3.6-3.6zM9.8 53.4c-3 0-5.3-2.8-5.3-6.4 0-2.9 2.4-5.3 5.3-5.3s5.3 2.4 5.3 5.3c0 3.7-2.3 6.4-5.3 6.4zm0-10c-2 0-3.6 1.6-3.6 3.6 0 2.7 1.5 4.7 3.6 4.7s3.6-2 3.6-4.7c0-2-1.7-3.6-3.6-3.6zM18.7 60.1c-.5 0-.9-.4-.9-.9v-.9c0-.5-.3-1-.8-1.2-2.3-1-4.7-1.5-7.2-1.5s-5 .5-7.3 1.5c-.5.2-.8.7-.8 1.3v.9c0 .5-.4.9-.9.9s-.8-.5-.8-1v-.9c0-1.2.7-2.3 1.8-2.8 2.5-1.1 5.2-1.6 8-1.6 2.7 0 5.4.5 7.9 1.6 1.1.5 1.8 1.6 1.8 2.8v.9c0 .5-.4.9-.8.9zM40.9 60.1c-.5 0-.9-.4-.9-.9v-.9c0-.5-.3-1-.8-1.2-2.3-1-4.7-1.5-7.2-1.5s-5 .5-7.3 1.5c-.5.2-.8.7-.8 1.3v.9c0 .5-.4.9-.9.9s-.9-.4-.9-.9v-.9c0-1.2.7-2.3 1.8-2.8 2.5-1.1 5.2-1.6 8-1.6 2.7 0 5.4.5 7.9 1.6 1.1.5 1.8 1.6 1.8 2.8v.9c.2.4-.2.8-.7.8zM63.1 60.1c-.5 0-.9-.4-.9-.8v-.9c0-.5-.3-1-.8-1.2-2.3-1-4.7-1.5-7.2-1.5s-5 .5-7.3 1.5c-.5.2-.8.7-.8 1.3v.9c0 .5-.4.9-.9.9s-.9-.4-.9-.9v-.9c0-1.2.7-2.3 1.8-2.8 2.5-1.1 5.2-1.6 8-1.6 2.7 0 5.4.5 7.9 1.6 1.1.5 1.8 1.6 1.8 2.8v.9c.2.3-.2.7-.7.7zM58.7 40.1H5.3c-.5 0-.9-.4-.9-.8V4.7c0-.5.4-.8.9-.8h53.4c.5 0 .9.4.9.8v34.5c-.1.5-.4.9-.9.9zM6.2 38.4h51.7V5.6H6.2v32.8z"/><path d="M46.5 9.9H5.3c-.4 0-.7-.3-.7-.7s.3-.7.7-.7h41.2c.4 0 .7.3.7.7s-.4.7-.7.7zM55.4 9.9h-2.2c-.4 0-.7-.3-.7-.7s.3-.7.7-.7h2.2c.4 0 .7.3.7.7s-.4.7-.7.7zM50.9 9.9h-2.2c-.4 0-.7-.3-.7-.7s.3-.7.7-.7h2.2c.4 0 .7.3.7.7s-.3.7-.7.7zM27.6 36.6c-.4 0-.7-.3-.7-.7v-4.4c0-1 .8-1.8 1.8-1.8h12.2c.9 0 1.6-.7 1.6-1.6 0-.9-.7-1.6-1.6-1.6H15.3c-1.5 0-2.7 1.2-2.7 2.7v6.7c0 .4-.3.7-.7.7s-.7-.3-.7-.7v-6.7c0-2.2 1.8-4 4-4h25.6c1.6 0 2.9 1.3 2.9 2.9 0 1.6-1.3 2.9-2.9 2.9H28.7c-.2 0-.4.2-.5.4v4.4c0 .5-.3.8-.6.8zM20.9 24.3c-2.9 0-5.1-2.7-5.1-6.2 0-2.8 2.3-5.1 5.1-5.1s5.1 2.3 5.1 5.1c0 3.5-2.2 6.2-5.1 6.2zm0-10c-2.1 0-3.8 1.7-3.8 3.8 0 2.8 1.6 4.9 3.8 4.9s3.8-2.1 3.8-4.9c0-2.1-1.7-3.8-3.8-3.8zM50.9 17.6H33.1c-.4 0-.7-.3-.7-.7 0-.4.3-.7.7-.7h17.8c.4 0 .7.3.7.7 0 .4-.3.7-.7.7zM50.9 22.1H33.1c-.4 0-.7-.3-.7-.7 0-.4.3-.7.7-.7h17.8c.4 0 .7.3.7.7 0 .4-.3.7-.7.7z"/>
</symbol>
<symbol id="icon-graduate" viewBox="0 0 64 64">
<path d="M15.8 0c-.6 0-1 .5-1 1.1 0 .5.4.9 1 1h5.7v9.8c0 4.7 1.3 8.8 4 12.1l.1.1V30l-12.1 4.6c-1.1.5-2 1.5-2.2 2.7L6.8 59.4c-.3 1.1 0 2.3.7 3.2.7.9 1.8 1.4 2.9 1.4h43.1c2.1 0 3.7-1.7 3.7-3.7 0-.3 0-.5-.1-.8l-4.5-22.3c-.3-1.2-1.1-2.2-2.3-2.6L38.2 30v-6l.1-.1c2.6-3.3 4-7.4 4-12.1V2H47v9.8c0 .6.4 1 1 1.1.6 0 1-.4 1.1-1V1c0-.6-.4-1-1-1H15.8zm37.7 62H33V36.5l4.6-4.6 12.1 4.6c.5.2.9.6 1 1.2L55.2 60c.1.5 0 1.1-.3 1.5-.3.3-.8.5-1.4.5zM31 62H10.5c-.5 0-1-.2-1.3-.6-.3-.4-.5-1-.3-1.5l4.4-22.2c.1-.5.5-1 1-1.2l12.1-4.6 4.6 4.6V62zm1-27.4l-4.4-4.4v-4.1l.6.5c1 .9 2.2 1.6 3.4 2.2.3.1.5.1.8 0 1.2-.6 2.4-1.3 3.4-2.2l.6-.5v4.1L32 34.6zm0-7.8l-.2-.1c-1.9-1.1-8.3-5.4-8.3-15v-1.6h16.9v1.7c0 9.7-6.3 13.9-8.3 15H32zm8.4-18.7H23.6V2h16.9l-.1 6.1z"/><circle cx="26.6" cy="45.5" r="1.3"/><circle cx="26.6" cy="50.9" r="1.3"/><circle cx="26.6" cy="40.1" r="1.3"/><circle cx="26.6" cy="56.3" r="1.3"/>
</symbol>
<symbol id="icon-academic-excellence" viewBox="0 0 64 64">
	<path d="M40.1 55.2c-.6 0-1 .5-1 1V63c0 .6.5 1 1 1 .2 0 .4 0 .5-.1l6.2-3.7 6.2 3.7c.3.2.7.2 1 0 .3-.2.5-.5.5-.9v-6.7c0-.6-.5-1-1-1-.6 0-1 .5-1 1v5l-5.2-3.1c-.3-.2-.7-.2-1 0l-5.2 3.1v-5c0-.6-.4-1.1-1-1.1zM46.8 28c-5.6 0-10.1 4.5-10.1 10.1s4.5 10.1 10.1 10.1 10.1-4.5 10.1-10.1S52.4 28 46.8 28zm0 17.5c-4.1 0-7.4-3.3-7.4-7.4s3.3-7.4 7.4-7.4 7.4 3.3 7.4 7.4c0 4.1-3.3 7.4-7.4 7.4z"/><path d="M46.8 52.5c.4 0 .9.3 1.8.9 1.1.7 2.3 1.5 3.5 1.1 1.3-.4 1.8-1.8 2.2-3 .4-1 .6-1.5.9-1.7.3-.2 1-.3 1.9-.3 1.4-.1 2.8-.1 3.5-1.2.8-1.1.4-2.4.1-3.7-.3-1-.4-1.6-.3-2 .1-.3.5-.7 1.3-1.3 1-.8 2.2-1.8 2.2-3.1 0-1.4-1.2-2.3-2.2-3.1l.2-.3-.2.3.2-.3-.2.3c-.8-.6-1.2-1-1.3-1.3-.1-.4.1-1.1.3-2 .4-1.3.7-2.6-.1-3.7-.8-1.1-2.2-1.1-3.5-1.2-.9 0-1.6-.1-1.9-.3-.3-.2-.5-.7-.9-1.7-.4-1.2-1-2.6-2.2-3-1.2-.4-2.4.3-3.5 1.1-.9.6-1.4.9-1.8.9-.4 0-.9-.3-1.8-.9-1.1-.7-2.3-1.5-3.5-1.1-1.3.4-1.8 1.8-2.3 3-.4 1-.6 1.5-.9 1.7-.3.2-1 .3-1.9.3-1.4.1-2.8.1-3.5 1.2-.8 1.1-.4 2.4-.1 3.7.2.9.4 1.6.3 2-.1.3-.5.7-1.3 1.3-1 .8-2.2 1.8-2.2 3.1s1.2 2.3 2.2 3.1c.8.7 1.2 1 1.3 1.3.1.4-.1 1.1-.3 2-.4 1.3-.7 2.6.1 3.7s2.2 1.1 3.5 1.2c.9 0 1.6.1 1.9.3.3.2.5.7.9 1.7.5 1.2 1 2.6 2.3 3 .2.1.5.1.7.1 1 0 1.9-.6 2.8-1.2.9-.6 1.5-.9 1.8-.9zm-4.6.1c-.4-.2-.6-.8-1-1.8s-.8-2.1-1.6-2.6c-.8-.6-1.9-.7-3-.7-1.2-.1-1.7-.1-1.9-.3l-.1-.2v-.1c-.1-.3 0-.9.3-1.9.3-1 .6-2.2.3-3.1-.3-.9-1.2-1.6-2-2.3-1-.8-1.4-1.2-1.4-1.5V38c.1-.3.5-.8 1.4-1.5.8-.7 1.7-1.3 2-2.3.3-1 0-2.1-.3-3.1-.3-1.2-.4-1.6-.3-1.9v-.1l.1-.1c.3-.2.9-.3 2-.3 1.1-.1 2.2-.1 3-.7.8-.6 1.2-1.6 1.6-2.6.4-1.2.7-1.6.9-1.8l.1-.1h.1c.3 0 .9.3 1.7.9.9.6 1.9 1.2 2.9 1.2s2-.7 2.9-1.2c1-.7 1.4-.9 1.6-.9h.1l.1.1c.3.2.5.7.9 1.8.4 1 .8 2.1 1.6 2.6.8.6 1.9.7 3 .7 1.2.1 1.7.1 1.9.3l.1.1v.1c.1.3 0 .9-.3 1.9-.3 1.1-.6 2.2-.3 3.1.3.9 1.2 1.6 2 2.3.9.7 1.3 1.1 1.4 1.5v.2c-.1.3-.6.8-1.4 1.5-.8.7-1.7 1.3-2 2.3-.3 1 0 2.1.3 3.1.3 1.2.4 1.7.3 1.9v.1l-.1.1c-.3.2-.9.3-1.9.3-1.1.1-2.2.1-3 .7-.8.6-1.2 1.6-1.6 2.6-.4 1.2-.7 1.6-.9 1.8h-.2c-.4 0-.8-.2-1.5-.7l-.2-.1c-.9-.6-1.9-1.2-2.9-1.2s-2 .7-2.9 1.2c-1.1.6-1.5.8-1.8.8z"/><path d="M1 0C.5 0 0 .5 0 1v62c0 .6.5 1 1 1h33.7c.6 0 1-.5 1-1 0-.6-.5-1-1-1H2V2h43.8v16.5c0 .6.5 1 1 1 .6 0 1-.5 1-1V1c0-.6-.5-1-1-1H1z"/><path d="M13 5.4c-.5 0-.9.4-1 .8-.5 3-2.8 5.3-5.8 5.8-.5.1-.8.5-.8 1v38c0 .5.4.9.8 1 3 .5 5.3 2.8 5.8 5.8.1.5.5.8 1 .8h21.7c.6 0 1-.5 1-1s-.5-1-1-1H13.8l-.1-.2a9.3 9.3 0 00-6.1-6.1l-.2-.1V13.8l.2-.1a9.3 9.3 0 006.1-6.1l.1-.2H34l.1.2a9.3 9.3 0 006.1 6.1l.2.1v4.7c0 .6.5 1 1 1 .6 0 1-.5 1-1V13c0-.5-.4-.9-.8-1-3-.5-5.3-2.8-5.8-5.8-.1-.5-.5-.8-1-.8H13z"/><path d="M30.7 15.8c.7 0 1.3-.6 1.3-1.3 0-.7-.6-1.3-1.3-1.3H17.2c-.7 0-1.3.6-1.3 1.3 0 .7.6 1.3 1.3 1.3h13.5zM34.7 22.6c0-.7-.6-1.3-1.3-1.3H13.2c-.7 0-1.3.6-1.3 1.3 0 .7.6 1.3 1.3 1.3h20.2c.7 0 1.3-.6 1.3-1.3zM28 28H13.2c-.7 0-1.3.6-1.3 1.3 0 .7.6 1.3 1.3 1.3H28c.7 0 1.3-.6 1.3-1.3 0-.7-.6-1.3-1.3-1.3zM13.2 37.4h12.1c.7 0 1.3-.6 1.3-1.3 0-.7-.6-1.3-1.3-1.3H13.2c-.7 0-1.3.6-1.3 1.3-.1.7.5 1.3 1.3 1.3zM13.2 44.1h13.5c.7 0 1.3-.6 1.3-1.3 0-.7-.6-1.3-1.3-1.3H13.2c-.7 0-1.3.6-1.3 1.3-.1.7.5 1.3 1.3 1.3zM15.8 50.9H28c.7 0 1.3-.6 1.3-1.3s-.6-1.3-1.3-1.3H15.8c-.7 0-1.3.6-1.3 1.3s.6 1.3 1.3 1.3z"/>
</symbol>
<symbol id="icon-accredited" viewBox="0 0 64 64">
	<path d="M37.1 51h-.3L32 49.6 27.2 51c-.3.1-.7 0-1-.2l-3.8-3.2-4.9-.7c-.3-.1-.6-.3-.8-.6l-2.2-4.5-4.2-2.7c-.3-.2-.5-.5-.5-.8l-.2-5L6.8 29c-.2-.3-.2-.7-.1-1l1.9-4.7-.9-5c0-.3.1-.7.3-.9l3.6-3.5L12.8 9c.1-.3.3-.6.7-.7l4.7-1.7 3.1-4c.2-.3.6-.4.9-.4l5 .3L31.6.2c.3-.2.7-.2 1 0L37 2.5l5-.3c.3 0 .7.1.9.4l3.1 4 4.7 1.7c.3.1.6.4.7.7l1.2 4.9 3.6 3.5c.2.2.4.6.3.9l-.9 5 1.9 4.7c.1.3.1.7-.1 1l-2.8 4.2-.2 5c0 .3-.2.7-.5.8l-4.2 2.7-2.2 4.5c-.2.3-.5.5-.8.6l-4.9.7-3.8 3.2c-.4.3-.7.3-.9.3zm-18.8-6.2l4.7.7c.2 0 .4.1.5.2l3.6 3.1 4.5-1.3c.2-.1.4-.1.6 0l4.5 1.3 3.6-3.1c.2-.1.3-.2.5-.2l4.7-.7 2.1-4.3c.1-.2.2-.3.4-.4l4-2.6.2-4.8c0-.2.1-.4.2-.5l2.6-4-1.8-4.5c-.1-.2-.1-.4-.1-.6l.8-4.7-3.4-3.3c-.1-.1-.2-.3-.3-.5l-.9-4.6-4.4-1.6c-.2-.1-.3-.2-.5-.3l-2.9-3.8-4.7.3c-.2 0-.4 0-.6-.1L32 2.3l-4.2 2.2c-.2.1-.4.1-.6.1l-4.7-.3L19.6 8c-.1.2-.3.3-.5.3L14.7 10l-1.2 4.6c0 .2-.1.4-.3.5l-3.4 3.3.8 4.7c0 .2 0 .4-.1.6l-1.8 4.5 2.6 4c.1.2.2.3.2.5l.2 4.8 4 2.6c.2.1.3.3.4.4l2.2 4.3zm13.7-1c-10.1 0-18.3-8.2-18.3-18.3 0-10.1 8.2-18.3 18.3-18.3s18.3 8.2 18.3 18.3c0 10.1-8.2 18.3-18.3 18.3zm0-34.5c-9 0-16.2 7.3-16.2 16.2 0 9 7.3 16.2 16.2 16.2 9 0 16.2-7.3 16.2-16.2 0-9-7.2-16.2-16.2-16.2z"/><path d="M39 36.4c-.2 0-.3 0-.5-.1L32 32.9l-6.5 3.4c-.5.3-1.2.1-1.4-.4-.1-.3-.1-.5-.1-.7l1.2-7.2-5.2-5.2c-.4-.4-.4-1.1 0-1.5.2-.2.4-.3.6-.3l7.2-1.1 3.2-6.6c.3-.5.9-.7 1.4-.5.2.1.4.3.5.5l3.2 6.6 7.2 1.1c.6.1 1 .6.9 1.2 0 .2-.1.4-.3.6l-5.2 5.1 1.2 7.2c.1.6-.3 1.1-.9 1.2.1.1 0 .1 0 .1zM23 22.8l4.1 4c.2.2.4.6.3.9l-1 5.6 5.1-2.7c.3-.2.7-.2 1 0l5.1 2.7-1-5.6c-.1-.3.1-.7.3-.9l4.1-4-5.7-.8c-.3 0-.6-.3-.8-.6L32 16.3l-2.5 5.2c-.2.2-.5.5-.8.5l-5.7.8zM19 64c-.5 0-.8-.3-.9-.6l-4-8.2-7 .4c-.6 0-1.1-.4-1.1-1 0-.2.1-.5.2-.7L15 41.5c.3-.5 1-.6 1.5-.2.5.3.6 1 .2 1.4L9.2 53.3l5.5-.3c.4 0 .8.2 1 .6l3.5 7.3 8.6-12c.3-.5 1-.6 1.5-.2.5.3.6 1 .2 1.5l-9.6 13.5c-.2.1-.5.3-.9.3zM45 64c-.3 0-.7-.2-.9-.4l-9.6-13.5c-.3-.5-.2-1.1.2-1.5.5-.3 1.1-.2 1.5.2l8.6 12 3.5-7.3c.2-.4.6-.6 1-.6l5.5.3-7.5-10.5c-.3-.5-.2-1.1.3-1.5.5-.3 1.1-.2 1.4.2l8.8 12.3c.3.5.2 1.1-.2 1.5-.2.1-.4.2-.7.2l-7-.4-4 8.2c-.2.5-.5.8-.9.8z"/>
</symbol>
<symbol id="icon-dot" viewBox="0 0 64 64">
	<circle cx="32" cy="32" r="15"/>
</symbol>
</defs>
</svg>
